<?xml version="1.0" standalone="no"?>
<!DOCTYPE svg PUBLIC "-//W3C//DTD SVG 1.1//EN" "http://www.w3.org/Graphics/SVG/1.1/DTD/svg11.dtd" >
<svg xmlns="http://www.w3.org/2000/svg" xmlns:xlink="http://www.w3.org/1999/xlink" version="1.1">
<metadata>
Created by FontForge 20150102 at Thu Mar 12 03:14:52 2015
 By uniteet7
(c) Apostrophic Laboratories &#38; Dana Rice. All rights reserved. apostrofe@mail.com
</metadata>
<defs>
<font id="Lilly" horiz-adv-x="690" >
  <font-face 
    font-family="Lilly"
    font-weight="400"
    font-stretch="normal"
    units-per-em="1000"
    panose-1="2 0 0 3 4 0 0 9 0 3"
    ascent="800"
    descent="-200"
    x-height="562"
    cap-height="900"
    bbox="-186 -452 1198 1248"
    underline-thickness="30"
    underline-position="-85"
    unicode-range="U+0005-2122"
  />
<missing-glyph horiz-adv-x="417" 
 />
    <glyph glyph-name=".notdef" horiz-adv-x="417" 
 />
    <glyph glyph-name=".null" horiz-adv-x="0" 
 />
    <glyph glyph-name="nonmarkingreturn" horiz-adv-x="333" 
 />
    <glyph glyph-name="breve" horiz-adv-x="384" 
d="M352 672q0 17 -5.5 25.5t-27.5 8.5h-37q-13 -1 -23 -10t-10 -21v-3q0 -18 -6.5 -32t-17.5 -24t-24.5 -15.5t-26.5 -5.5q-36 0 -51 17.5t-15 44.5q0 10 -5 20.5t-22 13.5h-44q-17 -5 -25 -12.5t-8 -21.5q0 -32 10 -59t30.5 -47.5t52 -32t75.5 -11.5q37 0 70 11.5t57.5 33
t38.5 52t14 68.5z" />
    <glyph glyph-name="dotaccent" horiz-adv-x="187" 
d="M133 489q0 23 -14.5 39t-34.5 16t-34 -15.5t-14 -38.5v-3q0 -23 14 -38.5t34 -15.5t34.5 16t14.5 40z" />
    <glyph glyph-name="ring" horiz-adv-x="364" 
d="M297 685q-11 43 -44 69t-75 26q-26 0 -50.5 -11t-43 -29t-30 -42t-11.5 -50q0 -11 1 -15.5t2 -10.5q9 -43 42 -68t74 -25q26 0 50.5 10.5t43.5 28.5t30.5 42t11.5 51q0 8 -0.5 13.5t-0.5 10.5zM204 678v-9q0 -20 -14.5 -38t-33.5 -18q-6 0 -11.5 3.5t-6.5 10.5q-2 5 -2 7
v3q0 22 14.5 39.5t33.5 17.5q16 0 18 -15z" />
    <glyph glyph-name="hungarumlaut" unicode="&#xa;" horiz-adv-x="396" 
d="M201 733l-18 15q-5 2 -11.5 5t-14.5 3q-18 0 -33 -15l-144 -158q-12 -15 -12 -25q0 -7 4 -15t13 -14l-2 2l9 -6q7 -7 14.5 -9.5t12.5 -2.5q12 0 29 12l154 150q14 14 14 27q0 18 -15 30v1zM384 733l-17 15q-5 2 -11 5t-14 3q-11 0 -18.5 -4t-14.5 -11l-144 -158l1 2
q-7 -7 -10 -14.5t-3 -12.5q0 -7 3.5 -15t12.5 -14l-1 2l9 -6q7 -7 14 -9.5t13 -2.5q13 0 28 12l155 150q13 13 13 27q0 19 -15 30z" />
    <glyph glyph-name="ogonek" horiz-adv-x="352" 
d="M273 -126q0 3 -5.5 11t-12.5 16.5t-14.5 14.5t-11.5 6q-9 0 -16.5 -3.5t-17.5 -11.5l1 1q-5 -3 -10.5 -6t-10.5 -3q-9 0 -15 6t-6 15q0 15 12.5 31.5t25.5 30.5q10 11 16 23.5t6 21.5q-2 8 -7 13.5t-12 8.5t-13.5 4.5t-9.5 1.5t-6.5 -0.5t-11.5 -2.5t-12.5 -3.5t-8 -3.5
t-7.5 -5.5t-11 -9.5h2q-6 -5 -16 -16t-19.5 -26t-17 -34t-7.5 -40v-4q0 -49 30.5 -75t78.5 -26q17 0 33 4t30 11q20 9 32 22.5t12 27.5z" />
    <glyph glyph-name="caron" horiz-adv-x="385" 
d="M348 703l-3 5q-9 5 -21.5 10.5t-23.5 5.5q-6 0 -12 -1t-14 -8l-99 -94l-91 88q-6 8 -14.5 11.5t-15.5 3.5q-11 0 -22 -5.5t-19 -12.5l-1 -3q-12 -9 -12 -22q0 -6 3 -9l10 -10h-1l136 -143q14 -14 32 -14q16 0 30 14l138 143q5 5 8.5 5.5t3.5 13.5q0 5 -2.5 11t-9.5 11z
" />
    <glyph glyph-name="dotlessi" unicode="&#xd;" horiz-adv-x="355" 
d="M152 546q0 13 -5.5 23t-14.5 16t-20 9t-21 3h-3q-23 0 -37.5 -14t-14.5 -34v-459q0 -27 14.5 -46.5t33 -32.5t37 -19.5t27.5 -6.5h6q8 -2 11.5 -1t12.5 1q47 0 78 16t52 33l-1 -1q11 9 18 20.5t7 24.5v3q0 3 -5.5 13.5t-13.5 22t-17.5 20t-17.5 8.5q-12 0 -19 -3.5
t-18 -14.5q-9 -8 -26.5 -16.5t-26.5 -8.5q-16 0 -22.5 10.5t-10.5 29.5q-1 4 -1.5 8t-1.5 9v387z" />
    <glyph glyph-name="fraction" horiz-adv-x="289" 
d="M379 832q4 7 4.5 11t0.5 9q0 17 -14 33t-28 27h-3q-4 2 -8.5 4t-9.5 2q-15 0 -23.5 -9t-15.5 -20l-398 -820q-3 -7 -3.5 -10.5t-0.5 -9.5q0 -16 11.5 -32.5t27.5 -25.5l4 -2q5 -1 9 -2.5t11 -1.5q14 0 22 7t15 20z" />
    <glyph glyph-name="fi" horiz-adv-x="726" 
d="M502 545q0 27 -20.5 39t-43.5 12l-251 -2q1 50 4 91.5t9 71t15.5 46t24.5 16.5q14 0 22 -3.5t15 -8.5l8 -6q10 -8 21 -8h3q6 0 14.5 6.5t17 16.5t15 20.5t7.5 18.5v3q0 14 -6.5 22.5t-14.5 16.5h1q-8 8 -20.5 15t-26.5 12.5t-28 8.5t-25 3q-52 0 -84 -25.5t-50 -68.5
t-24.5 -100.5t-6.5 -120.5v-12l-2 -15h-48q-18 0 -30 -9t-12 -35v-4q0 -11 3.5 -23t9.5 -22t14.5 -16.5t19.5 -6.5h45v-875q0 -14 6 -23.5t15.5 -15.5t21.5 -9t23 -3h3q23 0 31.5 11t8.5 32v883h199v-374q0 -27 14.5 -46.5t33 -32.5t37 -19.5t27.5 -6.5h6q8 -2 11.5 -1
t12.5 1q47 0 78 16t52 33l-1 -1q11 9 18 20.5t7 24.5v3q0 3 -5.5 13.5t-13.5 22t-17.5 20t-17.5 8.5q-12 0 -19 -3.5t-18 -14.5q-9 -8 -26.5 -16.5t-26.5 -8.5q-16 0 -22.5 10.5t-10.5 29.5q-1 4 -1.5 8t-1.5 9v372zM516 840q0 31 -18.5 53t-44.5 22q-27 0 -44 -22t-17 -53
q0 -30 17 -52.5t44 -22.5q26 0 44.5 22.5t18.5 52.5z" />
    <glyph glyph-name="fl" horiz-adv-x="698" 
d="M363 858q0 14 -6.5 22.5t-14.5 16.5h1q-8 8 -20.5 15t-26.5 12.5t-28 8.5t-25 3q-52 0 -84 -25.5t-50 -68.5t-24.5 -100.5t-6.5 -120.5v-12l-2 -15h-48q-18 0 -30 -9t-12 -35v-4q0 -11 3.5 -23t9.5 -22t14.5 -16.5t19.5 -6.5h45v-875q0 -14 6 -23.5t15.5 -15.5t21.5 -9
t23 -3h3q23 0 31.5 11t8.5 32v883h80q19 0 30.5 8t11.5 34v5q0 11 -3.5 23.5t-10 22.5t-15 16.5t-18.5 6.5h-75q1 50 4 91.5t9 71t15.5 46t24.5 16.5q14 0 22 -3.5t15 -8.5l8 -6q10 -8 21 -8h3q6 0 14.5 6.5t17 16.5t15 20.5t7.5 18.5v3zM391 108q2 -13 11 -32.5t25.5 -38
t39.5 -32t53 -13.5q47 0 78 16t52 33l-1 -1q11 9 18 20.5t7 24.5v3q0 3 -5.5 13.5t-13.5 22t-17.5 20t-17.5 8.5q-12 0 -19 -3.5t-18 -14.5q-9 -8 -26.5 -16.5t-26.5 -8.5q-29 0 -37 40q-1 4 -1.5 8t-1.5 9l-1 736q0 13 -6 22.5t-15.5 16t-20.5 9.5t-21 3h-3
q-21 0 -28.5 -14.5t-7.5 -33.5v-725z" />
    <glyph glyph-name="Lslash" horiz-adv-x="592" 
d="M585 46q-1 12 -4.5 25t-9.5 23.5t-15 17t-21 6.5h-336l-1 257l157 132h-1q21 11 21 36q0 7 -2 12t-7 12v1q-11 13 -28 23t-29 10q-7 0 -12 -2t-11 -4l-88 -73l1 333q0 13 -7.5 22.5t-18.5 16t-24 10t-23 3.5h-5q-26 0 -33.5 -12.5t-9.5 -32.5v-438l-78 -64l3 1
q-9 -8 -15 -18t-6 -18q0 -15 9 -25l3 -5q9 -11 26 -21t31 -10q10 0 21 7l6 5l1 -221q0 -29 13 -42t37 -13h409q20 0 32 9.5t13 30.5z" />
    <glyph glyph-name="lslash" horiz-adv-x="434" 
d="M120 102q6 -31 15.5 -53t23.5 -36t35 -20.5t51 -6.5q47 0 78 16t52 33l-1 -1q11 9 18 20.5t7 24.5v3q0 3 -5.5 13.5t-13.5 22t-17.5 20t-17.5 8.5q-12 0 -19 -3.5t-18 -14.5q-9 -8 -26.5 -16.5t-26.5 -8.5q-29 0 -37 40q-1 4 -1.5 8t-1.5 9l-1 271l3 3l89 83q8 7 13.5 15
t5.5 21q0 12 -9 24v1q-11 16 -25.5 25.5t-27.5 9.5q-5 0 -10.5 -3t-10.5 -5l-24 -22l-4 -4l-1 317q0 13 -6 22.5t-15 16t-20 9.5t-21 3h-3q-21 0 -28.5 -14.5t-7.5 -33.5v-414l-3 -3l-84 -76l1 1q-8 -7 -13 -17t-5 -20q0 -17 11 -29q8 -11 22.5 -20.5t28.5 -9.5q10 0 19 6
l18 18l5 4v-165z" />
    <glyph glyph-name="Zcaron" horiz-adv-x="751" 
d="M652 865q-5 15 -16.5 25t-29.5 10h-557q-23 0 -34.5 -10t-11.5 -35v-5q0 -11 3.5 -23.5t10 -22.5t16 -16.5t21.5 -6.5h412l-462 -703q-5 -8 -8.5 -16.5t-3.5 -16.5q0 -20 13 -32.5t29 -12.5h588q18 0 31.5 8.5t13.5 31.5l2 5q0 12 -3.5 25t-10 23.5t-16 17.5t-21.5 7
h-440l461 696l-2 -1q7 7 11 19t4 23v10zM502 1144l-3 5q-9 5 -21.5 10.5t-23.5 5.5q-6 0 -12 -1t-14 -8l-99 -94l-91 88q-6 8 -14.5 11.5t-15.5 3.5q-11 0 -22 -5.5t-19 -12.5l-1 -3q-12 -9 -12 -22q0 -6 3 -9l10 -10h-1l136 -143q14 -14 32 -14q16 0 30 14l138 143
q5 5 8.5 5.5t3.5 13.5q0 5 -2.5 11t-9.5 11z" />
    <glyph glyph-name="zcaron" horiz-adv-x="600" 
d="M496 519q0 17 -14 30t-26 13h-392q-20 0 -31.5 -7t-13.5 -30v-11q0 -21 12.5 -42.5t35.5 -21.5h242l-291 -374q-5 -8 -8.5 -15t-3.5 -18q0 -17 14 -30t26 -13h408q18 0 31 7.5t13 32.5v9q-2 22 -14.5 42.5t-35.5 20.5h-255l287 372q16 15 16 35zM426 846l-3 5
q-9 5 -21.5 10.5t-23.5 5.5q-6 0 -12 -1t-14 -8l-99 -94l-91 88q-6 8 -14.5 11.5t-15.5 3.5q-11 0 -22 -5.5t-19 -12.5l-1 -3q-12 -9 -12 -22q0 -6 3 -9l10 -10h-1l136 -143q14 -14 32 -14q16 0 30 14l138 143q5 5 8.5 5.5t3.5 13.5q0 5 -2.5 11t-9.5 11z" />
    <glyph glyph-name="space" unicode=" " horiz-adv-x="398" 
 />
    <glyph glyph-name="space" unicode="&#xa0;" horiz-adv-x="398" 
 />
    <glyph glyph-name="exclam" unicode="!" horiz-adv-x="193" 
d="M112 906q-11 0 -23.5 -3.5t-23 -10t-17 -15.5t-6.5 -20v-556q0 -20 8 -32.5t31 -12.5l3 -1q11 0 23.5 3.5t22.5 10t16.5 15.5t6.5 20v557q0 16 -6.5 29t-31.5 15zM161 78q0 31 -18.5 53t-44.5 22q-27 0 -44 -22t-17 -53q0 -30 17 -52.5t44 -22.5q26 0 44.5 22.5
t18.5 52.5z" />
    <glyph glyph-name="quotedbl" unicode="&#x22;" horiz-adv-x="328" 
d="M133 811q0 12 -6 21t-15 14.5t-20 8.5t-20 3h-11q-23 0 -30 -13t-7 -31l4 -243q0 -12 5.5 -20.5t14.5 -14t19.5 -8t20.5 -2.5h2q21 0 30 12t9 30zM279 811q0 12 -6 21t-15 14.5t-20 8.5t-21 3h-10q-23 0 -30.5 -13t-7.5 -31l6 -243q0 -23 19.5 -34t39.5 -11h1
q22 0 30.5 12t8.5 30z" />
    <glyph glyph-name="numbersign" unicode="#" horiz-adv-x="745" 
d="M661 810q0 1 1 4t1 5q0 9 -4.5 17.5t-11 16t-14.5 13t-15 8.5l-9 3q-7 4 -11.5 4.5t-8.5 0.5q-16 0 -25.5 -9.5t-14.5 -25.5v2l-80 -233h-99l65 194q0 1 0.5 4t0.5 5q0 18 -14.5 34t-30.5 21l-11 4q-5 3 -10 3.5t-7 0.5q-15 0 -24.5 -9.5t-14.5 -25.5v2l-80 -233h-172
q-25 0 -38 -21t-13 -45v-6q0 -25 11.5 -34t34.5 -9h138l-30 -90h-103q-12 0 -21.5 -6t-16 -15.5t-10 -21t-3.5 -23.5v-6q0 -25 11.5 -34.5t34.5 -9.5h69l-79 -241q0 -2 -1 -5t-1 -4q0 -20 14.5 -36t30.5 -21l14 -3l-5 1q6 -3 9.5 -3.5t8.5 -0.5q16 0 26 10t15 24v-1l94 280
h101l-81 -241q0 -2 -1 -5t-1 -4q0 -20 15.5 -36t31.5 -21l13 -3l-6 1q7 -3 10 -3.5t8 -0.5q17 0 27 10t15 24v-1l93 280h159q25 0 38 20.5t13 45.5v6q0 24 -13.5 34t-32.5 10h-125l30 90h90q25 0 38 20.5t13 45.5v6q0 23 -13.5 33t-32.5 10h-54zM330 501h102l-32 -90h-100z
" />
    <glyph glyph-name="dollar" unicode="$" horiz-adv-x="591" 
d="M130 174q-1 0 -2 0.5l-1 0.5h-1q-8 7 -16.5 13.5t-19.5 6.5q-8 0 -17 -7.5t-17 -18t-13.5 -22t-5.5 -20.5v-6q5 -14 9 -22t15 -17q41 -27 80 -45t93 -24v-67q0 -26 15 -39.5t40 -13.5h6q25 0 33 14t8 34v72q43 6 79.5 23.5t62.5 45t41 64.5t15 83q0 20 -2.5 39t-8.5 42
q-14 54 -58 104t-125 91l-4 2v273q35 -9 64 -24l11 -6v1q10 -7 17.5 -8.5t16.5 -1.5q11 0 20 7.5t16 17.5t10.5 21t3.5 18v6q-2 20 -11.5 29t-26.5 15l3 -2q-37 16 -66.5 26.5t-57.5 15.5l1 27q-5 51 -57 51h-4q-24 0 -33 -14t-9 -34v-28q-44 -5 -81 -19.5t-64 -39
t-42.5 -59.5t-15.5 -82q0 -16 0.5 -30t4.5 -30q6 -32 22.5 -59t40.5 -51t54 -44t63 -38l18 -10v-311q-26 5 -49 16.5t-52 31.5l2 -1q-6 4 -8 4zM412 280q2 -10 4 -19t2 -20q0 -39 -23.5 -68t-58.5 -43v249q28 -18 48 -42.5t28 -56.5zM148 657q-2 10 -2.5 17t-0.5 13
q0 39 25.5 62t63.5 31v-219q-32 17 -55.5 39t-30.5 57z" />
    <glyph glyph-name="percent" unicode="%" horiz-adv-x="745" 
d="M145 -11l5 -1q3 -1 7 -2t9 -1q14 0 22.5 7t15.5 20l409 820q4 7 4.5 11t0.5 9q0 17 -12.5 33t-29.5 25l-3 2q-4 2 -8.5 4t-11.5 2q-14 0 -23.5 -9t-16.5 -20l-408 -820q-4 -7 -4.5 -10.5t-0.5 -9.5q0 -16 13.5 -32.5t33.5 -27.5h-2zM363 736q0 34 -9 66.5t-28.5 57.5
t-50.5 40t-74 15q-38 0 -70 -17t-55 -45t-36 -63.5t-13 -72.5q0 -34 9 -65.5t28.5 -56t50 -39.5t72.5 -15q36 0 68 15t56 41.5t38 62t14 76.5zM690 183q0 34 -9.5 66t-29 57t-51 40t-74.5 15q-38 0 -69.5 -17t-54 -45t-35 -63.5t-12.5 -72.5q0 -34 9 -65.5t28.5 -56t50 -39
t73.5 -14.5q35 0 66.5 15t55.5 41t38 62t14 77zM583 183q0 -19 -6 -36.5t-15.5 -30.5t-21 -21t-23.5 -8q-30 0 -42 22t-12 48v6q0 16 5 33.5t13.5 31t20 22.5t24.5 9q33 0 45 -23.5t12 -52.5zM256 736q0 -18 -6 -35t-15 -30t-21 -21t-24 -8q-16 0 -26.5 6.5t-16.5 17.5
t-8.5 24t-2.5 27q0 16 5 33t13.5 31t20 23t23.5 9q32 0 45 -24t13 -53z" />
    <glyph glyph-name="ampersand" unicode="&#x26;" horiz-adv-x="975" 
d="M458 458v-5q0 -11 3.5 -23t10 -22t16 -16t21.5 -6q31 1 64.5 0.5t63 -1t52.5 -0.5h34q-2 -45 -10 -78t-18.5 -57.5t-22.5 -41t-22 -27.5q-13 -11 -32 -25t-46 -26t-62.5 -19.5t-80.5 -5.5q-86 1 -139.5 31t-79.5 74t-28 95t14 95t48 73t74 29h18q20 0 34 18.5t14 44.5
t-11 37t-31 16h1q-32 7 -46.5 31.5t-14.5 56.5q0 15 8 31t24 29.5t39.5 22.5t54.5 9q26 0 46.5 -4.5t36.5 -11.5t28.5 -15.5t23.5 -15.5q1 -1 3 -2.5t4 -3.5l-1 2q14 -11 21.5 -13t21.5 -2q12 0 23 8t19 19t13.5 22t6.5 18q-2 14 -9.5 28.5t-25.5 25.5q-2 2 -5 3.5l-5 2.5
l1 -1q-12 7 -31 17t-46 19.5t-62 16.5t-78 7q-63 0 -108 -20t-74 -51t-43 -68t-14 -71v-5q0 -30 10 -62t28 -59q-30 -15 -57 -38.5t-47.5 -55t-33 -71t-12.5 -87.5q0 -23 2 -40.5t5 -34.5q14 -67 50 -117.5t87 -84.5t113.5 -51t129.5 -17q76 0 150.5 23.5t133.5 69
t95.5 113.5t38.5 157v37h70q20 0 32.5 8.5t14.5 32.5v9q-1 10 -4.5 22t-10 22.5t-16 17.5t-22.5 7l-406 -1q-23 0 -35 -9.5t-12 -35.5z" />
    <glyph glyph-name="quotesingle" unicode="'" horiz-adv-x="124" 
d="M91 811q0 24 -14.5 35.5t-27.5 11.5h-7q-16 0 -21 -13t-5 -31l3 -243q0 -23 14 -34t28 -11q15 0 21 12t6 30z" />
    <glyph glyph-name="parenleft" unicode="(" horiz-adv-x="304" 
d="M268 888q0 8 -3.5 18t-9.5 18.5t-13.5 14.5t-15.5 6q-7 0 -35.5 -32t-60.5 -99.5t-57.5 -172t-26.5 -250.5q0 -63 5 -115.5t13 -97.5q15 -90 40 -155t50.5 -106.5t45.5 -61.5t25 -20q8 0 15.5 6t13.5 15t9.5 18.5t3.5 17.5q0 12 -3 20.5t-5 13.5q-34 59 -54.5 120
t-30.5 129q-8 51 -12.5 105t-4.5 111q0 138 25 251.5t80 210.5l-0.5 0.5t-2.5 -1.5q4 7 6.5 14t2.5 22z" />
    <glyph glyph-name="parenright" unicode=")" horiz-adv-x="304" 
d="M217 601q-15 90 -40 155t-50.5 107t-46 62t-25.5 20q-8 0 -15.5 -6t-13.5 -15t-9.5 -19t-3.5 -17q0 -13 3 -21.5t5 -13.5q34 -59 55 -120t32 -129q8 -51 12 -104.5t4 -111.5q0 -138 -25.5 -251.5t-79.5 -210.5q0 -1 2 2q-2 -7 -5.5 -14.5t-3.5 -21.5q0 -9 3.5 -19
t9.5 -18.5t13.5 -14t15.5 -5.5q7 0 35.5 32t60.5 99t57.5 171.5t26.5 250.5q0 63 -5 115.5t-12 97.5z" />
    <glyph glyph-name="asterisk" unicode="*" horiz-adv-x="448" 
d="M358 852q-16 0 -30 -14l2 2l-66 -57l1 97q-2 17 -9.5 28t-30.5 11h-3q-22 0 -42.5 -13t-20.5 -35v-97l-66 57q-7 7 -14.5 9.5t-14.5 2.5q-8 0 -14.5 -3t-13.5 -11l-3 -4q-18 -23 -18 -48q0 -19 13 -33l110 -96l-110 -95q-13 -13 -13 -34q0 -11 4.5 -26t10.5 -24l1 -4
q6 -11 15.5 -15.5t17.5 -4.5q15 0 29 14l64 55v-109q2 -17 9.5 -29t31.5 -12h4q10 0 21 3.5t20 10t15 16t6 20.5v105l66 -56q9 -13 28 -13q9 0 16 3t16 13l1 6q7 9 12.5 22t5.5 23q0 23 -18 35l3 -3l-112 97l112 98q14 16 14 36q0 12 -5 26t-12 25l-1 3q-9 10 -16 14t-16 4z
" />
    <glyph glyph-name="plus" unicode="+" horiz-adv-x="640" 
d="M607 339q0 11 -3.5 23.5t-10 23t-15.5 17t-20 6.5h-192v200q0 20 -8.5 36.5t-33.5 16.5h-3q-10 0 -23 -5t-24 -13t-19 -18.5t-8 -21.5v-195h-195q-20 0 -32.5 -8t-12.5 -31l-1 -3q0 -11 3.5 -23.5t10 -22.5t15.5 -16.5t20 -6.5h192v-204q0 -19 10.5 -30.5t31.5 -11.5h3
q10 0 23 3.5t24 10.5t19 16.5t8 20.5v195h196q16 0 29 6.5t15 31.5z" />
    <glyph glyph-name="comma" unicode="," horiz-adv-x="156" 
d="M126 109q0 2 0.5 4.5t0.5 4.5q0 15 -8 25.5t-20 10.5h-3l-30 -4q-16 -2 -23.5 -12.5t-9.5 -19.5l-32 -222v-7q0 -15 8 -27t22 -12h3l17 1q10 2 19 8t14 25z" />
    <glyph glyph-name="hyphen" unicode="-" horiz-adv-x="473" 
d="M451 339q0 11 -3.5 23.5t-10 23t-15.5 17t-20 6.5h-350q-20 0 -32.5 -8t-12.5 -31l-1 -3q0 -11 3.5 -23.5t10 -22.5t15.5 -16.5t20 -6.5h351q16 0 29 6.5t15 31.5z" />
    <glyph glyph-name="period" unicode="." horiz-adv-x="150" 
d="M136 63q0 29 -19 51t-45 22q-29 0 -47 -22t-18 -51q2 -31 20.5 -51.5t44.5 -20.5t45 20.5t19 51.5z" />
    <glyph glyph-name="slash" unicode="/" horiz-adv-x="421" 
d="M414 867v12q0 20 -13.5 35t-33.5 23q-5 4 -9.5 4.5t-8.5 0.5q-14 0 -23.5 -9.5t-15.5 -25.5v2l-327 -951v1q-2 -5 -2.5 -9.5t-0.5 -9.5q0 -20 15 -36t33 -21h-1q7 -2 11.5 -2.5t7.5 -0.5q29 0 38 33v-2z" />
    <glyph glyph-name="zero" unicode="0" horiz-adv-x="895" 
d="M830 409q6 103 -16.5 195t-73.5 161t-130.5 109.5t-187.5 40.5q-90 0 -159.5 -34.5t-118 -93.5t-75.5 -136.5t-32 -164.5q-6 -93 13.5 -182.5t66.5 -159.5t122 -113t180 -43q91 0 164.5 30.5t126 85.5t83.5 132.5t37 172.5zM706 424q-4 -73 -26.5 -132t-61 -100.5
t-91 -64t-116.5 -22.5q-65 0 -113.5 28t-80.5 77.5t-46 116.5t-9 145q4 69 24 128t54 102.5t82 68.5t108 25q71 0 125 -27t89 -76t51 -117.5t11 -151.5z" />
    <glyph glyph-name="one" unicode="1" horiz-adv-x="331" 
d="M234 870q0 14 -8 25t-22 11h-23q-9 0 -18.5 -7t-14.5 -14l-163 -192q-9 -11 -9 -27q0 -14 9 -31.5t18 -28.5q5 -7 12.5 -10.5t12.5 -3.5q11 0 19 6.5t13 14.5l-5 -4l71 82v-649q0 -12 6.5 -21.5t16.5 -15.5t21.5 -9.5t21.5 -3.5h3q21 0 30 14t9 34v830z" />
    <glyph glyph-name="two" unicode="2" horiz-adv-x="586" 
d="M507 706q-9 47 -32.5 85.5t-58 65.5t-77 41.5t-90.5 14.5q-69 0 -111.5 -10.5t-62.5 -17.5h-5q-23 -9 -29.5 -19.5t-6.5 -27.5q0 -8 6 -20.5t14 -24t17.5 -20t15.5 -8.5q9 0 13.5 1t14.5 6q14 5 49 14t83 9q54 0 88.5 -25.5t45.5 -75.5q2 -10 4 -23.5t2 -21.5
q-1 -51 -20 -103.5t-49 -102.5t-67 -97t-73.5 -87.5t-69 -72.5t-54.5 -53q-11 -10 -19.5 -18t-12.5 -12l-1 -1q-9 -11 -13.5 -18t-4.5 -21v-8q1 -9 3.5 -18.5t7.5 -18t13 -13.5t21 -5h451q18 0 32.5 8.5t14.5 30.5q0 1 -1 2.5t-1 3.5v4q0 2 -0.5 4t-0.5 4q-3 10 -7.5 21
t-10.5 20t-14.5 14.5t-20.5 5.5h-276q37 34 85.5 87.5t93 119.5t78 143t39.5 160v12q0 16 -0.5 36t-2.5 30z" />
    <glyph glyph-name="three" unicode="3" horiz-adv-x="570" 
d="M493 666q0 60 -22 106t-59.5 78t-87.5 48.5t-105 16.5q-43 0 -87.5 -6t-83.5 -17h1q-21 -3 -29 -13.5t-8 -28.5v-7q0 -3 1 -8q2 -7 4 -12.5t4 -12.5q8 -15 17 -24t23 -9h5q1 0 14.5 3.5t34.5 7t47.5 7t54.5 3.5q29 0 57 -7t50 -21t35.5 -36.5t13.5 -52.5q0 -43 -19.5 -72
t-46.5 -47t-56 -25.5t-50 -7.5q-6 0 -11.5 1t-11.5 1h-21q-23 0 -31 -13.5t-8 -36.5v-9q0 -30 6.5 -46.5t38.5 -16.5h41q33 0 65 -10t57.5 -30t41.5 -49t16 -67q0 -33 -10 -57t-26 -40.5t-36 -26.5t-39 -15.5t-35 -7t-25 -1.5q-38 0 -65 4t-46 9l1 -1l-22 6q-3 0 -5 1
q-11 3 -22 3t-18.5 -6t-12.5 -15t-8 -19t-5 -18l2 3q-2 -7 -2.5 -11t-0.5 -7q0 -22 13 -33t29 -17q27 -7 69.5 -11.5t90.5 -4.5q20 0 50 3.5t62.5 13.5t65 28t58.5 46.5t42 70t16 97.5q0 67 -32.5 127.5t-84.5 96.5q45 30 74.5 81t30.5 114z" />
    <glyph glyph-name="four" unicode="4" horiz-adv-x="606" 
d="M579 385q-2 9 -6 20.5t-10 21t-14.5 16.5t-19.5 7h-66v426q0 14 -9 25t-27 11h-21q-12 0 -23.5 -9.5t-16.5 -16.5l-369 -472q-12 -18 -12 -35q0 -18 13 -32t35 -14h310v-288q0 -12 7.5 -22t18 -17t23 -10.5t23.5 -3.5h5q25 0 34 14t9 34v293h80q19 0 27.5 13.5t8.5 29.5
v9zM178 450l165 214v-214h-165z" />
    <glyph glyph-name="five" unicode="5" horiz-adv-x="634" 
d="M517 843q-2 8 -6 19t-10.5 21t-15 17t-19.5 7l-351 -13l-55 -396v-2q-2 -9 -2.5 -14t-0.5 -8q0 -20 12.5 -34t32.5 -14h7t7.5 1.5t11.5 3.5t19 7h3q14 3 47.5 9.5t78.5 6.5q35 0 65 -11t51.5 -32.5t34 -52t12.5 -69.5t-14.5 -72.5t-38 -58t-53.5 -38.5t-60 -14
q-58 0 -100 9t-65 17h-2q-5 2 -8.5 2.5t-10.5 0.5q-10 0 -18 -7t-14 -17.5t-9.5 -23t-5.5 -23.5v-7q0 -18 9.5 -29t22.5 -16q20 -7 70 -15.5t132 -8.5q56 0 108.5 20.5t93.5 59t66 93.5t25 124q0 66 -23 119t-63 91t-94.5 58.5t-116.5 20.5q-20 0 -41 -1t-40 -5l28 209
l270 10q16 4 23 17.5t7 29.5v9z" />
    <glyph glyph-name="six" unicode="6" horiz-adv-x="711" 
d="M577 852q-5 35 -18 50.5t-33 15.5q-4 0 -41 -7t-90 -27.5t-113.5 -59t-112.5 -101.5t-86.5 -155t-34.5 -219q0 -75 19 -141t57.5 -115t97.5 -77t139 -28q49 0 99.5 14t91 46t66 83.5t25.5 127.5q0 65 -20.5 116t-57.5 86.5t-88.5 54t-113.5 18.5q-56 0 -100.5 -19
t-76.5 -43q10 43 28 86t47 81q35 45 75 75t77.5 49t69 27.5t49.5 11.5q25 6 35 16.5t10 27.5v6zM522 256q0 -42 -16 -71t-41 -47t-54.5 -26.5t-56.5 -8.5q-38 0 -70.5 14.5t-57.5 39.5h2q-22 25 -35 60.5t-15 65.5q10 29 31.5 53.5t49.5 42.5t59 28t60 10q68 0 106 -43.5
t38 -117.5z" />
    <glyph glyph-name="seven" unicode="7" horiz-adv-x="576" 
d="M535 846q-3 18 -13 36t-33 18h-450q-20 0 -33.5 -8t-13.5 -31v-9l3 -9v1q4 -11 8.5 -21.5t10.5 -19.5t14 -14.5t20 -5.5h343l-247 -726l1 1q-2 -5 -2.5 -10.5t-0.5 -10.5q0 -8 1.5 -16t12.5 -14q10 -5 29.5 -12t31.5 -7q20 0 28.5 8t16.5 29v-1l269 796q3 6 3.5 9.5
t0.5 7.5v9z" />
    <glyph glyph-name="eight" unicode="8" horiz-adv-x="646" 
d="M544 678q0 47 -17.5 90t-49 75.5t-74.5 52t-94 19.5q-50 0 -93 -19.5t-74.5 -52t-49 -75.5t-17.5 -90q0 -48 20 -93.5t56 -76.5q-57 -39 -86 -102.5t-29 -137.5q0 -61 21 -112.5t57.5 -88.5t86.5 -58t108 -21t108 21t87 58t57.5 88.5t20.5 112.5q0 74 -27 137.5
t-84 102.5q35 31 54 76.5t19 93.5zM460 277v-3q0 -32 -11.5 -62.5t-32 -54t-49.5 -38t-64 -14.5q-32 0 -58.5 13t-46 35.5t-30.5 51.5t-11 62v1q0 35 11 66.5t30.5 55.5t47.5 38t63 14t63 -12.5t47.5 -34.5t30 -52t10.5 -66zM421 684q0 -25 -9 -46.5t-24 -37t-35.5 -24.5
t-43.5 -9t-43 7.5t-35 21.5t-24 33t-9 43q0 25 9 47.5t25 39.5t37.5 27t46.5 10q49 0 77 -32t28 -80z" />
    <glyph glyph-name="nine" unicode="9" horiz-adv-x="711" 
d="M636 552q0 76 -19 142t-58 115t-98 77.5t-139 28.5q-49 0 -99 -14t-90.5 -46t-66.5 -84.5t-26 -128.5q0 -65 20.5 -116t58 -86.5t89 -54t113.5 -18.5q55 0 99.5 17.5t77.5 42.5q-11 -44 -30.5 -85.5t-46.5 -79.5q-34 -45 -74 -75t-77.5 -48t-69 -27t-49.5 -12
q-25 -7 -35 -16.5t-10 -26.5v-8q5 -35 18 -49.5t33 -14.5q3 0 25.5 3.5t56.5 13.5t77 28t87 47.5t86 71.5t74.5 99.5t52.5 133t20 170.5zM306 484q-68 0 -106 43.5t-38 117.5q0 42 16 71t41 47.5t54.5 27t56.5 8.5q37 0 69.5 -14.5t56.5 -40.5q23 -24 35.5 -59t13.5 -67
q-11 -29 -32 -53.5t-48.5 -42.5t-58.5 -28t-60 -10z" />
    <glyph glyph-name="colon" unicode=":" horiz-adv-x="171" 
d="M151 378q0 29 -19 51t-45 22q-29 0 -47 -22t-18 -51q2 -31 20.5 -51.5t44.5 -20.5t45 20.5t19 51.5zM156 76q0 29 -19 51t-45 22q-29 0 -47 -22t-18 -51q2 -31 20.5 -51.5t44.5 -20.5t45 20.5t19 51.5z" />
    <glyph glyph-name="semicolon" unicode=";" horiz-adv-x="171" 
d="M135 120q0 2 0.5 4.5t0.5 4.5q0 17 -8 28.5t-20 11.5h-3l-30 -4q-16 -2 -23.5 -14t-9.5 -22l-32 -242v-9q0 -16 8 -29.5t22 -13.5h3l17 3q10 2 19 8t12 28zM151 378q0 29 -19 51t-45 22q-29 0 -47 -22t-18 -51q2 -31 20.5 -51.5t44.5 -20.5t45 20.5t19 51.5z" />
    <glyph glyph-name="less" unicode="&#x3c;" horiz-adv-x="507" 
d="M418 615q-11 19 -31 19q-8 0 -14 -3.5t-12 -6.5l-324 -233q-19 -15 -19 -37q0 -9 4.5 -20t14.5 -18l342 -249q6 -3 12 -5t14 -2q10 0 18.5 4t17.5 15v3q5 8 8.5 20.5t3.5 23.5q0 14 -4 22t-13 15v-1l-259 187l240 174l-3 -3q12 7 16.5 19t4.5 25q0 14 -4 27t-10 21z" />
    <glyph glyph-name="equal" unicode="=" horiz-adv-x="631" 
d="M577 217q0 20 -13 39.5t-35 19.5h-457q-20 0 -32.5 -7.5t-12.5 -28.5v-5q0 -19 12.5 -38.5t35.5 -19.5h457q20 0 32.5 7t12.5 30v3zM577 391q-2 20 -14 38.5t-34 18.5h-457q-20 0 -32.5 -7t-12.5 -30v-3q0 -10 3.5 -20.5t10.5 -19t15.5 -14t19.5 -5.5h458q19 0 31 7.5
t12 28.5v6z" />
    <glyph glyph-name="greater" unicode="&#x3e;" horiz-adv-x="507" 
d="M442 378l-348 250q-2 1 -1 2t0.5 2t-4.5 1.5t-14 0.5q-22 0 -33 -19l-2 -3q-5 -9 -9 -21t-4 -23q0 -26 18 -39l-2 2l258 -189l-238 -173v2q-17 -11 -17 -39q0 -13 3.5 -27.5t10.5 -23.5v-2q8 -12 16.5 -15.5t17.5 -3.5q11 0 15.5 2t10.5 5l322 234q21 16 21 38t-19 39h-2
z" />
    <glyph glyph-name="question" unicode="?" horiz-adv-x="426" 
d="M384 675q0 51 -17.5 90t-47.5 66t-69 40.5t-82 13.5q-47 0 -83.5 -13t-80.5 -38q-9 -9 -13.5 -16.5t-4.5 -21.5q0 -7 5.5 -18.5t13.5 -22.5t15.5 -19t12.5 -9q2 -1 6 -1h6q7 0 12.5 1.5t14.5 8.5q25 18 46 25t50 7q18 0 35.5 -6t31 -17t22 -27t8.5 -36q0 -23 -4.5 -40
t-12 -30.5t-17.5 -24.5t-21 -22q-17 -17 -34.5 -36.5t-31.5 -46.5t-23.5 -65t-9.5 -92l1 -72v-1q0 -12 6 -21.5t15.5 -16t21.5 -9.5t23 -3h6q24 0 32.5 14t8.5 34v81q0 31 6 54t16 40t22.5 30.5t25.5 25.5q18 15 34 31.5t28 38t19.5 50t7.5 69.5v5zM241 64v6q0 32 -20 54.5
t-49 22.5q-28 0 -47.5 -23.5t-19.5 -56.5q0 -34 20 -56.5t49 -22.5q27 0 47 22t20 54z" />
    <glyph glyph-name="at" unicode="@" horiz-adv-x="966" 
d="M900 441q0 88 -29 159.5t-83 122.5t-131 78.5t-173 27.5q-101 0 -183 -31t-140 -87t-90 -134t-32 -172q0 -90 27 -165.5t79 -129.5t127 -84.5t172 -30.5q27 0 66.5 5.5t80.5 15.5t78 24.5t60 32.5l-1 -1q19 12 19 36v4q0 7 -6 18t-13.5 21t-16 17.5t-12.5 8.5h-11
q-7 0 -12 -1.5t-13 -4.5h-2q-50 -27 -107 -42t-109 -15q-70 0 -122 20t-87 57t-52.5 89.5t-17.5 116.5q0 66 22.5 124t64 101.5t100.5 69t131 25.5q69 0 123.5 -19.5t92 -55t57.5 -85.5t20 -112q-1 -18 -3.5 -41t-9 -43t-17.5 -34t-29 -14q-11 0 -18.5 8.5t-12 20.5t-7 26
t-2.5 25v174q0 18 -17.5 32t-42 23.5t-52.5 14.5t-49 5q-63 0 -116 -27t-90.5 -68.5t-58.5 -91.5t-21 -95q0 -37 12.5 -67t35 -51t52.5 -32.5t65 -11.5h12q48 5 93 28t78 59q17 -34 49.5 -60.5t86.5 -26.5q52 0 87.5 21t57.5 55t31 76.5t9 84.5v6zM399 312q-15 0 -29.5 10
t-14.5 33q0 26 11.5 56.5t32 57t50 44.5t65.5 18q16 0 27 -1t17 -2v-26q0 -28 -13.5 -60.5t-36 -61t-51 -48t-58.5 -20.5z" />
    <glyph glyph-name="A" unicode="A" horiz-adv-x="824" 
d="M850 39q0 12 -3 19l-6 14l-401 825l2 -3q-5 14 -14.5 21t-29.5 7q-14 0 -26 -10.5t-20 -26.5l-363 -804q-11 -17 -11 -36q0 -11 7 -21.5t17.5 -18t22 -12t21.5 -4.5q23 0 32 6.5t16 23.5l162 359h309l172 -357q8 -17 17 -24.5t33 -7.5q7 0 17.5 4.5t20.5 12t17.5 16
t7.5 17.5zM403 709l106 -219h-202z" />
    <glyph glyph-name="B" unicode="B" horiz-adv-x="660" 
d="M564 721q-16 88 -88 140t-194 52q-40 0 -79.5 -2t-84.5 -10q-21 -5 -33 -17.5t-12 -39.5v-789q0 -29 13 -42t38 -13h165q12 0 39.5 2t61.5 10t71 24.5t67.5 45.5t50 73t19.5 107q0 10 -0.5 17t-0.5 14q-2 8 -2 14q-6 30 -19 55.5t-30 46t-37 36t-41 26.5q43 32 71.5 82.5
t28.5 115.5q0 32 -4 52zM477 285q1 -4 1 -11v-13q0 -35 -12.5 -59t-32 -39.5t-43 -24.5t-46 -13.5t-41 -5.5t-27.5 -1h-83v285h102q23 0 52 -5.5t55.5 -18.5t46.5 -36t26 -57zM445 696q2 -5 2 -12v-14q0 -43 -20.5 -72t-49 -46t-60 -24.5t-52.5 -7.5h-72v272q59 3 103 1.5
t74.5 -11.5t48.5 -30.5t25 -55.5h1z" />
    <glyph glyph-name="C" unicode="C" horiz-adv-x="838" 
d="M787 811q0 11 -8.5 25t-28.5 25h1l-10 4q-17 7 -39 16t-50.5 16.5t-64 12.5t-80.5 5q-103 0 -190.5 -30.5t-151.5 -89t-100 -142.5t-35 -190q0 -25 2.5 -50.5t7.5 -45.5q19 -88 68 -158.5t116.5 -119.5t149 -75t164.5 -26q47 0 82 4t62 10.5t49.5 15t45.5 18.5t31.5 22
t8.5 32q0 10 -4.5 22t-12.5 22t-19.5 16.5t-24.5 6.5q-9 0 -16.5 -2.5t-16.5 -4.5q-2 -2 -6.5 -4.5t-10.5 -4.5q-18 -9 -35.5 -16t-37 -11.5t-43.5 -6.5t-55 -2q-60 0 -120 19t-111 55t-88 88t-50 118q-9 30 -9 69q-1 73 24.5 135.5t72 108.5t111.5 72t142 26
q62 0 101.5 -11t67.5 -25l12 -6l-1 2q14 -7 22 -10.5t22 -3.5q8 0 17.5 9t18 21t14.5 23t6 16z" />
    <glyph glyph-name="D" unicode="D" horiz-adv-x="949" 
d="M879 562q-18 84 -64.5 149.5t-114 110.5t-152.5 68t-179 23q-61 0 -124 -4t-122 -12q-20 -5 -33.5 -17.5t-13.5 -39.5v-785q0 -29 13.5 -42t39.5 -13h220q28 0 79 4t110.5 19.5t121.5 46.5t112 84t82 132t32 192q0 25 -2 45t-5 39zM754 538q4 -16 5 -31.5t1 -31.5
q0 -81 -24.5 -138.5t-63.5 -97t-88.5 -63.5t-99.5 -37t-96.5 -17t-80.5 -4h-108v668q38 5 87.5 7t103.5 2q51 0 109 -12.5t110 -42.5t91.5 -79.5t53.5 -122.5z" />
    <glyph glyph-name="E" unicode="E" horiz-adv-x="630" 
d="M543 831q0 12 -3 24t-9.5 22t-16 16.5t-21.5 6.5h-370q-50 0 -50 -56v-789q0 -29 13 -42t37 -13h402q17 0 29.5 8.5t13.5 31.5l2 5q0 12 -3.5 25t-9.5 23.5t-15.5 17.5t-21.5 7h-328v294h306q23 0 34 9.5t11 35.5v3q0 24 -12.5 46.5t-37.5 22.5h-301v252h306q19 0 32 10
t13 35v5z" />
    <glyph glyph-name="F" unicode="F" horiz-adv-x="592" 
d="M540 831q0 12 -3.5 24t-9.5 22t-15.5 16.5t-21.5 6.5h-367q-50 0 -50 -54v-806q0 -20 8 -34t33 -14h6q10 0 22.5 3.5t23 10.5t17.5 17t7 22v367h305q21 0 33 9.5t12 35.5v5q0 11 -3.5 23.5t-9.5 22.5t-15.5 16.5t-21.5 6.5h-300v252h305q18 0 31.5 9.5t13.5 35.5v3z" />
    <glyph glyph-name="G" unicode="G" horiz-adv-x="880" 
d="M555 -330q-21 -3 -47 -3q-25 0 -51.5 2t-52 4t-45.5 4q-13 0 -24 -8.5t-18.5 -20t-11.5 -23t-4 -17.5v-6q6 -23 15.5 -29.5t22.5 -11.5q16 -5 45 -7t61 -3t62.5 -0.5t48.5 0.5q109 0 174 69t77 200v531q0 12 -6.5 22t-16.5 16.5t-22.5 10t-23.5 3.5h-5q-25 0 -34 -14
t-9 -35v-207q0 -8 -5 -11h2q-16 -8 -31.5 -13.5t-33.5 -8.5t-40 -4.5t-50 -1.5q-60 0 -120 19t-110.5 55.5t-87 89.5t-49.5 121q-8 29 -8 69q0 74 26 138t73 110.5t112 73t142 26.5q62 0 101.5 -11t67.5 -25l12 -6l-1 1q14 -8 21.5 -11.5t21.5 -3.5q8 0 18 9.5t18.5 22
t14.5 24t6 15.5q0 12 -8.5 26t-28.5 25l-9 3q-17 8 -38.5 17t-50 16.5t-64 12.5t-80.5 5q-104 0 -192 -31t-152 -90.5t-100.5 -144.5t-36.5 -193q0 -25 2 -51.5t7 -46.5q18 -89 66.5 -161t116 -122t148.5 -77t164 -27q53 0 90 5t66 13v-182q-4 -35 -16.5 -63t-30.5 -48
t-40.5 -30.5t-47.5 -10.5z" />
    <glyph glyph-name="H" unicode="H" horiz-adv-x="897" 
d="M793 856q0 12 -7.5 21.5t-19 16t-24.5 10t-24 3.5h-4q-26 0 -34 -14t-8 -34v-348h-474v345q0 12 -7.5 21.5t-19 16t-24.5 10t-24 3.5h-5q-26 0 -34 -14t-8 -34v-814q0 -12 7.5 -22t18.5 -17t24 -10.5t24 -3.5h3q26 0 35.5 14t9.5 34v354h474v-349q0 -12 7 -22t18 -17
t23.5 -10.5t23.5 -3.5h4q25 0 35 14t10 34v816z" />
    <glyph glyph-name="I" unicode="I" horiz-adv-x="456" 
d="M429 826q0 12 -3.5 25.5t-10 24t-16 17.5t-20.5 7h-334q-22 0 -33.5 -10t-11.5 -35v-5q0 -11 3 -23.5t9 -22.5t15 -16.5t21 -6.5h108v-663h-111q-20 0 -32.5 -10t-12.5 -35v-4q0 -24 12 -46.5t36 -22.5h336q19 0 30.5 8.5t12.5 31.5l2 6q-1 12 -4.5 24.5t-9 23t-14 17.5
t-20.5 7h-108v663h111q19 0 30.5 9t12.5 32z" />
    <glyph glyph-name="J" unicode="J" horiz-adv-x="352" 
d="M255 864q0 13 -7 22.5t-17 16t-22.5 10t-22.5 3.5h-3q-25 0 -33 -14t-8 -34v-745q0 -42 -10 -75.5t-27.5 -57t-40.5 -36.5t-49 -13q-8 0 -16.5 4.5t-15.5 7.5h2q-17 9 -32 9q-12 0 -22.5 -10.5t-18 -24t-12 -25.5t-4.5 -16q6 -20 15 -28.5t20 -12.5l-2 2
q11 -7 33.5 -15.5t58.5 -8.5q52 0 95 20.5t74 60t48 97t17 131.5v732z" />
    <glyph glyph-name="K" unicode="K" horiz-adv-x="798" 
d="M678 844q0 9 -7.5 20t-18 21t-22 17t-18.5 7q-18 0 -25 -5t-14 -12q-4 -2 -7 -5l-368 -341v310q0 12 -7.5 21.5t-18.5 16t-24 10t-25 3.5h-3q-27 0 -35.5 -14t-8.5 -34v-814q0 -12 7.5 -22t18.5 -17t24 -10.5t24 -3.5h4q25 0 34.5 14t9.5 34v345q32 -27 81 -69t104.5 -91
t113 -102t107.5 -101q17 -17 38.5 -22.5t29.5 -5.5q29 15 34 35t-1 38.5t-16.5 32t-10.5 15.5q-2 0 -4.5 1.5t-10.5 9.5q-56 52 -106 97.5t-96 87t-90 78.5t-88 73l371 340q11 9 17.5 18.5t6.5 23.5z" />
    <glyph glyph-name="L" unicode="L" horiz-adv-x="577" 
d="M570 45q0 12 -3.5 25t-9.5 23.5t-15.5 17.5t-21.5 7h-328v737q0 13 -7.5 22.5t-18.5 16t-24 10t-24 3.5h-3q-26 0 -34 -14t-8 -34v-804q0 -29 13 -42t37 -13h402q17 0 29.5 8.5t13.5 31.5z" />
    <glyph glyph-name="M" unicode="M" horiz-adv-x="1272" 
d="M1165 16l-3 14.5t-6.5 32.5t-6.5 33t-3 16l-141 774q-6 23 -18.5 36.5t-32.5 13.5q-18 0 -29 -7.5t-18 -21.5l-318 -636l-301 635q-8 14 -18.5 22t-28.5 8q-23 0 -36 -11t-15 -28l-169 -837v-8q0 -11 6.5 -20.5t17 -17t22.5 -13.5t23 -9h12q18 0 29.5 13.5t16.5 36.5
l126 621l272 -570l-2 1q2 -6 8 -12t13 -10.5t14 -7.5t13 -3q13 0 22.5 3.5t15.5 8.5t9.5 10.5t5.5 9.5l280 564l104 -573q5 -50 34 -71.5t81 -21.5z" />
    <glyph glyph-name="N" unicode="N" horiz-adv-x="994" 
d="M889 858q0 12 -7.5 21.5t-19 16t-24.5 10t-24 3.5h-4q-26 0 -35 -14t-9 -34v-648l-594 687q-10 8 -22 16t-24 8q-17 0 -33.5 -13.5t-16.5 -33.5v-832q0 -12 7.5 -22t18.5 -17t24.5 -10.5t24.5 -3.5h3q26 0 35.5 14t9.5 34v654l597 -690q9 -12 22.5 -17t24.5 -5
q23 0 34.5 14t11.5 34v828z" />
    <glyph glyph-name="O" unicode="O" horiz-adv-x="1051" 
d="M979 538q-14 87 -54 156.5t-103 118.5t-147 75.5t-186 26.5q-104 0 -186 -33t-140 -90.5t-90 -136.5t-36 -171q-1 -32 0.5 -62t6.5 -62q14 -89 54.5 -158t101.5 -116.5t138 -72.5t165 -25q107 0 194 29.5t150 84.5t99 133t40 176q2 32 0 63.5t-7 63.5zM850 526
q6 -28 7.5 -54t0.5 -49q-3 -73 -29.5 -132t-73 -100t-111.5 -63.5t-146 -22.5q-66 0 -122 18.5t-98.5 53t-69.5 84t-36 111.5q-9 58 -8 103q3 69 27 128t66.5 102t103 67t137.5 24q79 0 140.5 -20t105.5 -55.5t70.5 -85t35.5 -109.5z" />
    <glyph glyph-name="P" unicode="P" horiz-adv-x="634" 
d="M588 660q-1 73 -30 121.5t-74.5 78t-102.5 41.5t-113 12q-11 0 -29 -0.5t-39 -2.5t-43.5 -5t-41.5 -8q-18 -6 -29.5 -18t-13.5 -38v-796q0 -12 7 -22t18 -17t23.5 -10.5t23.5 -3.5h4q26 0 34 14t8 34v332q35 2 78 6.5t87 15.5t86 30.5t74.5 51t52.5 76.5t20 108zM466 666
q0 -37 -14 -64.5t-37 -46.5t-52.5 -31.5t-59.5 -19.5t-59.5 -10t-51.5 -4v306q16 2 36.5 4t38.5 2q34 0 69.5 -6t64 -21.5t47 -42t18.5 -66.5z" />
    <glyph glyph-name="Q" unicode="Q" horiz-adv-x="1066" 
d="M990 546q-14 88 -54.5 158.5t-103.5 120t-148 76t-187 26.5q-105 0 -188 -33.5t-141 -92t-90.5 -138t-36.5 -171.5q-1 -33 1 -64.5t6 -61.5q15 -90 56 -160.5t102.5 -119.5t139.5 -74.5t167 -25.5q32 0 60.5 3t54.5 8q27 -32 46.5 -56t38 -46.5t39 -46.5t48.5 -55
q13 -8 25 -8.5t21.5 1.5t17.5 4.5t13 2.5q8 9 12.5 20t7 22t2.5 21t-1 18q-30 36 -48.5 58t-30 35.5t-17.5 21t-11 13.5t-11 13.5t-18 21.5q107 51 168.5 148.5t66.5 231.5q1 32 0 64t-7 65zM863 534q3 -29 4.5 -54.5t0.5 -50.5q-3 -74 -29 -134t-72.5 -102t-112 -64.5
t-147.5 -22.5q-66 0 -122.5 19t-99 54t-70.5 85t-37 112q-9 61 -8 105q3 70 27 130t67 103.5t103.5 68t137.5 24.5q79 0 141 -20t106.5 -56t72 -86t38.5 -111z" />
    <glyph glyph-name="R" unicode="R" horiz-adv-x="733" 
d="M339 390q45 11 89.5 31t80.5 51.5t58 77.5t22 110q0 73 -28.5 121.5t-74 78t-103 41.5t-115.5 12q-8 0 -24.5 -0.5t-36.5 -2.5t-42.5 -5t-43.5 -7q-21 -5 -33.5 -18t-12.5 -40v-795q0 -12 7.5 -22t18.5 -17t23.5 -10.5t23.5 -3.5h5q25 0 34 14t9 34v327q34 -33 77 -74
t88 -86t90.5 -92t85.5 -90q8 -8 18.5 -14t21 -9.5t19.5 -5.5t14 -2q30 18 34.5 37.5t-2.5 36t-17.5 28.5t-11.5 15zM465 660q0 -37 -13.5 -64t-36 -46t-50.5 -30.5t-58 -18t-59 -9t-52 -2.5v306q15 2 34 4t38 2q35 0 70 -6.5t63.5 -23t46 -43.5t17.5 -69z" />
    <glyph glyph-name="S" unicode="S" horiz-adv-x="606" 
d="M513 822q-6 20 -14 28.5t-22 16.5q-20 9 -44 18t-49.5 15.5t-51 10.5t-47.5 4q-55 0 -103 -12t-84 -37.5t-56.5 -65.5t-20.5 -95q0 -16 1 -32.5t5 -30.5q7 -36 24.5 -64.5t42.5 -52.5t56.5 -44t66.5 -39l84 -43q47 -25 80.5 -54.5t45.5 -76.5q5 -17 5 -37
q0 -30 -12.5 -54t-32.5 -40.5t-47 -25.5t-55 -9q-45 0 -80 11t-76 40q-2 1 -2 0l-6 7q-8 7 -16.5 12t-19.5 5q-7 0 -16.5 -7t-17.5 -17.5t-14 -22t-6 -19.5v-6q2 -14 6.5 -22.5t20.5 -19.5q26 -18 51 -32t52 -23.5t58 -14.5t70 -5q58 0 107 15.5t84.5 45t55.5 72.5t20 98
q0 18 -2.5 37t-9.5 42q-14 58 -61 110t-129 94l-84 42q-22 11 -42.5 23t-37 26t-28 30.5t-15.5 36.5h1q-4 20 -4 33q0 28 12 48t32.5 33t47 19t55.5 6q35 0 66 -9t57 -23q0 -1 3 -1q14 -9 23.5 -12t19.5 -3q12 0 22 8t17 19t10.5 22.5t3.5 18.5v3z" />
    <glyph glyph-name="T" unicode="T" horiz-adv-x="688" 
d="M697 831q0 12 -3.5 24t-10 22t-16 16.5t-21.5 6.5h-637q-23 0 -35 -9.5t-12 -35.5v-5q0 -11 3.5 -23t10 -22t16 -16t21.5 -6h255v-738q0 -12 7.5 -22t18.5 -17t24 -10.5t24 -3.5h4q25 0 35 14t10 34v743h260q19 0 32.5 9.5t13.5 35.5v3z" />
    <glyph glyph-name="U" unicode="U" horiz-adv-x="1009" 
d="M813 856q0 12 -7.5 22t-19 17t-24.5 10.5t-24 3.5h-5q-27 0 -35 -14.5t-8 -33.5v-493q0 -63 -23.5 -111t-60.5 -81t-81 -51t-86 -22q-59 -5 -100 9t-69 40t-43.5 60t-22.5 70v-2q-5 24 -8 48t-3 47v481q0 12 -7.5 22t-19 17t-24.5 10.5t-24 3.5h-4q-27 0 -35.5 -14.5
t-8.5 -33.5v-504q0 -29 3 -55.5t6 -49.5q11 -55 36 -103t67.5 -84t104 -56.5t146.5 -20.5q88 0 150 33.5t107 87.5q-1 -8 3 -3t12 16q13 -61 43 -94.5t90 -33.5q47 0 78 16t52 33l-1 -1q11 9 18 20.5t7 24.5v3q0 3 -5.5 13.5t-13.5 22t-17.5 20t-17.5 8.5q-12 0 -19 -3.5
t-18 -14.5q-9 -8 -26.5 -16.5t-26.5 -8.5q-16 0 -21.5 10.5t-9.5 29.5q-2 6 -2.5 12t-1.5 12v681z" />
    <glyph glyph-name="V" unicode="V" horiz-adv-x="751" 
d="M765 837q0 1 0.5 4t0.5 5q0 19 -18.5 37.5t-36.5 25.5q-5 2 -9 4t-12 2q-16 0 -25.5 -9.5t-15.5 -25.5l2 3l-287 -685l-295 682l1 -1q-7 16 -18 22t-28 6q-9 0 -20.5 -2.5t-20.5 -4.5q-28 -13 -28 -41q0 -14 9 -27l360 -820l-2 1q8 -19 20 -26t27 -7q20 0 29 9t16 26
l-2 -2z" />
    <glyph glyph-name="W" unicode="W" horiz-adv-x="1206" 
d="M1198 843v9q0 21 -18 36t-36 21q-7 3 -12 3.5t-9 0.5q-23 0 -30 -10t-10 -26l-194 -637l-262 637q-8 20 -25 29.5t-28 9.5t-26 -9.5t-22 -29.5l-205 -633l-228 635v-2q-6 18 -18.5 25t-29.5 7q-9 0 -19 -1.5t-16 -4.5h2l-6 -2q-15 -5 -22.5 -16.5t-7.5 -23.5q0 -11 1 -13
t3 -7l293 -820v1q7 -18 21 -30t28 -12q20 0 32 6t21 33l210 644l265 -648q11 -22 25 -28.5t32 -6.5q25 0 34 13.5t14 30.5z" />
    <glyph glyph-name="X" unicode="X" horiz-adv-x="721" 
d="M681 813q5 8 7.5 16t2.5 15q0 14 -7 27.5t-24 22.5l-12 7q-8 5 -15 8t-12 3q-13 0 -20 -6t-18 -15l-240 -335l-246 339l2 -1q-7 10 -17.5 14.5t-18.5 4.5q-14 0 -26 -6t-22 -13h1l-4 -2q-20 -15 -20 -36q0 -12 3 -16.5t6 -11.5l270 -369l-273 -375q-5 -6 -7 -13t-2 -14
q0 -30 29 -51l12 -12q7 -5 11.5 -6.5t15.5 -1.5q22 0 37 21l252 348l257 -351l-2 2q7 -11 16 -14.5t20 -3.5q13 0 25.5 5.5t22.5 13.5l3 3q11 8 14.5 17t3.5 18q0 8 -2.5 14t-7.5 14l-276 380z" />
    <glyph glyph-name="Y" unicode="Y" horiz-adv-x="910" 
d="M798 871q0 12 -6.5 22t-17 17t-23 10.5t-24.5 3.5h-3q-27 0 -35 -14t-8 -36v-492q0 -25 -4 -55.5t-15 -61t-28.5 -59.5t-45.5 -51t-66 -35.5t-89 -13.5q-58 0 -98.5 14.5t-68 39.5t-43 57.5t-22.5 68.5v-1q-9 49 -9 96v490q0 12 -7.5 22t-19 17t-24.5 10.5t-24 3.5h-5
q-26 0 -34.5 -14t-8.5 -36v-511q0 -29 2.5 -56t7.5 -51q11 -55 35.5 -104t66 -86t103 -58.5t145.5 -21.5q85 0 147 35.5t105 89.5v-259q0 -42 -11 -76t-30 -58t-43.5 -37t-52.5 -13q-13 0 -30.5 2t-37.5 5.5t-40 7.5t-37 7q-17 4 -34 6.5l-17 2.5q-13 0 -24 -8.5t-18.5 -20
t-12 -23t-4.5 -17.5v-6q6 -23 15.5 -30t22.5 -12q16 -5 45 -10.5t61 -10.5t62.5 -8.5t48.5 -3.5q58 0 105 20.5t80 60t51 97.5t18 133v1011z" />
    <glyph glyph-name="Z" unicode="Z" 
d="M652 865q-5 15 -16.5 25t-29.5 10h-557q-23 0 -34.5 -10t-11.5 -35v-5q0 -11 3.5 -23.5t10 -22.5t16 -16.5t21.5 -6.5h412l-462 -703q-5 -8 -8.5 -16.5t-3.5 -16.5q0 -20 13 -32.5t29 -12.5h588q18 0 31.5 8.5t13.5 31.5l2 5q0 12 -3.5 25t-10 23.5t-16 17.5t-21.5 7
h-440l461 696l-2 -1q7 7 11 19t4 23v10z" />
    <glyph glyph-name="bracketleft" unicode="[" horiz-adv-x="354" 
d="M336 891q0 25 -12 46t-32 21h-4l-174 -18q-20 -2 -33.5 -16t-13.5 -42q0 -18 5 -33v-1028q-5 -17 -5 -34q0 -29 12.5 -41t32.5 -12h6l179 18q18 2 28.5 12t10.5 35v4q0 25 -12 46.5t-32 21.5h-4l-108 -9v964l117 14q17 0 28 10t11 35v6z" />
    <glyph glyph-name="backslash" unicode="\" horiz-adv-x="426" 
d="M415 -41l-331 956q-12 28 -39 28q-11 0 -21 -3t-18 -10l-5 -3h2q-14 -8 -19 -19t-5 -22q0 -5 0.5 -10.5t3.5 -10.5h-1l333 -957q10 -28 40 -28q20 0 39 13l5 3h-2q11 8 17.5 17.5t6.5 23.5q0 5 -2 11t-4 11z" />
    <glyph glyph-name="bracketright" unicode="]" horiz-adv-x="355" 
d="M262 904q0 29 -12.5 41.5t-32.5 12.5h-6l-178 -19q-15 -2 -27 -9.5t-12 -32.5v-9q0 -25 11.5 -46.5t31.5 -21.5h5l108 11v-966l-117 -12q-18 0 -28.5 -10.5t-10.5 -36.5v-6q0 -23 11.5 -44.5t31.5 -21.5h5l174 17q19 2 32.5 16.5t15.5 43.5q-2 9 -3 16t-5 15l2 1031
q2 5 3 13.5t1 17.5z" />
    <glyph glyph-name="asciicircum" unicode="^" horiz-adv-x="594" 
d="M555 474l-231 306q-6 9 -18 15t-23 6q-14 0 -24.5 -6t-15.5 -15l-231 -306q-11 -15 -11 -29q0 -9 4.5 -17.5t15.5 -15.5l2 -1q11 -7 25 -12.5t27 -5.5q10 0 20 4.5t16 13.5l-2 -2l179 234l175 -234l-1 1q7 -9 17 -13t19 -4q12 0 23.5 6t22.5 13l2 2q19 15 19 33
q0 9 -3.5 14.5t-5.5 12.5h-1z" />
    <glyph glyph-name="underscore" unicode="_" horiz-adv-x="594" 
d="M597 -14q0 11 -3.5 23.5t-10 23t-15.5 17t-20 6.5h-496q-20 0 -32.5 -8t-12.5 -31l-1 -3q0 -11 3.5 -23.5t10 -22.5t15.5 -16.5t20 -6.5h497q16 0 29 6.5t15 31.5z" />
    <glyph glyph-name="grave" unicode="`" horiz-adv-x="363" 
d="M243 574l-159 137q-9 6 -24 6q-9 0 -17.5 -4t-13.5 -12l-10 -11l2 1q-12 -12 -12 -27q0 -16 15 -31l165 -123q11 -8 24 -8q10 0 15.5 4t12.5 11l6 9q5 5 7 9t2 12q0 9 -2.5 14.5t-9.5 12.5h-1z" />
    <glyph glyph-name="a" unicode="a" horiz-adv-x="694" 
d="M504 534q0 13 -7 22t-17.5 15t-23 9t-23.5 3h-4q-25 0 -35 -15q-11 4 -24.5 6.5t-27.5 2.5q-63 0 -119.5 -34.5t-99.5 -89.5t-69 -124t-27 -139q0 -17 1 -36t3 -31q14 -65 54.5 -100t112.5 -35q48 0 97 31.5t90 83.5v-16q0 -48 23 -72t68 -27q20 -5 41 -5q47 0 78 16
t52 33l-1 -1q11 9 18 20.5t7 24.5v3q0 3 -5.5 13.5t-13.5 22t-17.5 20t-17.5 8.5q-12 0 -19 -3.5t-18 -14.5q-9 -8 -26.5 -16.5t-26.5 -8.5q-12 0 -17 5v2l-1 -1q-3 2 -5 5v423zM151 147q-2 11 -2.5 23.5t-0.5 22.5q1 47 17.5 96t43.5 88.5t61.5 65t71.5 25.5q27 0 39 -11.5
t14 -36t-5.5 -61.5t-19.5 -88q-9 -24 -26 -54t-39.5 -56.5t-49.5 -45t-56 -18.5q-39 0 -48 50z" />
    <glyph glyph-name="b" unicode="b" horiz-adv-x="577" 
d="M520 459q-11 66 -52.5 102.5t-110.5 36.5q-49 0 -95.5 -30.5t-87.5 -84.5v409q0 12 -6.5 22t-16.5 17t-22.5 10.5t-23.5 3.5h-5q-25 0 -32.5 -14.5t-7.5 -33.5v-797q0 -19 12.5 -39t33.5 -36t49.5 -26.5t60.5 -10.5q62 0 117.5 35.5t98 92.5t67.5 128.5t26 143.5v17
q0 31 -5 54zM403 436q3 -18 3 -37v-14q0 -49 -16.5 -99t-43 -90.5t-60.5 -66.5t-70 -26q-15 0 -28.5 3.5t-13.5 10.5v163q0 45 18 82.5t45.5 64t59.5 41.5t61 15q36 0 45 -50v3z" />
    <glyph glyph-name="c" unicode="c" horiz-adv-x="445" 
d="M408 487q-4 20 -20 37.5t-39 30.5v-2q-14 11 -35.5 17.5t-45.5 6.5q-56 0 -100.5 -24.5t-76.5 -68.5t-49 -105t-17 -133q0 -50 11.5 -96.5t37 -82.5t66 -57.5t97.5 -21.5q24 0 48 5t45.5 13t39.5 19t30 23q11 7 14.5 16.5t3.5 17.5v6q0 8 -6.5 18.5t-15.5 20.5t-18 16.5
t-15 6.5h-3q-14 0 -30 -12q-4 -4 -8 -6q-16 -13 -35 -22.5t-47 -9.5q-27 0 -45.5 13.5t-30 34.5t-17 46.5t-5.5 49.5q0 38 7.5 77t22.5 70.5t39 51.5t57 20q11 0 18 -3.5t12 -8.5q11 -11 22.5 -21t25.5 -10q9 0 19 5.5t19 13.5t15.5 18.5t8.5 20.5v9z" />
    <glyph glyph-name="d" unicode="d" horiz-adv-x="699" 
d="M504 894q0 13 -7 22.5t-17.5 16t-23 9.5t-24.5 3h-3q-26 0 -35 -14.5t-9 -33.5v-306q-10 3 -21 5t-22 2q-63 0 -119.5 -35.5t-99.5 -92.5t-69 -128.5t-27 -143.5q0 -18 1 -38t3 -33q14 -68 54.5 -103.5t112.5 -35.5q48 0 96 32t89 86q1 -2 1 -3t1 -3v-10q0 -54 26.5 -78
t77.5 -24q6 -1 12.5 -1.5t13.5 -0.5q47 0 78 16t52 33l-1 -1q11 9 18 20.5t7 24.5v3q0 3 -5.5 13.5t-13.5 22t-17.5 20t-17.5 8.5q-12 0 -19 -3.5t-18 -14.5q-9 -8 -26.5 -16.5t-26.5 -8.5q-11 0 -16 4v3q-1 -1 -3 -1l-2 2v783zM151 153q-2 11 -2.5 24t-0.5 24
q1 48 17.5 98.5t43.5 91.5t61.5 67t71.5 26q18 0 28 -9t14 -18q0 -30 -0.5 -68.5t-13.5 -88.5q-9 -25 -26 -59t-39.5 -65t-49.5 -52.5t-56 -21.5q-39 0 -48 51z" />
    <glyph glyph-name="e" unicode="e" horiz-adv-x="450" 
d="M408 435q0 68 -41.5 105t-105.5 37q-52 0 -95 -29.5t-74.5 -77t-49 -108t-17.5 -122.5q0 -22 2 -44.5t6 -38.5q8 -46 27 -78t46 -52.5t60.5 -29.5t70.5 -9q44 0 79.5 11t73.5 40q9 9 15 19.5t6 20.5v3q-1 8 -7.5 18.5t-15.5 20.5t-17.5 16.5t-13.5 6.5h-5q-8 0 -15 -3
t-18 -12l3 1q-17 -12 -35 -21t-47 -9q-16 0 -31 3.5t-28.5 12t-23.5 23.5t-15 39q-1 5 -1 13v16q36 4 82 21t87.5 45.5t69.5 69t28 92.5zM150 321q7 26 17.5 51.5t24.5 45.5t31 32.5t36 12.5q18 0 24.5 -8.5t10.5 -24.5q-1 -15 -11.5 -32t-29 -32t-44.5 -27t-59 -18z" />
    <glyph glyph-name="f" unicode="f" horiz-adv-x="352" 
d="M363 858q0 14 -6.5 22.5t-14.5 16.5h1q-8 8 -20.5 15t-26.5 12.5t-28 8.5t-25 3q-52 0 -84 -25.5t-50 -68.5t-24.5 -100.5t-6.5 -120.5v-12l-2 -15h-48q-18 0 -30 -9t-12 -35v-4q0 -11 3.5 -23t9.5 -22t14.5 -16.5t19.5 -6.5h45v-875q0 -14 6 -23.5t15.5 -15.5t21.5 -9
t23 -3h3q23 0 31.5 11t8.5 32v883h77q19 0 30.5 8t11.5 34v5q0 11 -3.5 23.5t-10 22.5t-15 16.5t-18.5 6.5h-72q1 50 4 91.5t9 71t15.5 46t24.5 16.5q14 0 22 -3.5t15 -8.5l8 -6q10 -8 21 -8h3q6 0 14.5 6.5t17 16.5t15 20.5t7.5 18.5v3z" />
    <glyph glyph-name="g" unicode="g" horiz-adv-x="565" 
d="M490 552q0 13 -6.5 22.5t-16.5 16t-22 9.5t-22 3h-5q-25 0 -34 -17q-11 5 -24 8t-27 3q-62 0 -117 -35.5t-97 -93t-67 -129t-25 -143.5q0 -18 0.5 -37t2.5 -33q14 -67 53.5 -102.5t108.5 -35.5q48 0 95.5 32t88.5 86v-269q0 -25 -5.5 -54.5t-19.5 -55t-38.5 -42.5
t-62.5 -17q-23 0 -41 6.5t-32 15.5q-7 6 -15 6q-6 4 -11 5t-7 1h-8q-6 -1 -14 -8.5t-16 -18t-13.5 -21.5t-5.5 -18v-3q0 -16 8 -25t19 -18q32 -23 68.5 -30.5t78.5 -7.5q58 0 101.5 23.5t71.5 62.5t42 89t14 103v722zM375 447q1 -3 1 -9v-104q1 -50 -17 -92.5t-45.5 -73.5
t-60 -48.5t-60.5 -17.5q-35 0 -46 49q-2 13 -2 25v23q0 49 16 99.5t42 91.5t60 67t70 26q17 0 27 -8.5t13 -17.5q0 -2 1 -5t1 -5z" />
    <glyph glyph-name="h" unicode="h" horiz-adv-x="728" 
d="M516 388q0 43 -7 81t-26 66.5t-51 45.5t-81 17q-51 0 -94 -29.5t-79 -81.5v405q0 12 -6.5 22t-17 17t-23 10.5t-23.5 3.5h-5q-26 0 -34 -14.5t-8 -33.5v-858q0 -12 7 -21.5t17 -16t22 -10t23 -3.5h6q25 0 33.5 14t8.5 34v202q1 74 17.5 121.5t41 75t55 38t60.5 10.5
q16 0 25.5 -9.5t14.5 -24t6 -31.5t1 -33v-295q0 -54 26 -78t77 -24q8 0 12 1q25 -2 48.5 1t44.5 9.5t37.5 15.5t27.5 19q11 9 18 20.5t7 24.5v3q0 3 -5.5 13.5t-13.5 22t-17.5 20t-17.5 8.5q-12 0 -19 -3.5t-18 -14.5q-9 -8 -26.5 -16.5t-26.5 -8.5q-16 0 -22.5 10.5
t-10.5 29.5q-2 6 -2.5 12.5t-1.5 13.5v219z" />
    <glyph glyph-name="i" unicode="i" horiz-adv-x="355" 
d="M152 546q0 13 -5.5 23t-14.5 16t-20 9t-21 3h-3q-23 0 -37.5 -14t-14.5 -34v-459q0 -27 14.5 -46.5t33 -32.5t37 -19.5t27.5 -6.5h6q8 -2 11.5 -1t12.5 1q47 0 78 16t52 33l-1 -1q11 9 18 20.5t7 24.5v3q0 3 -5.5 13.5t-13.5 22t-17.5 20t-17.5 8.5q-12 0 -19 -3.5
t-18 -14.5q-9 -8 -26.5 -16.5t-26.5 -8.5q-16 0 -22.5 10.5t-10.5 29.5q-1 4 -1.5 8t-1.5 9v387zM166 826q0 31 -18.5 53t-44.5 22q-27 0 -44 -22t-17 -53q0 -30 17 -52.5t44 -22.5q26 0 44.5 22.5t18.5 52.5z" />
    <glyph glyph-name="j" unicode="j" horiz-adv-x="262" 
d="M180 555q0 27 -21.5 39.5t-43.5 12.5h-3q-23 0 -31 -14.5t-8 -34.5l2 -567q-1 -21 -2.5 -56t-6.5 -68.5t-15 -58t-26 -24.5t-24.5 2.5t-14.5 6.5q-1 0 -2.5 1.5l-1.5 1.5q-3 2 -4 4t-2.5 3t-5 1.5t-11.5 0.5h-3q-5 0 -13.5 -7.5t-17 -18.5t-15 -23t-6.5 -20v-2
q0 -14 5.5 -22t12.5 -15q9 -10 22.5 -16.5t27.5 -10t26.5 -5t19.5 -1.5q52 0 83.5 28t49 74t23.5 104.5t6 120.5v564zM193 840q0 32 -19.5 54t-46.5 22q-28 0 -47 -22t-19 -54t19 -53.5t47 -21.5q27 0 46.5 21.5t19.5 53.5z" />
    <glyph glyph-name="k" unicode="k" horiz-adv-x="639" 
d="M346 237l-78 109l159 150q6 9 10 15.5t4 19.5t-11 25h2l-3 5q-11 11 -27 22t-30 11q-9 0 -15.5 -3.5t-13.5 -8.5l2 1l-170 -162v473q0 13 -6.5 22.5t-16.5 16t-22.5 9.5t-23.5 3h-4q-25 0 -33.5 -14.5t-8.5 -33.5v-860q0 -13 6.5 -22t17 -15t22.5 -9t23 -3h6
q25 0 32.5 14t7.5 34v223l14 14q44 -65 76.5 -111t57.5 -77.5t44 -50.5t34.5 -29.5t29 -13.5t28.5 -3q47 0 78 16t52 33l-1 -1q11 9 18 20.5t7 24.5v3q0 3 -5.5 13.5t-13.5 22t-17.5 20t-17.5 8.5q-12 0 -19 -3.5t-18 -14.5q-9 -8 -26.5 -16.5t-26.5 -8.5q-7 0 -17 2z" />
    <glyph glyph-name="l" unicode="l" horiz-adv-x="377" 
d="M60 100q13 -63 45.5 -89.5t92.5 -26.5q47 0 78 16t52 33l-1 -1q11 9 18 20.5t7 24.5v3q0 3 -5.5 13.5t-13.5 22t-17.5 20t-17.5 8.5q-12 0 -19 -3.5t-18 -14.5q-9 -8 -26.5 -16.5t-26.5 -8.5q-29 0 -37 40q-1 4 -1.5 8t-1.5 9l-1 736q0 13 -6 22.5t-15 16t-20 9.5t-21 3
h-12q-21 0 -31 -14.5t-10 -33.5v-725z" />
    <glyph glyph-name="m" unicode="m" horiz-adv-x="1055" 
d="M843 375q0 41 -8 77.5t-27.5 64.5t-53 44t-84.5 16t-93 -27.5t-78 -75.5q-16 45 -52.5 74t-104.5 29q-47 0 -85.5 -23.5t-72.5 -64.5v37q0 12 -7 21.5t-17.5 16t-23.5 10t-25 3.5h-5q-26 0 -34.5 -13.5t-8.5 -32.5v-494q0 -12 7 -21t17.5 -15t23.5 -9.5t24 -3.5h6
q26 0 34.5 13t8.5 33v231q1 32 16.5 67t39 64.5t51.5 49t52 19.5q17 0 27 -9t15 -22.5t6.5 -30t1.5 -31.5v-335q0 -12 7 -21t17.5 -15t23.5 -9.5t24 -3.5h4q27 0 35.5 13t8.5 33v231q0 32 15.5 67t39 64.5t51.5 49t53 19.5q17 0 26.5 -9t14.5 -22.5t6.5 -30t1.5 -31.5v-285
q0 -51 27.5 -75t80.5 -24h7t9 1q12 -3 27 -3q47 0 78 16t52 33l-1 -1q11 9 18 20.5t7 24.5v3q0 3 -5.5 13.5t-13.5 22t-17.5 20t-17.5 8.5q-12 0 -19 -3.5t-18 -14.5q-9 -8 -26.5 -16t-26.5 -9q-19 -1 -27 9t-10 24t-1.5 30t-0.5 27v182z" />
    <glyph glyph-name="n" unicode="n" horiz-adv-x="724" 
d="M516 375q0 41 -7 77.5t-26 64.5t-51 44t-81 16q-51 0 -94 -28.5t-79 -79.5v57q0 12 -6.5 21.5t-17 16t-23 10t-23.5 3.5h-5q-26 0 -34 -13.5t-8 -32.5v-494q0 -12 7 -21t17 -15t22 -9.5t23 -3.5h6q25 0 33.5 13t8.5 33v195q0 73 16.5 119t42 72t56 35.5t59.5 9.5
q16 0 25.5 -9t14.5 -22.5t6 -30t1 -31.5l1 -240q0 -45 14.5 -73t36 -44t46.5 -22t47 -6q47 0 78 16t52 33l-1 -1q11 9 18 20.5t7 24.5v3q0 3 -5.5 13.5t-13.5 22t-17.5 20t-17.5 8.5q-12 0 -19 -3.5t-18 -14.5q-9 -8 -26.5 -16.5t-26.5 -8.5q-16 0 -22.5 10.5t-10.5 29.5
q-2 8 -3 17l-2 18v196z" />
    <glyph glyph-name="o" unicode="o" horiz-adv-x="555" 
d="M501 298q-2 55 -17.5 105.5t-45.5 89t-74.5 61.5t-105.5 23q-54 0 -97.5 -27t-74 -71.5t-46 -101t-12.5 -115.5q2 -53 17 -102.5t44 -87.5t73 -61t104 -23q50 0 94 24t76.5 65.5t50 98t14.5 122.5zM386 298q2 -39 -8 -75t-27 -64.5t-40 -45.5t-48 -17q-33 0 -55 15
t-35.5 39t-20 54t-7.5 60q-2 33 6.5 68.5t24 65.5t37.5 49t49 19q33 0 56 -15t38 -39t22 -54t8 -60z" />
    <glyph glyph-name="p" unicode="p" horiz-adv-x="576" 
d="M519 457q-11 67 -52.5 103.5t-109.5 36.5q-49 0 -96.5 -34t-86.5 -88v71q0 13 -6.5 23t-16.5 16t-22.5 9t-23.5 3h-5q-25 0 -32.5 -14t-7.5 -34v-950q0 -13 6.5 -22.5t16.5 -16t22.5 -9.5t23.5 -3h4q26 0 32.5 12.5t8.5 32.5v399q9 -2 20 -3t22 -1q62 0 117.5 35.5
t97.5 92.5t67 128t25 143v18q0 14 -1 28.5t-3 23.5zM405 399v-15q-1 -48 -17 -98.5t-42.5 -91t-60 -66.5t-69.5 -26q-18 0 -28.5 8t-12.5 17q-1 2 -1 7v13v103q0 56 17.5 99.5t44 73t58.5 45t61 15.5q17 0 29.5 -13t17.5 -38q1 -8 2 -17.5t1 -15.5z" />
    <glyph glyph-name="q" unicode="q" horiz-adv-x="592" 
d="M504 552q0 13 -7 22.5t-17.5 16t-23 9.5t-23.5 3h-3q-14 0 -22 -4.5t-14 -12.5q-11 5 -24.5 8t-27.5 3q-63 0 -119.5 -35.5t-99.5 -93t-69 -129t-27 -143.5q0 -18 1 -37t3 -33q14 -67 54.5 -102.5t112.5 -35.5q50 0 98.5 32t90.5 86l2 -530q0 -10 12.5 -15t30 -6.5
t34.5 -1.5h28l10 14v985zM385 447q2 -3 2 -9v-104q0 -56 -18.5 -99t-46.5 -72.5t-61.5 -45t-61.5 -15.5q-35 0 -48 49q-2 13 -2.5 25.5t-0.5 22.5q1 49 17.5 99.5t43.5 91.5t61.5 67t71.5 26q18 0 28.5 -8.5t13.5 -17.5v-1q0 -2 0.5 -4.5t0.5 -4.5z" />
    <glyph glyph-name="r" unicode="r" horiz-adv-x="388" 
d="M367 537q-3 18 -11 30.5t-34 12.5q-45 0 -85 -22t-72 -56v24q0 29 -20.5 40t-45.5 11h-3q-24 0 -31.5 -13.5t-7.5 -32.5v-494q0 -12 6 -21t15.5 -15t21 -9.5t21.5 -3.5h5q23 0 31 13t8 33v276q1 46 17 75.5t39 46.5t51 24t53 7q20 0 31 7.5t14 36.5q0 8 -0.5 16t-2.5 14z
" />
    <glyph glyph-name="s" unicode="s" horiz-adv-x="430" 
d="M366 508q-4 13 -11 23.5t-18 15.5v-1q-27 12 -65.5 21.5t-81.5 9.5q-26 0 -52.5 -7t-48.5 -23.5t-35.5 -44t-13.5 -67.5q0 -50 28.5 -88.5t67.5 -63.5l81 -51q23 -14 39.5 -33t16.5 -48q0 -26 -22.5 -40.5t-61.5 -14.5q-20 0 -47 9.5t-46 23.5q-9 7 -14 8.5t-13 1.5
q-5 0 -11 -1t-13 -8l3 2q-11 -11 -21.5 -28.5t-10.5 -28.5v-2q0 -10 4 -20.5t20 -18.5l-1 2q14 -10 34 -18.5t42 -15t44 -10.5t40 -4q40 0 74 8.5t59 28t39 50t14 75.5q0 30 -11 56.5t-27.5 49.5t-37 41t-39.5 30l-71 43q-20 13 -33 27.5t-15 34.5q2 19 18 27.5t33 8.5
q27 0 51 -6.5t35 -11.5h-2q9 -5 14.5 -7t12.5 -2q13 0 18 4q11 5 23 24t12 36v3z" />
    <glyph glyph-name="t" unicode="t" horiz-adv-x="384" 
d="M325 561q0 32 -8 46.5t-40 14.5h-97v122q0 23 -8 35.5t-31 12.5h-5q-11 0 -23 -3t-22 -9.5t-16 -16t-6 -22.5v-119h-51q-18 0 -30 -10.5t-12 -36.5v-4q0 -12 1.5 -23t6.5 -19.5t14.5 -13.5t25.5 -5h45v-281q1 -29 2.5 -57.5t4.5 -51.5q13 -63 43.5 -97.5t90.5 -34.5
q47 0 78 16t52 33l-1 -1q11 9 18 20.5t7 24.5v3q0 3 -5.5 13.5t-13.5 22t-17.5 20t-17.5 8.5q-12 0 -19 -3.5t-18 -14.5q-9 -8 -26.5 -16.5t-26.5 -8.5q-16 0 -22.5 10.5t-10.5 29.5q-5 23 -6 47.5t-1 44.5v273h103q20 0 31 10.5t11 36.5v4z" />
    <glyph glyph-name="u" unicode="u" horiz-adv-x="715" 
d="M397 95q6 -31 16.5 -51t26.5 -31.5t38.5 -16t52.5 -4.5q47 0 78 16t52 33l-1 -1q11 9 18 20.5t7 24.5v3q0 3 -5.5 13.5t-13.5 22t-17.5 20t-17.5 8.5q-12 0 -19 -3.5t-18 -14.5q-9 -8 -26.5 -16.5t-26.5 -8.5q-16 0 -20 10.5t-8 29.5v377q0 12 -7 21.5t-17.5 16t-23 10
t-23.5 3.5h-4q-26 0 -34 -13.5t-8 -32.5v-197q1 -54 -14.5 -97.5t-41 -74t-57 -47t-61.5 -16.5q-17 0 -26.5 9t-14 23t-6 30.5t-1.5 31.5v335q0 13 -6.5 22t-17 15t-23 9t-24.5 3h-4q-25 0 -33.5 -13.5t-8.5 -32.5v-341q0 -41 7 -77.5t26 -64.5t51 -44t82 -16q48 0 91.5 28
t81.5 80v6t1 -7z" />
    <glyph glyph-name="v" unicode="v" horiz-adv-x="517" 
d="M460 495q0 27 -14 48.5t-35 21.5h-19q-20 0 -32.5 -12.5t-14.5 -32.5v-13t2 -26q2 -23 4.5 -50t2.5 -47q-5 -83 -37 -151.5t-77 -108.5q-11 37 -27 90.5t-35 112.5t-39.5 117.5t-39.5 105.5l2 -1q-14 27 -45 27q-11 0 -20 -3l-18 -6l-9 -2q-14 -9 -19.5 -17.5t-5.5 -22.5
q0 -5 0.5 -9.5t3.5 -10.5v2q22 -54 44.5 -116t43.5 -126t39.5 -126t33.5 -117q7 -14 21.5 -24t33.5 -10q20 0 44 7t43 23q77 57 124.5 148.5t52.5 208.5v16q0 27 -3 54t-5 50z" />
    <glyph glyph-name="w" unicode="w" horiz-adv-x="827" 
d="M768 502q0 11 -4 22t-10.5 20t-15.5 15t-19 6h-23q-20 0 -33.5 -12.5t-15.5 -32.5l0.5 -13t2.5 -26q2 -23 4.5 -50t2.5 -47q-5 -84 -29.5 -152t-67.5 -108q-11 37 -28 91t-36.5 113t-40.5 117t-41 105l2 -1q-7 14 -19.5 20.5t-27.5 6.5q-11 0 -21 -3t-18 -6l-9 -2
q-14 -9 -20.5 -17.5t-6.5 -22.5q0 -5 0.5 -9.5t4.5 -10.5v2q11 -25 20.5 -51t19.5 -53q2 -5 4 -9t4 -9q20 -51 16.5 -89t-20.5 -68.5t-42.5 -55t-49.5 -48.5q-11 37 -27.5 91t-36.5 113t-41 117t-41 105l2 -1q-7 14 -19.5 20.5t-27.5 6.5q-10 0 -21.5 -3t-20.5 -8l3 2l-9 -2
q-14 -9 -20.5 -17.5t-6.5 -22.5q0 -5 0.5 -9.5t4.5 -10.5v2q24 -54 47 -116t44.5 -126t40.5 -126t34 -117q7 -14 23 -24t36 -10t45 7t45 23q78 56 117 147q12 -38 22.5 -74t19.5 -69q7 -14 22.5 -24t37.5 -10q20 0 45 7t45 23q79 57 118 148.5t42 208.5z" />
    <glyph glyph-name="x" unicode="x" horiz-adv-x="522" 
d="M386 12q6 -8 9.5 -12t7 -6t8 -2.5t12.5 -0.5q7 0 18 5.5t21.5 13.5t18 17t7.5 16q-2 13 -6 18.5t-9 10.5l-160 207l178 228h-1l-2 -2l11 18q1 7 -8 16t-21.5 17.5t-24.5 14.5t-18 6q-17 0 -22.5 -2.5t-18.5 -18.5l-142 -181l-140 181q-6 8 -9.5 12t-7 6t-8 2.5t-12.5 0.5
q-7 0 -18 -5.5t-21.5 -13.5t-18 -17t-7.5 -16q2 -13 6 -18.5t9 -10.5l159 -211l-174 -227l3 1q-2 -4 -5.5 -11.5l-3.5 -7.5q-2 -7 7 -16t21 -17t24.5 -13.5t18.5 -5.5q16 0 21 2.5t16 16.5l141 183q38 -52 62.5 -84t39.5 -50.5t22.5 -26.5t11.5 -11z" />
    <glyph glyph-name="y" unicode="y" horiz-adv-x="586" 
d="M498 544q0 13 -6.5 23t-16.5 16.5t-22.5 10t-23.5 3.5h-3q-25 0 -33.5 -14t-8.5 -34v-203q-1 -55 -17 -100t-40.5 -77t-54 -49.5t-56.5 -17.5q-17 0 -26 9t-14 23.5t-6 31.5t-1 33v347q0 13 -6.5 22.5t-16.5 16t-22.5 9.5t-23.5 3h-4q-25 0 -33 -14t-8 -34v-353
q0 -43 7 -80.5t25 -66t49.5 -45t79.5 -16.5t90 28.5t78 82.5v-260q0 -25 -5 -54.5t-19 -55t-38.5 -42.5t-62.5 -17q-23 0 -41 6.5t-32 15.5q-4 4 -8 5t-7 1q-10 6 -18 6h-6q-6 -1 -14.5 -8.5t-16.5 -18t-13.5 -21.5t-5.5 -18v-3q0 -16 8.5 -25t18.5 -18q33 -23 69 -30.5
t77 -7.5q58 0 101 21.5t71.5 59t42 88t13.5 109.5v712z" />
    <glyph glyph-name="z" unicode="z" horiz-adv-x="535" 
d="M496 519q0 17 -14 30t-26 13h-392q-20 0 -31.5 -7t-13.5 -30v-11q0 -21 12.5 -42.5t35.5 -21.5h242l-291 -374q-5 -8 -8.5 -15t-3.5 -18q0 -17 14 -30t26 -13h408q18 0 31 7.5t13 32.5v9q-2 22 -14.5 42.5t-35.5 20.5h-255l287 372q16 15 16 35z" />
    <glyph glyph-name="braceleft" unicode="{" horiz-adv-x="316" 
d="M285 897q-4 30 -13 43.5t-34 13.5q-33 0 -62.5 -7t-52 -23.5t-35.5 -45t-13 -71.5v-5q1 -37 2.5 -90.5t4.5 -108.5q2 -52 4 -95.5t2 -66.5q0 -12 -3.5 -19t-8 -10.5t-10 -4.5t-8.5 -1q-21 0 -30.5 -18.5t-9.5 -45.5q0 -29 9.5 -46t30.5 -17q7 0 18.5 -5.5t11.5 -30.5
q0 -23 -2 -66.5t-4 -97.5q-3 -54 -4.5 -108.5t-2.5 -90.5v-3q0 -44 13 -72t35.5 -45t52 -23.5t62.5 -6.5q23 0 33 12.5t14 44.5q0 3 0.5 7.5t0.5 5.5q0 24 -9.5 40t-35.5 16t-41.5 8.5t-15.5 40.5q0 29 2 73.5t6 94.5q1 49 3.5 95t2.5 75v4q0 36 -8.5 58.5t-18.5 36.5
q10 14 18.5 37.5t8.5 61.5q0 25 -2.5 65t-3.5 83q-4 53 -6 105t-2 84t15.5 41t41.5 9q27 0 35.5 16.5t8.5 40.5v12z" />
    <glyph glyph-name="bar" unicode="|" horiz-adv-x="202" 
d="M156 951q0 20 -7.5 33t-31.5 13h-3q-9 0 -21 -4t-22.5 -10.5t-18 -16t-7.5 -21.5v-996q0 -20 8 -33.5t31 -13.5h3q10 0 22 4t22.5 10.5t17.5 16.5t7 22v996z" />
    <glyph glyph-name="braceright" unicode="}" horiz-adv-x="316" 
d="M217 802v5q0 43 -13.5 71.5t-36 45t-52.5 23.5t-63 7q-21 0 -32 -13.5t-14 -43.5q0 -4 -1 -8.5t-1 -6.5q0 -23 10.5 -38.5t36.5 -15.5q25 0 40 -9t15 -41q0 -29 -2 -74t-4 -94q-2 -50 -4 -95.5t-2 -73.5v-5q0 -38 7.5 -60.5t18.5 -35.5q-11 -14 -18.5 -37.5t-7.5 -59.5
q0 -26 2 -66t4 -83q2 -54 4 -105t2 -84q0 -32 -15 -40.5t-40 -8.5q-27 0 -36 -17t-9 -40v-12q3 -32 13 -44.5t33 -12.5q33 0 63 6.5t52.5 23.5t36 45t13.5 72v3q-1 36 -3 90.5t-4 108.5q-4 54 -5 97.5t-1 66.5q0 12 3.5 19t8 10.5t9 4t7.5 0.5q22 0 31.5 19t9.5 46
q0 28 -9.5 45.5t-31.5 17.5q-3 0 -7.5 0.5t-9 4t-8 11t-3.5 20.5q0 23 1 66.5t5 95.5q2 55 4 108.5t3 90.5z" />
    <glyph glyph-name="asciitilde" unicode="~" horiz-adv-x="586" 
d="M553 387v4q0 11 -8.5 20.5t-22.5 17.5h-5q-8 2 -16.5 4t-19.5 2q-29 0 -36 -11.5t-7 -20.5v-7q-2 -6 -7.5 -10t-21.5 -4q-32 0 -61.5 7t-58.5 17q-32 11 -64.5 19t-73.5 8q-26 0 -52 -6t-46.5 -18t-33 -29.5t-12.5 -40.5q0 -13 5.5 -23t21.5 -15q13 -5 22 -7t22 -2
q29 0 36 9.5t7 22.5q0 1 1 1.5t1 2.5q0 3 -2 5q2 3 8 7.5t21 4.5q30 0 59 -7.5t58 -18.5v2q32 -11 66 -20t75 -9q26 0 52 6t46.5 18t33.5 30t13 41z" />
    <glyph glyph-name="exclamdown" unicode="&#xa1;" horiz-adv-x="193" 
d="M86 -299q11 0 23.5 3.5t23 10t17 15.5t6.5 20v556q0 20 -8 32.5t-31 12.5l-3 1q-11 0 -23.5 -3.5t-22.5 -10t-16.5 -15.5t-6.5 -20v-557q0 -16 6.5 -29t31.5 -15zM37 529q0 -31 18.5 -53t44.5 -22q27 0 44 22t17 53q0 30 -17 52.5t-44 22.5q-26 0 -44.5 -22.5
t-18.5 -52.5z" />
    <glyph glyph-name="cent" unicode="&#xa2;" horiz-adv-x="838" 
d="M542 947q0 20 -7.5 33t-31.5 13h-3q-9 0 -21 -4t-22.5 -10.5t-18 -16t-7.5 -21.5v-31q-88 -11 -162 -46t-127.5 -92t-83 -135t-28.5 -174q0 -25 2.5 -50.5t7.5 -45.5q16 -74 53 -135.5t89 -108.5t116 -78.5t133 -45.5v-54q0 -20 8 -33.5t31 -13.5h3q10 0 22 4t22.5 10.5
t17.5 16.5t7 22v37q46 0 80 4t61 10.5t49 15t45 18.5t31.5 22t8.5 32q0 10 -4.5 22t-12.5 22t-19.5 16.5t-24.5 6.5q-9 0 -16.5 -2.5t-16.5 -4.5q-2 -2 -6.5 -4.5t-10.5 -4.5q-18 -9 -35 -16t-35.5 -11.5t-41 -6.5t-52.5 -2v690q47 -3 78.5 -13.5t55.5 -21.5l12 -6l-1 2
q14 -7 22 -10.5t22 -3.5q8 0 17.5 9t18 21t14.5 23t6 16q0 11 -8.5 25t-28.5 25h1l-10 4q-32 14 -78.5 29.5t-120.5 19.5v33zM166 385q-9 30 -9 69q-1 63 18.5 119t55.5 100t87 74t113 42v-670q-47 13 -90 36.5t-78.5 57t-61 77t-35.5 95.5z" />
    <glyph glyph-name="sterling" unicode="&#xa3;" horiz-adv-x="558" 
d="M419 806q0 2 0.5 2.5t0.5 1.5q0 14 -5 21t-14 17q-10 9 -24 20t-33 20t-42.5 15.5t-53.5 6.5q-35 0 -60.5 -14.5t-42 -38.5t-24.5 -55t-8 -63q0 -27 6 -57l37 -161h-84q-16 0 -28.5 -8.5t-18.5 -31.5v-18q0 -22 8.5 -38t30.5 -16q8 0 17 -1t19 -1q2 0 15.5 -0.5
t28.5 -0.5h29h17q11 -26 16 -48t5 -41q0 -24 -8 -44t-20.5 -38.5t-29.5 -36t-35 -34.5q-19 -18 -37 -36t-34 -39l-9 -40v-8q0 -24 9.5 -32.5t30.5 -8.5h429q18 0 32.5 10t14.5 33v6q0 1 -0.5 -0.5t-0.5 0.5q-2 10 -3.5 20t-6 18t-12.5 13.5t-22 5.5h-310q16 14 37 33
t39.5 44t31 55.5t12.5 67.5q0 21 -7 49t-13 54h136q16 0 28 8.5t19 31.5v17q0 23 -8.5 39t-31.5 16h-172l-37 173h1q-1 4 -2 9t-1 10q0 13 1 28t3.5 27.5t5.5 20.5t7 8q20 0 39 -8t31 -22q14 -13 20 -17t19 -6h7q10 0 19.5 6.5t17 16t12.5 19t6 15.5v5z" />
    <glyph glyph-name="currency" unicode="&#xa4;" horiz-adv-x="917" 
d="M557 332q0 20 -13 39.5t-35 19.5h-267q-6 27 -6 63v10h278q19 0 31 7.5t12 28.5v6q-2 20 -14 38.5t-34 18.5h-257q16 52 48 94.5t75.5 73.5t97.5 48t116 17t101.5 -11t67.5 -25l12 -6l-1 2q14 -7 21.5 -10.5t21.5 -3.5q8 0 18 9t18.5 21t14.5 23t6 16q0 11 -8.5 25
t-28.5 25h1l-10 4q-17 7 -38.5 16t-50 16.5t-64 12.5t-80.5 5q-90 0 -169 -23.5t-141 -68.5t-104 -110.5t-58 -149.5h-66q-20 0 -32.5 -7t-12.5 -30v-3q0 -10 3.5 -20.5t10.5 -19t15.5 -14t19.5 -5.5h53v-1q0 -18 1 -36.5t3 -35.5h-61q-20 0 -32.5 -7.5t-12.5 -28.5v-5
q0 -19 12.5 -38.5t35.5 -19.5h85q28 -71 78 -127.5t113 -95.5t135.5 -60t146.5 -21q47 0 82 4t62 10.5t50 15t46 18.5t31.5 22t8.5 32q0 10 -4.5 22t-12 22t-19 16.5t-24.5 6.5q-9 0 -16.5 -2.5t-16.5 -4.5q-3 -2 -7.5 -4.5t-10.5 -4.5q-18 -9 -35.5 -16t-37 -11.5
t-43.5 -6.5t-55 -2q-48 0 -97 12.5t-93 36t-81 58.5t-62 80h234q20 0 32.5 7t12.5 30v3z" />
    <glyph glyph-name="yen" unicode="&#xa5;" horiz-adv-x="721" 
d="M631 265q0 20 -13 39.5t-35 19.5h-183v73h188q19 0 31 7.5t12 28.5v6q-2 20 -14 38.5t-34 18.5h-134l232 317q5 8 7.5 16t2.5 15q0 14 -7 27.5t-24 22.5l-12 7q-8 5 -15 8t-12 3q-13 0 -20 -6t-18 -15l-240 -335l-246 339l2 -1q-7 10 -17.5 14.5t-18.5 4.5q-14 0 -26 -6
t-22 -13h1l-4 -2q-20 -15 -20 -36q0 -12 3 -16.5t6 -11.5l242 -332h-117q-20 0 -32.5 -7t-12.5 -30v-3q0 -10 3.5 -20.5t10.5 -19t15.5 -14t19.5 -5.5h159v-73h-163q-20 0 -32.5 -7.5t-12.5 -28.5v-5q0 -19 12.5 -38.5t35.5 -19.5h160v-187q0 -20 8 -32.5t31 -12.5l3 -1
q11 0 23.5 3.5t22.5 10t16.5 15.5t6.5 20v184h186q20 0 32.5 7t12.5 30v3z" />
    <glyph glyph-name="brokenbar" unicode="&#xa6;" horiz-adv-x="202" 
d="M156 951q0 20 -7.5 33t-31.5 13h-3q-9 0 -21 -4t-22.5 -10.5t-18 -16t-7.5 -21.5v-352q0 -20 8 -33.5t31 -13.5h3q10 0 22 4t22.5 10.5t17.5 16.5t7 22v352zM157 312q0 20 -7.5 33t-31.5 13h-3q-9 0 -21 -4t-22.5 -10.5t-18 -16t-7.5 -21.5v-350q0 -20 8 -33.5t31 -13.5
h3q10 0 22 4t22.5 10.5t17.5 16.5t7 22v350z" />
    <glyph glyph-name="section" unicode="&#xa7;" horiz-adv-x="627" 
d="M523 817q-5 22 -13.5 30t-22.5 15q-54 23 -94 35t-83 12q-53 0 -99 -11.5t-80.5 -36.5t-54 -63.5t-19.5 -92.5q0 -16 1 -31t3 -29q9 -45 36 -78q-30 -25 -47 -61t-17 -86q0 -16 1 -31t5 -29q14 -65 62.5 -112.5t117.5 -82.5l78 -39q43 -23 76 -52.5t44 -73.5
q1 -11 2.5 -20t1.5 -19q0 -28 -11.5 -50.5t-31 -38.5t-44.5 -24.5t-52 -8.5q-42 0 -74 12t-72 41q-2 1 -4.5 2.5t-4.5 3.5l2 -2q-8 6 -13 12t-23 6q-9 0 -18.5 -7.5t-17.5 -18t-13 -22t-5 -19.5v-6q2 -14 7 -22t20 -17q25 -18 48.5 -31.5t49.5 -23.5t56 -15t68 -5
q54 0 100 15t79 43.5t51.5 70t18.5 94.5q0 18 -2 37.5t-9 42.5q-2 12 -7.5 26.5t-13.5 28.5q26 29 41.5 65.5t15.5 83.5q0 35 -13 81q-11 55 -56.5 106t-123.5 92l-81 40q-20 10 -39 21t-34 24t-25.5 29t-14.5 37q-4 16 -4 29q0 26 12 45.5t31.5 32t45 18.5t52.5 6
q32 0 63 -10t60 -25l-3 2q12 -7 19 -10.5t21 -3.5q12 0 21.5 7.5t16 17.5t10 21t3.5 19v4zM441 285q2 -8 2.5 -17t0.5 -18q0 -40 -24 -72q-16 14 -35 26t-40 22l-80 42q-20 10 -38.5 21t-33.5 24t-26.5 29t-15.5 36q-1 11 -2 17.5t-1 12.5q0 25 10.5 43.5t27.5 31.5
q12 -8 25.5 -16t29.5 -16l78 -40q45 -23 78 -52.5t44 -73.5z" />
    <glyph glyph-name="dieresis" unicode="&#xa8;" horiz-adv-x="378" 
d="M331 489q0 23 -19.5 38.5t-46.5 15.5t-45.5 -15.5t-20.5 -38.5q0 -23 19.5 -39.5t48.5 -16.5q27 0 45 16t19 40zM151 489q0 23 -19.5 38.5t-46.5 15.5q-26 0 -45 -15.5t-21 -38.5q0 -23 20.5 -39.5t47.5 -16.5t45 16t19 40z" />
    <glyph glyph-name="copyright" unicode="&#xa9;" horiz-adv-x="1027" 
d="M979 538q-14 87 -54 156.5t-103 118.5t-147 75.5t-186 26.5q-104 0 -186 -33t-140 -90.5t-90 -136.5t-36 -171q-1 -32 0.5 -62t6.5 -62q14 -89 54.5 -158t101.5 -116.5t138 -72.5t165 -25q107 0 194 29.5t150 84.5t99 133t40 176q2 32 0 63.5t-7 63.5zM850 526
q6 -28 7.5 -54t0.5 -49q-3 -73 -29.5 -132t-73 -100t-111.5 -63.5t-146 -22.5q-66 0 -122 18.5t-98.5 53t-69.5 84t-36 111.5q-9 58 -8 103q3 69 27 128t66.5 102t103 67t137.5 24q79 0 140.5 -20t105.5 -55.5t70.5 -85t35.5 -109.5zM670 654q-4 20 -20 37.5t-39 30.5v-2
q-14 11 -35.5 17.5t-45.5 6.5q-56 0 -100.5 -24.5t-76.5 -68.5t-49 -105t-17 -133q0 -50 11.5 -96.5t37 -82.5t66 -57.5t97.5 -21.5q24 0 48 5t45.5 13t39.5 19t30 23q11 7 14.5 16.5t3.5 17.5v6q0 8 -6.5 18.5t-15.5 20.5t-18 16.5t-15 6.5h-3q-14 0 -30 -12q-4 -4 -8 -6
q-16 -13 -35 -22.5t-47 -9.5q-27 0 -45.5 13.5t-30 34.5t-17 46.5t-5.5 49.5q0 38 7.5 77t22.5 70.5t39 51.5t57 20q11 0 18 -3.5t12 -8.5q11 -11 22.5 -21t25.5 -10q9 0 19 5.5t19 13.5t15.5 18.5t8.5 20.5v9z" />
    <glyph glyph-name="guillemotleft" unicode="&#xab;" horiz-adv-x="511" 
d="M442 381q6 5 9 12.5t3 15.5q0 13 -8 29t-17 27l-5 3l1 -1q-14 8 -23 8q-11 0 -16.5 -3t-13.5 -10l-146 -144q-7 -7 -11 -14t-4 -16q0 -15 15 -30l167 -165q5 -4 10 -6.5t15 -2.5q8 0 14.5 3t15.5 9l2 6q9 8 14 19t5 21q0 17 -12 29l-114 112zM244 381q6 5 9 12.5t3 15.5
q0 13 -8 29t-17 27l-6 3l2 -2q-12 9 -25 9q-11 0 -16 -3t-12 -10l-146 -144q-15 -14 -15 -30q0 -7 3.5 -15t11.5 -15l165 -165q5 -4 11 -6.5t16 -2.5q8 0 14 3t15 9l3 6q8 8 13 19t5 21q0 18 -12 29l-114 112z" />
    <glyph glyph-name="logicalnot" unicode="&#xac;" horiz-adv-x="939" 
d="M887 357q-12 68 -83 89h62q8 0 14.5 4.5t7.5 16.5l1 2q0 13 -6.5 25t-18.5 12h-165v148h154q22 0 22 23v2q0 12 -6 23.5t-19 11.5h-151v127h154q9 0 15.5 5t6.5 18v2q0 12 -6 23.5t-19 11.5h-187q-4 0 -10 -2q-10 -2 -13 -8t-3 -15v-176h-185v174q0 11 -11.5 17.5
t-22.5 7.5h-141h-95h-58t-31.5 -0.5t-13 -1t-3.5 -0.5q-14 -3 -14 -23v-854q0 -27 25 -27h203q8 0 14 3q5 2 8 5.5t6 8.5l81 182h157l83 -175q1 -24 26 -24h84q9 0 34.5 3t52.5 15.5t48 39.5t21 75q0 5 -0.5 8.5t-0.5 6.5q0 2 -0.5 4t-0.5 3q-6 31 -24.5 51.5t-39.5 31.5
q22 17 36.5 42.5t14.5 57.5q0 15 -3 26zM222 841v-372q0 -13 13 -20t24 -7h2q13 0 18 6.5t5 17.5v375h106v-376q0 -13 13 -20t24 -7h2q11 0 15 5l-175 -391h-147v789h100zM452 462v179h185v-176q0 -6 3 -7q4 -9 16 -11q-17 -6 -17 -27v-268l-147 302l1 -2q-5 15 -22 15
q-6 0 -11 -4.5t-10 -10.5q2 6 2 10zM844 137v-12q0 -26 -13.5 -40.5t-30.5 -21.5t-34 -8.5t-24 -1.5h-42v144h52q12 0 26 -3t27.5 -9.5t24 -18t13.5 -28.5zM827 345q1 -2 1 -6v-7q0 -22 -10.5 -36.5t-25 -23.5t-30 -12.5t-26.5 -3.5h-36v137q60 3 89.5 -5t37.5 -43zM301 395
q0 12 -7.5 18t-13.5 6h-4q-8 0 -10.5 -7t-2.5 -16l2 -122q0 -12 6.5 -17.5t14.5 -5.5t10.5 6t2.5 15zM474 359l53 -111h-102z" />
    <glyph glyph-name="registered" unicode="&#xae;" horiz-adv-x="584" 
d="M549 710q-16 94 -85.5 149.5t-180.5 55.5q-57 0 -102 -18t-76.5 -49.5t-48.5 -74t-19 -92.5q-1 -33 3 -68q8 -48 30 -85.5t55 -63t75 -39t90 -13.5q58 0 105 16t81.5 45.5t54 72t21.5 95.5q2 17 0.5 34.5t-3.5 34.5zM499 707q5 -17 6 -32t0 -29q-5 -90 -62 -141t-155 -51
q-81 0 -133.5 42.5t-63.5 117.5q-3 17 -4 33t-1 30q2 42 16.5 77t40.5 61t62.5 40.5t82.5 14.5q96 0 148 -45.5t63 -117.5zM296 644q17 4 34 11.5t30.5 19.5t22 29.5t8.5 41.5q0 28 -10.5 46.5t-28 29.5t-39.5 15.5t-44 4.5q-7 0 -23.5 -1t-32.5 -5q-17 -3 -17 -21v-303
q0 -9 9.5 -15t17.5 -6h2q10 0 13.5 5.5t3.5 13.5v125q13 -12 29 -28t33.5 -33t35 -35t32.5 -34q6 -6 14.5 -9t12.5 -3q11 7 12.5 14t-1 13.5t-6.5 10.5t-4 5zM344 746q0 -21 -11 -34t-27 -19.5t-33.5 -8.5t-30.5 -2v115q5 1 12 1.5t15 0.5q13 0 26.5 -2.5t24 -8.5t17.5 -16
t7 -26z" />
    <glyph glyph-name="macron" unicode="&#xaf;" horiz-adv-x="473" 
d="M459 555q0 11 -3.5 23.5t-10 23t-15.5 17t-20 6.5h-350q-20 0 -32.5 -8t-12.5 -31l-1 -3q0 -11 3.5 -23.5t10 -22.5t15.5 -16.5t20 -6.5h351q16 0 29 6.5t15 31.5z" />
    <glyph glyph-name="degree" unicode="&#xb0;" horiz-adv-x="412" 
d="M367 648q0 35 -9.5 68t-30 58.5t-53 41t-78.5 15.5q-39 0 -72 -17.5t-56 -46t-36 -65t-13 -74.5q1 -35 10.5 -68t29.5 -58t51 -40t76 -15q36 0 69 15.5t58 42.5t39.5 63.5t14.5 79.5zM259 648q0 -20 -6.5 -39t-16.5 -33.5t-23 -23t-26 -8.5q-17 0 -29 7t-19 19t-10 27
t-3 31q0 18 6 36.5t15.5 33.5t22 24.5t26.5 9.5q18 0 30 -7t19.5 -19t10.5 -27t3 -31z" />
    <glyph glyph-name="plusminus" unicode="&#xb1;" horiz-adv-x="640" 
d="M614 536q0 11 -3.5 23.5t-10 23t-15.5 17t-20 6.5h-192v200q0 20 -8.5 31.5t-33.5 11.5h-3q-10 0 -23 -3.5t-24 -9.5t-19 -15t-8 -20v-195h-195q-20 0 -32.5 -8t-12.5 -31l-1 -3q0 -11 3.5 -23.5t10 -22.5t15.5 -16.5t20 -6.5h192v-204q0 -19 10.5 -30.5t31.5 -11.5h3
q10 0 23 3.5t24 10.5t19 16.5t8 20.5v195h196q16 0 29 6.5t15 31.5zM615 94q0 11 -3.5 23.5t-10 23t-15.5 17t-20 6.5h-506q-20 0 -32.5 -8t-12.5 -31l-1 -3q0 -11 3.5 -23.5t10 -22.5t15.5 -16.5t20 -6.5h507q16 0 29 6.5t15 31.5z" />
    <glyph glyph-name="acute" unicode="&#xb4;" horiz-adv-x="364" 
d="M321 693l-17 18q-13 13 -31 13q-7 0 -15 -2.5t-14 -7.5l2 1l-158 -133q-5 -7 -9 -12t-4 -15q0 -6 2.5 -12t9.5 -11l12 -15q5 -5 10.5 -9t16.5 -4q7 0 12.5 2t11.5 5l165 125q16 14 16 31q0 12 -7 24z" />
    <glyph glyph-name="mu" unicode="&#xb5;" horiz-adv-x="715" 
d="M58 -102q-1 -5 -1.5 -9t-1.5 -8q-4 -19 -10.5 -29.5t-22.5 -10.5q-9 0 -26.5 8.5t-26.5 16.5q-11 11 -18 14.5t-19 3.5q-8 0 -17.5 -8.5t-17.5 -20t-13.5 -22t-5.5 -13.5v-3q0 -13 7 -24.5t18 -20.5l-1 1q21 -17 52 -33t78 -16q9 0 12.5 -1t11.5 1h6q9 0 27.5 6.5
t37.5 19.5t33.5 32.5t14.5 46.5v164q23 -5 48 -5q48 0 91.5 28t81.5 80v6t1 -7q6 -31 16.5 -51t26.5 -31.5t38.5 -16t52.5 -4.5q47 0 78 16t52 33l-1 -1q11 9 18 20.5t7 24.5v3q0 3 -5.5 13.5t-13.5 22t-17.5 20t-17.5 8.5q-12 0 -19 -3.5t-18 -14.5q-9 -8 -26.5 -16.5
t-26.5 -8.5q-16 0 -20 10.5t-8 29.5v377q0 12 -7 21.5t-17.5 16t-23 10t-23.5 3.5h-4q-26 0 -34 -13.5t-8 -32.5v-197q1 -54 -14.5 -97.5t-41 -74t-57 -47t-61.5 -16.5q-13 0 -21.5 5.5t-13.5 14.5t-8 21t-4 24l-1 364q0 13 -6.5 22t-17 15t-23 9t-24.5 3h-4
q-25 0 -33.5 -13.5t-8.5 -32.5z" />
    <glyph glyph-name="paragraph" unicode="&#xb6;" horiz-adv-x="609" 
d="M496 795q0 19 -7.5 30t-18 16t-22 6.5t-19.5 1.5h-23q-23 0 -62 -2t-83 -10t-89.5 -25t-82.5 -46.5t-60 -74.5t-23 -109v-1q0 -59 24.5 -103t63 -74.5t86 -48t94.5 -23.5v-452q0 -26 2 -37t24 -11h4q13 0 20.5 2.5t11 8t4 13t1.5 17.5l-1 456q7 1 20 1h21v-450
q0 -13 7 -22.5t17.5 -16t23 -10t22.5 -3.5h3q26 0 34 14t8 34v919z" />
    <glyph glyph-name="periodcentered" unicode="&#xb7;" horiz-adv-x="145" 
d="M112 300q0 23 -14.5 39t-34.5 16t-34 -16t-16 -39q0 -24 15 -40t35 -16t34.5 16t14.5 40z" />
    <glyph glyph-name="periodcentered" unicode="&#x2219;" horiz-adv-x="145" 
d="M112 300q0 23 -14.5 39t-34.5 16t-34 -16t-16 -39q0 -24 15 -40t35 -16t34.5 16t14.5 40z" />
    <glyph glyph-name="cedilla" unicode="&#xb8;" horiz-adv-x="348" 
d="M264 -108q0 27 -14.5 44t-30.5 29q-11 9 -11 7q0 4 0.5 7t2 10t5.5 20t12 37h-92q-7 -25 -11 -39t-6 -22.5t-2.5 -14.5t-1.5 -15q0 -18 10.5 -28.5t24.5 -19.5q7 -5 12.5 -10t5.5 -7q0 -4 -12 -4q-8 0 -16 1.5t-22 7.5l2 -2q-7 4 -11.5 4.5t-8.5 0.5q-2 0 -6 -0.5
t-9 -2.5q-7 -5 -16 -21t-9 -29v-6q3 -12 8 -19t17 -12q20 -8 35.5 -11t35.5 -3q56 0 82 28.5t26 69.5z" />
    <glyph glyph-name="guillemotright" unicode="&#xbb;" horiz-adv-x="511" 
d="M459 303l-164 159q-13 13 -30 13q-15 0 -31 -15v-3q-8 -9 -14 -20t-6 -22q0 -13 12 -28l114 -111l-97 -96q-12 -12 -12 -29q0 -14 7 -29t15 -23l3 -3q12 -12 26 -12q12 0 16 2.5t9 6.5l156 151q2 5 5.5 11t3.5 16q0 7 -3.5 14.5t-5.5 12.5zM259 303l-162 159
q-14 13 -31 13q-16 0 -30 -15l-2 -3q-7 -9 -12.5 -20t-5.5 -22q0 -16 12 -28l114 -111l-99 -96q-12 -15 -12 -29t7.5 -29t15.5 -23l3 -3q5 -6 12.5 -9t14.5 -3q11 0 14.5 2.5t9.5 6.5l156 151q3 5 6 11t3 16q0 7 -3 14.5t-6 12.5z" />
    <glyph glyph-name="questiondown" unicode="&#xbf;" horiz-adv-x="417" 
d="M418 -218v6q0 7 -3.5 15.5t-9 17.5t-12 17t-12.5 13l4 -3q-7 7 -13 8t-9 1q-6 0 -13 -1.5t-16 -8.5q-27 -18 -47.5 -25t-49.5 -7q-18 0 -35.5 6t-32 17t-23 27t-8.5 36q0 23 4.5 40t12.5 30.5t18.5 24.5t21.5 22q18 17 35.5 36t32 45.5t23 63.5t8.5 90v77q0 13 -6.5 23
t-16.5 16t-22 9t-23 3h-4q-24 0 -33 -14t-9 -34v-81q0 -32 -6 -54.5t-16 -39.5t-23 -30.5t-26 -25.5q-17 -15 -33 -31.5t-29 -38.5t-20.5 -52t-7.5 -72q0 -51 18 -90t48.5 -66t70 -40.5t81.5 -13.5q45 0 83 12t80 39q11 11 13.5 17t4.5 16zM301 516q0 34 -20 56.5t-49 22.5
q-28 0 -47.5 -22.5t-21.5 -56.5q0 -33 20.5 -56.5t48.5 -23.5q29 0 49 23.5t20 56.5z" />
    <glyph glyph-name="Agrave" unicode="&#xc0;" horiz-adv-x="886" 
d="M850 39q0 12 -3 19l-6 14l-401 825l2 -3q-5 14 -14.5 21t-29.5 7q-14 0 -26 -10.5t-20 -26.5l-363 -804q-11 -17 -11 -36q0 -11 7 -21.5t17.5 -18t22 -12t21.5 -4.5q23 0 32 6.5t16 23.5l162 359h309l172 -357q8 -17 17 -24.5t33 -7.5q7 0 17.5 4.5t20.5 12t17.5 16
t7.5 17.5zM514 1026l-159 137q-9 6 -24 6q-9 0 -17.5 -4t-13.5 -12l-10 -11l2 1q-12 -12 -12 -27q0 -16 15 -31l165 -123q11 -8 24 -8q10 0 15.5 4t12.5 11l6 9q5 5 7 9t2 12q0 9 -2.5 14.5t-9.5 12.5h-1zM403 709l106 -219h-202z" />
    <glyph glyph-name="Aacute" unicode="&#xc1;" horiz-adv-x="886" 
d="M850 39q0 12 -3 19l-6 14l-401 825l2 -3q-5 14 -14.5 21t-29.5 7q-14 0 -26 -10.5t-20 -26.5l-363 -804q-11 -17 -11 -36q0 -11 7 -21.5t17.5 -18t22 -12t21.5 -4.5q23 0 32 6.5t16 23.5l162 359h309l172 -357q8 -17 17 -24.5t33 -7.5q7 0 17.5 4.5t20.5 12t17.5 16
t7.5 17.5zM521 1133l-17 18q-13 13 -31 13q-7 0 -15 -2.5t-14 -7.5l2 1l-158 -133q-5 -7 -9 -12t-4 -15q0 -6 2.5 -12t9.5 -11l12 -15q5 -5 10.5 -9t16.5 -4q7 0 12.5 2t11.5 5l165 125q16 14 16 31q0 12 -7 24zM403 709l106 -219h-202z" />
    <glyph glyph-name="Acircumflex" unicode="&#xc2;" horiz-adv-x="886" 
d="M850 39q0 12 -3 19l-6 14l-401 825l2 -3q-5 14 -14.5 21t-29.5 7q-14 0 -26 -10.5t-20 -26.5l-363 -804q-11 -17 -11 -36q0 -11 7 -21.5t17.5 -18t22 -12t21.5 -4.5q23 0 32 6.5t16 23.5l162 359h309l172 -357q8 -17 17 -24.5t33 -7.5q7 0 17.5 4.5t20.5 12t17.5 16
t7.5 17.5zM573 1016l-138 135q-7 7 -14.5 9.5t-15.5 2.5t-16.5 -2.5t-15.5 -9.5l-136 -135q-6 -7 -9 -11.5t-3 -15.5q0 -13 12 -22l3 -5q9 -7 21.5 -11.5t23.5 -4.5q5 0 11.5 1t13.5 8l99 93l92 -89q5 -7 14 -10t16 -3q11 0 21.5 5.5t18.5 12.5l2 3q7 5 9.5 11t2.5 11
q0 6 -2.5 13t-9.5 14zM403 709l106 -219h-202z" />
    <glyph glyph-name="Atilde" unicode="&#xc3;" horiz-adv-x="886" 
d="M850 39q0 12 -3 19l-6 14l-401 825l2 -3q-5 14 -14.5 21t-29.5 7q-14 0 -26 -10.5t-20 -26.5l-363 -804q-11 -17 -11 -36q0 -11 7 -21.5t17.5 -18t22 -12t21.5 -4.5q23 0 32 6.5t16 23.5l162 359h309l172 -357q8 -17 17 -24.5t33 -7.5q7 0 17.5 4.5t20.5 12t17.5 16
t7.5 17.5zM600 1036q0 11 -5.5 21.5t-21.5 16.5q-9 3 -17 5t-22 2q-24 0 -30.5 -9t-10.5 -19v-11q0 -10 -10 -10q-8 0 -22.5 7.5t-30.5 16.5q-23 14 -49 25t-54 11q-49 0 -83 -23t-34 -67q0 -13 6 -22t22 -14q18 -9 39 -9q23 0 29.5 8.5t11.5 19.5v11q0 3 1.5 6.5t7.5 3.5
q7 0 19 -6.5t26 -15.5q23 -13 50.5 -25.5t60.5 -12.5q48 0 82.5 23t34.5 67zM403 709l106 -219h-202z" />
    <glyph glyph-name="Adieresis" unicode="&#xc4;" horiz-adv-x="829" 
d="M837 40q0 11 -3 18.5t-6 13.5l-401 834l2 -3q-5 14 -14.5 22t-29.5 8q-14 0 -26 -11.5t-20 -27.5l-363 -813q-11 -15 -11 -36q0 -11 7 -21.5t17.5 -18t22 -12t21.5 -4.5q23 0 32 6.5t16 23.5l162 362h309l172 -360q8 -17 17 -24.5t33 -7.5q7 0 17.5 4.5t20.5 12
t17.5 16.5t7.5 18zM390 715l106 -220h-202zM563 1032q0 34 -22 56.5t-53 22.5q-29 0 -49.5 -22.5t-22.5 -56.5q2 -34 22.5 -57.5t51.5 -23.5q30 0 51.5 23.5t21.5 57.5zM362 1032q0 34 -21.5 56.5t-53.5 22.5q-29 0 -49.5 -22.5t-22.5 -56.5q2 -34 22.5 -57.5t51.5 -23.5
q30 0 51.5 23.5t21.5 57.5z" />
    <glyph glyph-name="Aring" unicode="&#xc5;" horiz-adv-x="824" 
d="M850 39q0 12 -3 19l-6 14l-401 825l2 -3q-5 14 -14.5 21t-29.5 7q-14 0 -26 -10.5t-20 -26.5l-363 -804q-11 -17 -11 -36q0 -11 7 -21.5t17.5 -18t22 -12t21.5 -4.5q23 0 32 6.5t16 23.5l162 359h309l172 -357q8 -17 17 -24.5t33 -7.5q7 0 17.5 4.5t20.5 12t17.5 16
t7.5 17.5zM531 1153q-11 43 -44 69t-75 26q-26 0 -50.5 -11t-43 -29t-30 -42t-11.5 -50q0 -11 1 -15.5t2 -10.5q9 -43 42 -68t74 -25q26 0 50.5 10.5t43.5 28.5t30.5 42t11.5 51q0 8 -0.5 13.5t-0.5 10.5zM403 709l106 -219h-202zM438 1146v-9q0 -20 -14.5 -38t-33.5 -18
q-6 0 -11.5 3.5t-6.5 10.5q-2 5 -2 7v3q0 22 14.5 39.5t33.5 17.5q16 0 18 -15z" />
    <glyph glyph-name="AE" unicode="&#xc6;" horiz-adv-x="1092" 
d="M981 829q-1 12 -5 24.5t-11 23t-16.5 17t-21.5 6.5h-407q-12 0 -25.5 -9.5t-22.5 -23.5l-499 -785q-6 -7 -9.5 -15.5t-5.5 -17.5v-6q0 -11 6 -21t15.5 -17.5t20.5 -11.5t21 -4q20 0 29.5 5t19.5 19l234 371h191v-330q2 -29 14.5 -41.5t37.5 -12.5h413q21 0 33.5 9.5
t14.5 30.5l1 6q-1 12 -4.5 25t-10 23.5t-16 17t-21.5 6.5h-338v266h312q23 0 35 8.5t13 31.5l2 6q-1 12 -5 25t-10.5 23.5t-16 17t-21.5 6.5h-307v281h312q20 0 32.5 8.5t13.5 31.5zM375 496l120 189v-189h-120z" />
    <glyph glyph-name="Ccedilla" unicode="&#xc7;" horiz-adv-x="838" 
d="M790 822q0 11 -8.5 25.5t-28.5 23.5h1l-10 5q-17 7 -38.5 15.5t-50 16t-64 12.5t-80.5 5q-103 0 -191 -31t-152.5 -89.5t-101 -143t-36.5 -192.5q0 -25 2 -51t7 -46q15 -75 51.5 -137.5t88 -110t114 -79.5t130.5 -47q-2 -14 -5 -28t-3 -23q0 -21 12.5 -33.5t28.5 -23.5
q8 -5 15 -11t7 -8q0 -5 -16 -5q-9 0 -18 1.5t-23 6.5q-9 5 -14.5 5.5t-9.5 0.5q-3 0 -8 -0.5t-10 -4.5q-9 -5 -20 -23.5t-11 -34.5v-6q3 -15 9 -23t22 -13h-1q23 -11 42 -14.5t42 -3.5q34 0 59 9t41 25t24 36.5t8 44.5q0 32 -18 52t-36 34q-14 10 -15 9q1 5 2 9.5t2 9.5h5
q47 0 82 4t62 11t50 16.5t46 19.5q23 9 31.5 22t8.5 32q0 10 -4.5 22t-12 22.5t-19 17.5t-24.5 7q-9 0 -16.5 -2.5t-16.5 -6.5q-3 -1 -7.5 -4t-10.5 -5q-18 -9 -35.5 -16t-37 -11.5t-43.5 -6.5t-55 -2q-60 0 -120 19t-110.5 56t-87 89.5t-49.5 120.5q-8 29 -8 69
q0 74 26 137t73 109.5t112 72.5t142 26q62 0 101.5 -10t67.5 -24l12 -6l-1 1q14 -8 21.5 -11.5t21.5 -3.5q8 0 18 9.5t18.5 21.5t14.5 23.5t6 16.5z" />
    <glyph glyph-name="Egrave" unicode="&#xc8;" horiz-adv-x="706" 
d="M543 831q0 12 -3 24t-9.5 22t-16 16.5t-21.5 6.5h-370q-50 0 -50 -56v-789q0 -29 13 -42t37 -13h402q17 0 29.5 8.5t13.5 31.5l2 5q0 12 -3.5 25t-9.5 23.5t-15.5 17.5t-21.5 7h-328v294h306q23 0 34 9.5t11 35.5v3q0 24 -12.5 46.5t-37.5 22.5h-301v252h306q19 0 32 10
t13 35v5zM426 1025l-159 137q-9 6 -24 6q-9 0 -17.5 -4t-13.5 -12l-10 -11l2 1q-12 -12 -12 -27q0 -16 15 -31l165 -123q11 -8 24 -8q10 0 15.5 4t12.5 11l6 9q5 5 7 9t2 12q0 9 -2.5 14.5t-9.5 12.5h-1z" />
    <glyph glyph-name="Eacute" unicode="&#xc9;" horiz-adv-x="706" 
d="M543 831q0 12 -3 24t-9.5 22t-16 16.5t-21.5 6.5h-370q-50 0 -50 -56v-789q0 -29 13 -42t37 -13h402q17 0 29.5 8.5t13.5 31.5l2 5q0 12 -3.5 25t-9.5 23.5t-15.5 17.5t-21.5 7h-328v294h306q23 0 34 9.5t11 35.5v3q0 24 -12.5 46.5t-37.5 22.5h-301v252h306q19 0 32 10
t13 35v5zM450 1141l-17 18q-13 13 -31 13q-7 0 -15 -2.5t-14 -7.5l2 1l-158 -133q-5 -7 -9 -12t-4 -15q0 -6 2.5 -12t9.5 -11l12 -15q5 -5 10.5 -9t16.5 -4q7 0 12.5 2t11.5 5l165 125q16 14 16 31q0 12 -7 24z" />
    <glyph glyph-name="Ecircumflex" unicode="&#xca;" horiz-adv-x="706" 
d="M543 831q0 12 -3 24t-9.5 22t-16 16.5t-21.5 6.5h-370q-50 0 -50 -56v-789q0 -29 13 -42t37 -13h402q17 0 29.5 8.5t13.5 31.5l2 5q0 12 -3.5 25t-9.5 23.5t-15.5 17.5t-21.5 7h-328v294h306q23 0 34 9.5t11 35.5v3q0 24 -12.5 46.5t-37.5 22.5h-301v252h306q19 0 32 10
t13 35v5zM484 1019l-138 135q-7 7 -14.5 9.5t-15.5 2.5t-16.5 -2.5t-15.5 -9.5l-136 -135q-6 -7 -9 -11.5t-3 -15.5q0 -13 12 -22l3 -5q9 -7 21.5 -11.5t23.5 -4.5q5 0 11.5 1t13.5 8l99 93l92 -89q5 -7 14 -10t16 -3q11 0 21.5 5.5t18.5 12.5l2 3q7 5 9.5 11t2.5 11
q0 6 -2.5 13t-9.5 14z" />
    <glyph glyph-name="Edieresis" unicode="&#xcb;" horiz-adv-x="706" 
d="M543 831q0 12 -3 24t-9.5 22t-16 16.5t-21.5 6.5h-370q-50 0 -50 -56v-789q0 -29 13 -42t37 -13h402q17 0 29.5 8.5t13.5 31.5l2 5q0 12 -3.5 25t-9.5 23.5t-15.5 17.5t-21.5 7h-328v294h306q23 0 34 9.5t11 35.5v3q0 24 -12.5 46.5t-37.5 22.5h-301v252h306q19 0 32 10
t13 35v5zM482 1005q0 23 -19.5 38.5t-46.5 15.5t-45.5 -15.5t-20.5 -38.5q0 -23 19.5 -39.5t48.5 -16.5q27 0 45 16t19 40zM302 1005q0 23 -19.5 38.5t-46.5 15.5q-26 0 -45 -15.5t-21 -38.5q0 -23 20.5 -39.5t47.5 -16.5t45 16t19 40z" />
    <glyph glyph-name="Igrave" unicode="&#xcc;" horiz-adv-x="519" 
d="M429 826q0 12 -3.5 25.5t-10 24t-16 17.5t-20.5 7h-334q-22 0 -33.5 -10t-11.5 -35v-5q0 -11 3 -23.5t9 -22.5t15 -16.5t21 -6.5h108v-663h-111q-20 0 -32.5 -10t-12.5 -35v-4q0 -24 12 -46.5t36 -22.5h336q19 0 30.5 8.5t12.5 31.5l2 6q-1 12 -4.5 24.5t-9 23t-14 17.5
t-20.5 7h-108v663h111q19 0 30.5 9t12.5 32zM327 1025l-159 137q-9 6 -24 6q-9 0 -17.5 -4t-13.5 -12l-10 -11l2 1q-12 -12 -12 -27q0 -16 15 -31l165 -123q11 -8 24 -8q10 0 15.5 4t12.5 11l6 9q5 5 7 9t2 12q0 9 -2.5 14.5t-9.5 12.5h-1z" />
    <glyph glyph-name="Iacute" unicode="&#xcd;" horiz-adv-x="519" 
d="M429 826q0 12 -3.5 25.5t-10 24t-16 17.5t-20.5 7h-334q-22 0 -33.5 -10t-11.5 -35v-5q0 -11 3 -23.5t9 -22.5t15 -16.5t21 -6.5h108v-663h-111q-20 0 -32.5 -10t-12.5 -35v-4q0 -24 12 -46.5t36 -22.5h336q19 0 30.5 8.5t12.5 31.5l2 6q-1 12 -4.5 24.5t-9 23t-14 17.5
t-20.5 7h-108v663h111q19 0 30.5 9t12.5 32zM335 1139l-17 18q-13 13 -31 13q-7 0 -15 -2.5t-14 -7.5l2 1l-158 -133q-5 -7 -9 -12t-4 -15q0 -6 2.5 -12t9.5 -11l12 -15q5 -5 10.5 -9t16.5 -4q7 0 12.5 2t11.5 5l165 125q16 14 16 31q0 12 -7 24z" />
    <glyph glyph-name="Icircumflex" unicode="&#xce;" horiz-adv-x="519" 
d="M429 826q0 12 -3.5 25.5t-10 24t-16 17.5t-20.5 7h-334q-22 0 -33.5 -10t-11.5 -35v-5q0 -11 3 -23.5t9 -22.5t15 -16.5t21 -6.5h108v-663h-111q-20 0 -32.5 -10t-12.5 -35v-4q0 -24 12 -46.5t36 -22.5h336q19 0 30.5 8.5t12.5 31.5l2 6q-1 12 -4.5 24.5t-9 23t-14 17.5
t-20.5 7h-108v663h111q19 0 30.5 9t12.5 32zM381 1019l-138 135q-7 7 -14.5 9.5t-15.5 2.5t-16.5 -2.5t-15.5 -9.5l-136 -135q-6 -7 -9 -11.5t-3 -15.5q0 -13 12 -22l3 -5q9 -7 21.5 -11.5t23.5 -4.5q5 0 11.5 1t13.5 8l99 93l92 -89q5 -7 14 -10t16 -3q11 0 21.5 5.5
t18.5 12.5l2 3q7 5 9.5 11t2.5 11q0 6 -2.5 13t-9.5 14z" />
    <glyph glyph-name="Idieresis" unicode="&#xcf;" horiz-adv-x="519" 
d="M429 826q0 12 -3.5 25.5t-10 24t-16 17.5t-20.5 7h-334q-22 0 -33.5 -10t-11.5 -35v-5q0 -11 3 -23.5t9 -22.5t15 -16.5t21 -6.5h108v-663h-111q-20 0 -32.5 -10t-12.5 -35v-4q0 -24 12 -46.5t36 -22.5h336q19 0 30.5 8.5t12.5 31.5l2 6q-1 12 -4.5 24.5t-9 23t-14 17.5
t-20.5 7h-108v663h111q19 0 30.5 9t12.5 32zM369 1007q0 23 -19.5 38.5t-46.5 15.5t-45.5 -15.5t-20.5 -38.5q0 -23 19.5 -39.5t48.5 -16.5q27 0 45 16t19 40zM189 1007q0 23 -19.5 38.5t-46.5 15.5q-26 0 -45 -15.5t-21 -38.5q0 -23 20.5 -39.5t47.5 -16.5t45 16t19 40z
" />
    <glyph glyph-name="Eth" unicode="&#xd0;" horiz-adv-x="955" 
d="M885 562q-17 84 -63.5 149.5t-115 110.5t-154 68t-180.5 23q-60 0 -124.5 -4t-124.5 -12q-20 -5 -32 -16t-13 -38v-320h-113q-20 0 -32.5 -8t-12.5 -31l-1 -3q0 -11 3.5 -23.5t10 -22.5t15.5 -16.5t20 -6.5h110v-357q0 -29 13 -42t38 -13h208q28 0 80.5 4t114 19.5
t125.5 46.5t116.5 84t85.5 132t33 192q0 25 -2 45t-5 39zM364 453q0 11 -3.5 23.5t-10 23t-15.5 17t-20 6.5h-114v263q72 9 177 9q51 0 111.5 -12.5t115.5 -42.5t97.5 -79.5t56.5 -122.5h1q2 -10 4 -22.5t2 -29.5v-11q0 -81 -23.5 -138.5t-61 -97t-85.5 -63.5t-97 -37
t-95 -17t-79 -4h-123l-1 294h118q16 0 29 6.5t15 31.5z" />
    <glyph glyph-name="Ntilde" unicode="&#xd1;" horiz-adv-x="1068" 
d="M889 858q0 12 -7.5 21.5t-19 16t-24.5 10t-24 3.5h-4q-26 0 -35 -14t-9 -34v-648l-594 687q-10 8 -22 16t-24 8q-17 0 -33.5 -13.5t-16.5 -33.5v-832q0 -12 7.5 -22t18.5 -17t24.5 -10.5t24.5 -3.5h3q26 0 35.5 14t9.5 34v654l597 -690q9 -12 22.5 -17t24.5 -5
q23 0 34.5 14t11.5 34v828zM682 1038q0 11 -5.5 21.5t-21.5 16.5q-9 3 -17 5t-22 2q-24 0 -30.5 -9t-10.5 -19v-11q0 -10 -10 -10q-8 0 -22.5 7.5t-30.5 16.5q-23 14 -49 25t-54 11q-49 0 -83 -23t-34 -67q0 -13 6 -22t22 -14q18 -9 39 -9q23 0 29.5 8.5t11.5 19.5v11
q0 3 1.5 6.5t7.5 3.5q7 0 19 -6.5t26 -15.5q23 -13 50.5 -25.5t60.5 -12.5q48 0 82.5 23t34.5 67z" />
    <glyph glyph-name="Ograve" unicode="&#xd2;" horiz-adv-x="1117" 
d="M979 538q-14 87 -54 156.5t-103 118.5t-147 75.5t-186 26.5q-104 0 -186 -33t-140 -90.5t-90 -136.5t-36 -171q-1 -32 0.5 -62t6.5 -62q14 -89 54.5 -158t101.5 -116.5t138 -72.5t165 -25q107 0 194 29.5t150 84.5t99 133t40 176q2 32 0 63.5t-7 63.5zM850 526
q6 -28 7.5 -54t0.5 -49q-3 -73 -29.5 -132t-73 -100t-111.5 -63.5t-146 -22.5q-66 0 -122 18.5t-98.5 53t-69.5 84t-36 111.5q-9 58 -8 103q3 69 27 128t66.5 102t103 67t137.5 24q79 0 140.5 -20t105.5 -55.5t70.5 -85t35.5 -109.5zM608 1024l-159 137q-9 6 -24 6
q-9 0 -17.5 -4t-13.5 -12l-10 -11l2 1q-12 -12 -12 -27q0 -16 15 -31l165 -123q11 -8 24 -8q10 0 15.5 4t12.5 11l6 9q5 5 7 9t2 12q0 9 -2.5 14.5t-9.5 12.5h-1z" />
    <glyph glyph-name="Oacute" unicode="&#xd3;" horiz-adv-x="1117" 
d="M979 538q-14 87 -54 156.5t-103 118.5t-147 75.5t-186 26.5q-104 0 -186 -33t-140 -90.5t-90 -136.5t-36 -171q-1 -32 0.5 -62t6.5 -62q14 -89 54.5 -158t101.5 -116.5t138 -72.5t165 -25q107 0 194 29.5t150 84.5t99 133t40 176q2 32 0 63.5t-7 63.5zM850 526
q6 -28 7.5 -54t0.5 -49q-3 -73 -29.5 -132t-73 -100t-111.5 -63.5t-146 -22.5q-66 0 -122 18.5t-98.5 53t-69.5 84t-36 111.5q-9 58 -8 103q3 69 27 128t66.5 102t103 67t137.5 24q79 0 140.5 -20t105.5 -55.5t70.5 -85t35.5 -109.5zM621 1140l-17 18q-13 13 -31 13
q-7 0 -15 -2.5t-14 -7.5l2 1l-158 -133q-5 -7 -9 -12t-4 -15q0 -6 2.5 -12t9.5 -11l12 -15q5 -5 10.5 -9t16.5 -4q7 0 12.5 2t11.5 5l165 125q16 14 16 31q0 12 -7 24z" />
    <glyph glyph-name="Ocircumflex" unicode="&#xd4;" horiz-adv-x="1117" 
d="M979 538q-14 87 -54 156.5t-103 118.5t-147 75.5t-186 26.5q-104 0 -186 -33t-140 -90.5t-90 -136.5t-36 -171q-1 -32 0.5 -62t6.5 -62q14 -89 54.5 -158t101.5 -116.5t138 -72.5t165 -25q107 0 194 29.5t150 84.5t99 133t40 176q2 32 0 63.5t-7 63.5zM850 526
q6 -28 7.5 -54t0.5 -49q-3 -73 -29.5 -132t-73 -100t-111.5 -63.5t-146 -22.5q-66 0 -122 18.5t-98.5 53t-69.5 84t-36 111.5q-9 58 -8 103q3 69 27 128t66.5 102t103 67t137.5 24q79 0 140.5 -20t105.5 -55.5t70.5 -85t35.5 -109.5zM672 1027l-138 135q-7 7 -14.5 9.5
t-15.5 2.5t-16.5 -2.5t-15.5 -9.5l-136 -135q-6 -7 -9 -11.5t-3 -15.5q0 -13 12 -22l3 -5q9 -7 21.5 -11.5t23.5 -4.5q5 0 11.5 1t13.5 8l99 93l92 -89q5 -7 14 -10t16 -3q11 0 21.5 5.5t18.5 12.5l2 3q7 5 9.5 11t2.5 11q0 6 -2.5 13t-9.5 14z" />
    <glyph glyph-name="Otilde" unicode="&#xd5;" horiz-adv-x="1117" 
d="M979 538q-14 87 -54 156.5t-103 118.5t-147 75.5t-186 26.5q-104 0 -186 -33t-140 -90.5t-90 -136.5t-36 -171q-1 -32 0.5 -62t6.5 -62q14 -89 54.5 -158t101.5 -116.5t138 -72.5t165 -25q107 0 194 29.5t150 84.5t99 133t40 176q2 32 0 63.5t-7 63.5zM850 526
q6 -28 7.5 -54t0.5 -49q-3 -73 -29.5 -132t-73 -100t-111.5 -63.5t-146 -22.5q-66 0 -122 18.5t-98.5 53t-69.5 84t-36 111.5q-9 58 -8 103q3 69 27 128t66.5 102t103 67t137.5 24q79 0 140.5 -20t105.5 -55.5t70.5 -85t35.5 -109.5zM700 1046q0 11 -5.5 21.5t-21.5 16.5
q-9 3 -17 5t-22 2q-24 0 -30.5 -9t-10.5 -19v-11q0 -10 -10 -10q-8 0 -22.5 7.5t-30.5 16.5q-23 14 -49 25t-54 11q-49 0 -83 -23t-34 -67q0 -13 6 -22t22 -14q18 -9 39 -9q23 0 29.5 8.5t11.5 19.5v11q0 3 1.5 6.5t7.5 3.5q7 0 19 -6.5t26 -15.5q23 -13 50.5 -25.5
t60.5 -12.5q48 0 82.5 23t34.5 67z" />
    <glyph glyph-name="Odieresis" unicode="&#xd6;" horiz-adv-x="1117" 
d="M979 538q-14 87 -54 156.5t-103 118.5t-147 75.5t-186 26.5q-104 0 -186 -33t-140 -90.5t-90 -136.5t-36 -171q-1 -32 0.5 -62t6.5 -62q14 -89 54.5 -158t101.5 -116.5t138 -72.5t165 -25q107 0 194 29.5t150 84.5t99 133t40 176q2 32 0 63.5t-7 63.5zM850 526
q6 -28 7.5 -54t0.5 -49q-3 -73 -29.5 -132t-73 -100t-111.5 -63.5t-146 -22.5q-66 0 -122 18.5t-98.5 53t-69.5 84t-36 111.5q-9 58 -8 103q3 69 27 128t66.5 102t103 67t137.5 24q79 0 140.5 -20t105.5 -55.5t70.5 -85t35.5 -109.5zM656 1016q0 23 -19.5 38.5t-46.5 15.5
t-45.5 -15.5t-20.5 -38.5q0 -23 19.5 -39.5t48.5 -16.5q27 0 45 16t19 40zM476 1016q0 23 -19.5 38.5t-46.5 15.5q-26 0 -45 -15.5t-21 -38.5q0 -23 20.5 -39.5t47.5 -16.5t45 16t19 40z" />
    <glyph glyph-name="multiply" unicode="&#xd7;" horiz-adv-x="423" 
d="M387 498l-8 6q-8 9 -21 15.5t-27 6.5q-7 0 -15 -3t-15 -9l-106 -106l-107 106q-7 7 -14 11t-16 4q-5 0 -11.5 -2.5t-12.5 -7.5v1l-6 -3q-9 -10 -15 -22t-6 -24q0 -7 3.5 -16t8.5 -14l104 -105l-108 -108q-6 -7 -9 -13.5t-3 -15.5q0 -7 3.5 -15t11.5 -16l3 -2q8 -9 21 -14
t24 -5q16 0 27 12l105 103l108 -108q13 -13 30 -13q5 0 11 1.5t13 7.5l3 1q10 11 17 22.5t7 25.5q0 15 -12 29l-104 106l110 110q13 13 13 28q0 12 -7 26z" />
    <glyph glyph-name="Oslash" unicode="&#xd8;" horiz-adv-x="1051" 
d="M868 966l-2 1v-1q-5 5 -11 5.5t-11 0.5q-11 0 -20.5 -5t-19.5 -19v1l-57 -76q-51 23 -110.5 35.5t-128.5 12.5q-104 0 -187 -33t-143 -91.5t-95.5 -137.5t-42.5 -170q-3 -33 -3 -64q0 -30 5 -62q8 -81 40 -145t80 -112l-82 -108q-3 -5 -3 -18q-2 -16 7 -32.5t21 -24.5
l6 -4q8 -5 14.5 -5.5t9.5 -0.5q15 0 22.5 5.5t17.5 18.5l-2 -2l80 105q52 -26 110.5 -40t122.5 -14q107 0 195.5 30t153.5 86t104 135t47 177q6 64 -3 129q-11 82 -47 150t-93 118l51 69q4 6 7 13t4 13q1 14 -8.5 31t-21.5 26zM854 531q9 -57 3 -105q-6 -74 -34.5 -133
t-76.5 -100.5t-114 -64t-147 -22.5q-91 0 -158 32l442 577q37 -35 57.5 -81t27.5 -103zM169 375q-2 28 -3.5 54t0.5 49q6 70 32 129t70.5 102.5t106 68t138.5 24.5q46 0 85 -7t73 -20l-434 -570q-27 34 -45 76t-23 94z" />
    <glyph glyph-name="Ugrave" unicode="&#xd9;" horiz-adv-x="1021" 
d="M813 856q0 12 -7.5 22t-19 17t-24.5 10.5t-24 3.5h-5q-27 0 -35 -14.5t-8 -33.5v-493q0 -63 -23.5 -111t-60.5 -81t-81 -51t-86 -22q-59 -5 -100 9t-69 40t-43.5 60t-22.5 70v-2q-5 24 -8 48t-3 47v481q0 12 -7.5 22t-19 17t-24.5 10.5t-24 3.5h-4q-27 0 -35.5 -14.5
t-8.5 -33.5v-504q0 -29 3 -55.5t6 -49.5q11 -55 36 -103t67.5 -84t104 -56.5t146.5 -20.5q88 0 150 33.5t107 87.5q-1 -8 3 -3t12 16q13 -61 43 -94.5t90 -33.5q47 0 78 16t52 33l-1 -1q11 9 18 20.5t7 24.5v3q0 3 -5.5 13.5t-13.5 22t-17.5 20t-17.5 8.5q-12 0 -19 -3.5
t-18 -14.5q-9 -8 -26.5 -16.5t-26.5 -8.5q-16 0 -21.5 10.5t-9.5 29.5q-2 6 -2.5 12t-1.5 12v681zM544 1026l-159 137q-9 6 -24 6q-9 0 -17.5 -4t-13.5 -12l-10 -11l2 1q-12 -12 -12 -27q0 -16 15 -31l165 -123q11 -8 24 -8q10 0 15.5 4t12.5 11l6 9q5 5 7 9t2 12
q0 9 -2.5 14.5t-9.5 12.5h-1z" />
    <glyph glyph-name="Uacute" unicode="&#xda;" horiz-adv-x="1021" 
d="M813 856q0 12 -7.5 22t-19 17t-24.5 10.5t-24 3.5h-5q-27 0 -35 -14.5t-8 -33.5v-493q0 -63 -23.5 -111t-60.5 -81t-81 -51t-86 -22q-59 -5 -100 9t-69 40t-43.5 60t-22.5 70v-2q-5 24 -8 48t-3 47v481q0 12 -7.5 22t-19 17t-24.5 10.5t-24 3.5h-4q-27 0 -35.5 -14.5
t-8.5 -33.5v-504q0 -29 3 -55.5t6 -49.5q11 -55 36 -103t67.5 -84t104 -56.5t146.5 -20.5q88 0 150 33.5t107 87.5q-1 -8 3 -3t12 16q13 -61 43 -94.5t90 -33.5q47 0 78 16t52 33l-1 -1q11 9 18 20.5t7 24.5v3q0 3 -5.5 13.5t-13.5 22t-17.5 20t-17.5 8.5q-12 0 -19 -3.5
t-18 -14.5q-9 -8 -26.5 -16.5t-26.5 -8.5q-16 0 -21.5 10.5t-9.5 29.5q-2 6 -2.5 12t-1.5 12v681zM571 1161l-17 18q-13 13 -31 13q-7 0 -15 -2.5t-14 -7.5l2 1l-158 -133q-5 -7 -9 -12t-4 -15q0 -6 2.5 -12t9.5 -11l12 -15q5 -5 10.5 -9t16.5 -4q7 0 12.5 2t11.5 5l165 125
q16 14 16 31q0 12 -7 24z" />
    <glyph glyph-name="Ucircumflex" unicode="&#xdb;" horiz-adv-x="1021" 
d="M813 856q0 12 -7.5 22t-19 17t-24.5 10.5t-24 3.5h-5q-27 0 -35 -14.5t-8 -33.5v-493q0 -63 -23.5 -111t-60.5 -81t-81 -51t-86 -22q-59 -5 -100 9t-69 40t-43.5 60t-22.5 70v-2q-5 24 -8 48t-3 47v481q0 12 -7.5 22t-19 17t-24.5 10.5t-24 3.5h-4q-27 0 -35.5 -14.5
t-8.5 -33.5v-504q0 -29 3 -55.5t6 -49.5q11 -55 36 -103t67.5 -84t104 -56.5t146.5 -20.5q88 0 150 33.5t107 87.5q-1 -8 3 -3t12 16q13 -61 43 -94.5t90 -33.5q47 0 78 16t52 33l-1 -1q11 9 18 20.5t7 24.5v3q0 3 -5.5 13.5t-13.5 22t-17.5 20t-17.5 8.5q-12 0 -19 -3.5
t-18 -14.5q-9 -8 -26.5 -16.5t-26.5 -8.5q-16 0 -21.5 10.5t-9.5 29.5q-2 6 -2.5 12t-1.5 12v681zM611 1019l-138 135q-7 7 -14.5 9.5t-15.5 2.5t-16.5 -2.5t-15.5 -9.5l-136 -135q-6 -7 -9 -11.5t-3 -15.5q0 -13 12 -22l3 -5q9 -7 21.5 -11.5t23.5 -4.5q5 0 11.5 1t13.5 8
l99 93l92 -89q5 -7 14 -10t16 -3q11 0 21.5 5.5t18.5 12.5l2 3q7 5 9.5 11t2.5 11q0 6 -2.5 13t-9.5 14z" />
    <glyph glyph-name="Udieresis" unicode="&#xdc;" horiz-adv-x="1021" 
d="M813 856q0 12 -7.5 22t-19 17t-24.5 10.5t-24 3.5h-5q-27 0 -35 -14.5t-8 -33.5v-493q0 -63 -23.5 -111t-60.5 -81t-81 -51t-86 -22q-59 -5 -100 9t-69 40t-43.5 60t-22.5 70v-2q-5 24 -8 48t-3 47v481q0 12 -7.5 22t-19 17t-24.5 10.5t-24 3.5h-4q-27 0 -35.5 -14.5
t-8.5 -33.5v-504q0 -29 3 -55.5t6 -49.5q11 -55 36 -103t67.5 -84t104 -56.5t146.5 -20.5q88 0 150 33.5t107 87.5q-1 -8 3 -3t12 16q13 -61 43 -94.5t90 -33.5q47 0 78 16t52 33l-1 -1q11 9 18 20.5t7 24.5v3q0 3 -5.5 13.5t-13.5 22t-17.5 20t-17.5 8.5q-12 0 -19 -3.5
t-18 -14.5q-9 -8 -26.5 -16.5t-26.5 -8.5q-16 0 -21.5 10.5t-9.5 29.5q-2 6 -2.5 12t-1.5 12v681zM590 1004q0 23 -19.5 38.5t-46.5 15.5t-45.5 -15.5t-20.5 -38.5q0 -23 19.5 -39.5t48.5 -16.5q27 0 45 16t19 40zM410 1004q0 23 -19.5 38.5t-46.5 15.5q-26 0 -45 -15.5
t-21 -38.5q0 -23 20.5 -39.5t47.5 -16.5t45 16t19 40z" />
    <glyph glyph-name="Yacute" unicode="&#xdd;" horiz-adv-x="985" 
d="M798 871q0 12 -6.5 22t-17 17t-23 10.5t-24.5 3.5h-3q-27 0 -35 -14t-8 -36v-492q0 -25 -4 -55.5t-15 -61t-28.5 -59.5t-45.5 -51t-66 -35.5t-89 -13.5q-58 0 -98.5 14.5t-68 39.5t-43 57.5t-22.5 68.5v-1q-9 49 -9 96v490q0 12 -7.5 22t-19 17t-24.5 10.5t-24 3.5h-5
q-26 0 -34.5 -14t-8.5 -36v-511q0 -29 2.5 -56t7.5 -51q11 -55 35.5 -104t66 -86t103 -58.5t145.5 -21.5q85 0 147 35.5t105 89.5v-259q0 -42 -11 -76t-30 -58t-43.5 -37t-52.5 -13q-13 0 -30.5 2t-37.5 5.5t-40 7.5t-37 7q-17 4 -34 6.5l-17 2.5q-13 0 -24 -8.5t-18.5 -20
t-12 -23t-4.5 -17.5v-6q6 -23 15.5 -30t22.5 -12q16 -5 45 -10.5t61 -10.5t62.5 -8.5t48.5 -3.5q58 0 105 20.5t80 60t51 97.5t18 133v1011zM574 1138l-17 18q-13 13 -31 13q-7 0 -15 -2.5t-14 -7.5l2 1l-158 -133q-5 -7 -9 -12t-4 -15q0 -6 2.5 -12t9.5 -11l12 -15
q5 -5 10.5 -9t16.5 -4q7 0 12.5 2t11.5 5l165 125q16 14 16 31q0 12 -7 24z" />
    <glyph glyph-name="Thorn" unicode="&#xde;" horiz-adv-x="636" 
d="M589 466q0 72 -29 121.5t-75 80t-103.5 44t-113.5 13.5q-10 0 -30.5 -0.5t-45.5 -2.5v137q0 12 -7.5 21.5t-18 16t-23 10t-22.5 3.5h-4q-25 0 -34.5 -14t-9.5 -34v-817q0 -12 7.5 -22t18 -17t23 -10.5t23.5 -3.5h3q25 0 34.5 14t9.5 34v144q30 1 71 5t85 14.5t87.5 30
t77.5 50.5t55 75.5t21 106.5zM468 472q0 -37 -14 -64t-37 -46t-52.5 -30.5t-60.5 -18t-60 -9t-52 -2.5v306q16 2 36.5 4t39.5 2q34 0 70 -6.5t64.5 -23t47 -43.5t18.5 -69z" />
    <glyph glyph-name="germandbls" unicode="&#xdf;" horiz-adv-x="697" 
d="M655 177v7q0 45 -17.5 81.5t-46.5 68.5q-51 42 -84.5 69.5t-53 44.5t-27.5 27t-8 18v2q0 29 14 47t31 35q13 14 27 30t25 36.5t18 47t7 62.5q0 34 -13 68t-37 59q-13 13 -33 24t-44 19t-50 12.5t-50 4.5q-53 0 -99 -20.5t-80.5 -55t-54 -79.5t-19.5 -95l-2 -648
q0 -13 7 -23t17 -16.5t22 -10t23 -3.5h3q25 0 34.5 14t9.5 34l1 653q0 33 14 58t35 42.5t45 26t44 8.5q10 0 23.5 -1t27 -3t24.5 -6t17 -11q22 -23 23.5 -46t-9.5 -47t-30.5 -48.5t-38.5 -50t-32.5 -52t-13.5 -53.5v-5q0 -48 21.5 -79.5t52 -56.5t65 -47t61.5 -51
q14 -14 24 -35t10 -43v-3q-1 -42 -22.5 -63t-53.5 -21q-15 0 -24 4t-16.5 9.5t-16.5 9.5t-23 4q-8 0 -27.5 -9t-41 -21t-40 -23t-23.5 -14v-2q54 -25 87 -39.5t54.5 -22.5t37.5 -10.5t36 -2.5q42 0 77 13t60 37.5t39 60t14 80.5z" />
    <glyph glyph-name="agrave" unicode="&#xe0;" 
d="M504 534q0 13 -7 22t-17.5 15t-23 9t-23.5 3h-4q-25 0 -35 -15q-11 4 -24.5 6.5t-27.5 2.5q-63 0 -119.5 -34.5t-99.5 -89.5t-69 -124t-27 -139q0 -17 1 -36t3 -31q14 -65 54.5 -100t112.5 -35q48 0 97 31.5t90 83.5v-16q0 -48 23 -72t68 -27q20 -5 41 -5q47 0 78 16
t52 33l-1 -1q11 9 18 20.5t7 24.5v3q0 3 -5.5 13.5t-13.5 22t-17.5 20t-17.5 8.5q-12 0 -19 -3.5t-18 -14.5q-9 -8 -26.5 -16.5t-26.5 -8.5q-12 0 -17 5v2l-1 -1q-3 2 -5 5v423zM151 147q-2 11 -2.5 23.5t-0.5 22.5q1 47 17.5 96t43.5 88.5t61.5 65t71.5 25.5q27 0 39 -11.5
t14 -36t-5.5 -61.5t-19.5 -88q-9 -24 -26 -54t-39.5 -56.5t-49.5 -45t-56 -18.5q-39 0 -48 50zM420 722l-159 137q-9 6 -24 6q-9 0 -17.5 -4t-13.5 -12l-10 -11l2 1q-12 -12 -12 -27q0 -16 15 -31l165 -123q11 -8 24 -8q10 0 15.5 4t12.5 11l6 9q5 5 7 9t2 12q0 9 -2.5 14.5
t-9.5 12.5h-1z" />
    <glyph glyph-name="aacute" unicode="&#xe1;" 
d="M504 534q0 13 -7 22t-17.5 15t-23 9t-23.5 3h-4q-25 0 -35 -15q-11 4 -24.5 6.5t-27.5 2.5q-63 0 -119.5 -34.5t-99.5 -89.5t-69 -124t-27 -139q0 -17 1 -36t3 -31q14 -65 54.5 -100t112.5 -35q48 0 97 31.5t90 83.5v-16q0 -48 23 -72t68 -27q20 -5 41 -5q47 0 78 16
t52 33l-1 -1q11 9 18 20.5t7 24.5v3q0 3 -5.5 13.5t-13.5 22t-17.5 20t-17.5 8.5q-12 0 -19 -3.5t-18 -14.5q-9 -8 -26.5 -16.5t-26.5 -8.5q-12 0 -17 5v2l-1 -1q-3 2 -5 5v423zM151 147q-2 11 -2.5 23.5t-0.5 22.5q1 47 17.5 96t43.5 88.5t61.5 65t71.5 25.5q27 0 39 -11.5
t14 -36t-5.5 -61.5t-19.5 -88q-9 -24 -26 -54t-39.5 -56.5t-49.5 -45t-56 -18.5q-39 0 -48 50zM464 839l-17 18q-13 13 -31 13q-7 0 -15 -2.5t-14 -7.5l2 1l-158 -133q-5 -7 -9 -12t-4 -15q0 -6 2.5 -12t9.5 -11l12 -15q5 -5 10.5 -9t16.5 -4q7 0 12.5 2t11.5 5l165 125
q16 14 16 31q0 12 -7 24z" />
    <glyph glyph-name="acircumflex" unicode="&#xe2;" 
d="M504 534q0 13 -7 22t-17.5 15t-23 9t-23.5 3h-4q-25 0 -35 -15q-11 4 -24.5 6.5t-27.5 2.5q-63 0 -119.5 -34.5t-99.5 -89.5t-69 -124t-27 -139q0 -17 1 -36t3 -31q14 -65 54.5 -100t112.5 -35q48 0 97 31.5t90 83.5v-16q0 -48 23 -72t68 -27q20 -5 41 -5q47 0 78 16
t52 33l-1 -1q11 9 18 20.5t7 24.5v3q0 3 -5.5 13.5t-13.5 22t-17.5 20t-17.5 8.5q-12 0 -19 -3.5t-18 -14.5q-9 -8 -26.5 -16.5t-26.5 -8.5q-12 0 -17 5v2l-1 -1q-3 2 -5 5v423zM151 147q-2 11 -2.5 23.5t-0.5 22.5q1 47 17.5 96t43.5 88.5t61.5 65t71.5 25.5q27 0 39 -11.5
t14 -36t-5.5 -61.5t-19.5 -88q-9 -24 -26 -54t-39.5 -56.5t-49.5 -45t-56 -18.5q-39 0 -48 50zM492 723l-138 135q-7 7 -14.5 9.5t-15.5 2.5t-16.5 -2.5t-15.5 -9.5l-136 -135q-6 -7 -9 -11.5t-3 -15.5q0 -13 12 -22l3 -5q9 -7 21.5 -11.5t23.5 -4.5q5 0 11.5 1t13.5 8
l99 93l92 -89q5 -7 14 -10t16 -3q11 0 21.5 5.5t18.5 12.5l2 3q7 5 9.5 11t2.5 11q0 6 -2.5 13t-9.5 14z" />
    <glyph glyph-name="atilde" unicode="&#xe3;" 
d="M504 534q0 13 -7 22t-17.5 15t-23 9t-23.5 3h-4q-25 0 -35 -15q-11 4 -24.5 6.5t-27.5 2.5q-63 0 -119.5 -34.5t-99.5 -89.5t-69 -124t-27 -139q0 -17 1 -36t3 -31q14 -65 54.5 -100t112.5 -35q48 0 97 31.5t90 83.5v-16q0 -48 23 -72t68 -27q20 -5 41 -5q47 0 78 16
t52 33l-1 -1q11 9 18 20.5t7 24.5v3q0 3 -5.5 13.5t-13.5 22t-17.5 20t-17.5 8.5q-12 0 -19 -3.5t-18 -14.5q-9 -8 -26.5 -16.5t-26.5 -8.5q-12 0 -17 5v2l-1 -1q-3 2 -5 5v423zM151 147q-2 11 -2.5 23.5t-0.5 22.5q1 47 17.5 96t43.5 88.5t61.5 65t71.5 25.5q27 0 39 -11.5
t14 -36t-5.5 -61.5t-19.5 -88q-9 -24 -26 -54t-39.5 -56.5t-49.5 -45t-56 -18.5q-39 0 -48 50zM509 742q0 11 -5.5 21.5t-21.5 16.5q-9 3 -17 5t-22 2q-24 0 -30.5 -9t-10.5 -19v-11q0 -10 -10 -10q-8 0 -22.5 7.5t-30.5 16.5q-23 14 -49 25t-54 11q-49 0 -83 -23t-34 -67
q0 -13 6 -22t22 -14q18 -9 39 -9q23 0 29.5 8.5t11.5 19.5v11q0 3 1.5 6.5t7.5 3.5q7 0 19 -6.5t26 -15.5q23 -13 50.5 -25.5t60.5 -12.5q48 0 82.5 23t34.5 67z" />
    <glyph glyph-name="adieresis" unicode="&#xe4;" 
d="M504 534q0 13 -7 22t-17.5 15t-23 9t-23.5 3h-4q-25 0 -35 -15q-11 4 -24.5 6.5t-27.5 2.5q-63 0 -119.5 -34.5t-99.5 -89.5t-69 -124t-27 -139q0 -17 1 -36t3 -31q14 -65 54.5 -100t112.5 -35q48 0 97 31.5t90 83.5v-16q0 -48 23 -72t68 -27q20 -5 41 -5q47 0 78 16
t52 33l-1 -1q11 9 18 20.5t7 24.5v3q0 3 -5.5 13.5t-13.5 22t-17.5 20t-17.5 8.5q-12 0 -19 -3.5t-18 -14.5q-9 -8 -26.5 -16.5t-26.5 -8.5q-12 0 -17 5v2l-1 -1q-3 2 -5 5v423zM151 147q-2 11 -2.5 23.5t-0.5 22.5q1 47 17.5 96t43.5 88.5t61.5 65t71.5 25.5q27 0 39 -11.5
t14 -36t-5.5 -61.5t-19.5 -88q-9 -24 -26 -54t-39.5 -56.5t-49.5 -45t-56 -18.5q-39 0 -48 50zM497 705q0 23 -19.5 38.5t-46.5 15.5t-45.5 -15.5t-20.5 -38.5q0 -23 19.5 -39.5t48.5 -16.5q27 0 45 16t19 40zM317 705q0 23 -19.5 38.5t-46.5 15.5q-26 0 -45 -15.5
t-21 -38.5q0 -23 20.5 -39.5t47.5 -16.5t45 16t19 40z" />
    <glyph glyph-name="aring" unicode="&#xe5;" horiz-adv-x="694" 
d="M504 534q0 13 -7 22t-17.5 15t-23 9t-23.5 3h-4q-25 0 -35 -15q-11 4 -24.5 6.5t-27.5 2.5q-63 0 -119.5 -34.5t-99.5 -89.5t-69 -124t-27 -139q0 -17 1 -36t3 -31q14 -65 54.5 -100t112.5 -35q48 0 97 31.5t90 83.5v-16q0 -48 23 -72t68 -27q20 -5 41 -5q47 0 78 16
t52 33l-1 -1q11 9 18 20.5t7 24.5v3q0 3 -5.5 13.5t-13.5 22t-17.5 20t-17.5 8.5q-12 0 -19 -3.5t-18 -14.5q-9 -8 -26.5 -16.5t-26.5 -8.5q-12 0 -17 5v2l-1 -1q-3 2 -5 5v423zM151 147q-2 11 -2.5 23.5t-0.5 22.5q1 47 17.5 96t43.5 88.5t61.5 65t71.5 25.5q27 0 39 -11.5
t14 -36t-5.5 -61.5t-19.5 -88q-9 -24 -26 -54t-39.5 -56.5t-49.5 -45t-56 -18.5q-39 0 -48 50zM451 810q-11 43 -44 69t-75 26q-26 0 -50.5 -11t-43 -29t-30 -42t-11.5 -50q0 -11 1 -15.5t2 -10.5q9 -43 42 -68t74 -25q26 0 50.5 10.5t43.5 28.5t30.5 42t11.5 51
q0 8 -0.5 13.5t-0.5 10.5zM358 803v-9q0 -20 -14.5 -38t-33.5 -18q-6 0 -11.5 3.5t-6.5 10.5q-2 5 -2 7v3q0 22 14.5 39.5t33.5 17.5q16 0 18 -15z" />
    <glyph glyph-name="ae" unicode="&#xe6;" horiz-adv-x="815" 
d="M769 427q0 68 -41.5 105t-105.5 37q-33 0 -63 -12.5t-56 -34.5l1 12q0 13 -7 22t-17.5 15t-23 9t-23.5 3h-4q-25 0 -35 -15q-11 4 -24.5 6.5t-27.5 2.5q-63 0 -119.5 -34.5t-99.5 -89.5t-69 -124t-27 -139q0 -17 1 -36t3 -31q14 -65 54.5 -100t112.5 -35q23 0 50 9.5
t55 26t54 38.5t47 46q12 -35 31.5 -59.5t45 -39.5t55.5 -22t62 -7q44 0 79.5 11t73.5 40q9 9 15 19.5t6 20.5v3q-1 8 -7.5 18.5t-15.5 20.5t-17.5 16.5t-13.5 6.5h-5q-8 0 -15 -3t-18 -12l3 1q-17 -12 -35 -21t-47 -9q-16 0 -31 3.5t-28.5 12t-23.5 23.5t-15 39q-1 5 -1 13
v16q36 4 82 21t87.5 45.5t69.5 69t28 92.5zM151 147q-2 11 -2.5 23.5t-0.5 22.5q1 47 17.5 96t43.5 88.5t61.5 65t71.5 25.5q27 0 39 -11.5t14 -36t-5.5 -61.5t-19.5 -88q-9 -24 -26 -54t-39.5 -56.5t-49.5 -45t-56 -18.5q-39 0 -48 50zM511 313q7 26 17.5 51.5t24.5 45.5
t31 32.5t36 12.5q18 0 24.5 -8.5t10.5 -24.5q-1 -15 -11.5 -32t-29 -32t-44.5 -27t-59 -18z" />
    <glyph glyph-name="ccedilla" unicode="&#xe7;" horiz-adv-x="445" 
d="M408 501q-4 20 -20 38t-39 32v-1q-14 10 -35.5 16t-45.5 6q-56 0 -100.5 -25t-76.5 -70t-49 -107.5t-17 -136.5q0 -39 7 -76t22 -69.5t38 -58t55 -40.5q-4 -15 -7.5 -31.5t-3.5 -30.5q0 -20 11.5 -32t26.5 -23q8 -5 14.5 -10.5t6.5 -7.5q0 -6 -14 -6q-9 0 -18 1.5
t-24 8.5q-7 4 -12 4.5t-7 0.5q-4 0 -8 -0.5t-9 -4.5q-4 -2 -9 -8.5t-9.5 -15t-8 -17.5t-3.5 -16v-6q4 -14 10 -22.5t20 -13.5h-1q21 -10 39.5 -14t39.5 -4q31 0 54 9t38 24.5t22.5 36t7.5 44.5q0 31 -16.5 50.5t-34.5 33.5q-9 9 -12 9q1 4 1 9t2 11q23 0 46 5.5t44 14
t38.5 19t28.5 22.5q11 7 14.5 17t3.5 19v6q0 8 -6.5 19t-15.5 20.5t-18 16.5t-15 7h-3q-8 0 -14.5 -2.5t-15.5 -10.5q-4 -4 -8 -6q-16 -13 -35 -22.5t-47 -9.5q-27 0 -45.5 14t-30 35.5t-17 48t-5.5 51.5q0 38 7.5 77.5t22.5 72t39 53t57 20.5q9 0 16.5 -3.5t12.5 -5.5
q10 -12 22.5 -23t26.5 -11q9 0 19 5.5t19 14.5t15.5 19.5t8.5 20.5v9z" />
    <glyph glyph-name="egrave" unicode="&#xe8;" horiz-adv-x="520" 
d="M408 435q0 68 -41.5 105t-105.5 37q-52 0 -95 -29.5t-74.5 -77t-49 -108t-17.5 -122.5q0 -22 2 -44.5t6 -38.5q8 -46 27 -78t46 -52.5t60.5 -29.5t70.5 -9q44 0 79.5 11t73.5 40q9 9 15 19.5t6 20.5v3q-1 8 -7.5 18.5t-15.5 20.5t-17.5 16.5t-13.5 6.5h-5q-8 0 -15 -3
t-18 -12l3 1q-17 -12 -35 -21t-47 -9q-16 0 -31 3.5t-28.5 12t-23.5 23.5t-15 39q-1 5 -1 13v16q36 4 82 21t87.5 45.5t69.5 69t28 92.5zM356 723l-159 137q-9 6 -24 6q-9 0 -17.5 -4t-13.5 -12l-10 -11l2 1q-12 -12 -12 -27q0 -16 15 -31l165 -123q11 -8 24 -8q10 0 15.5 4
t12.5 11l6 9q5 5 7 9t2 12q0 9 -2.5 14.5t-9.5 12.5h-1zM150 321q7 26 17.5 51.5t24.5 45.5t31 32.5t36 12.5q18 0 24.5 -8.5t10.5 -24.5q-1 -15 -11.5 -32t-29 -32t-44.5 -27t-59 -18z" />
    <glyph glyph-name="eacute" unicode="&#xe9;" horiz-adv-x="520" 
d="M408 435q0 68 -41.5 105t-105.5 37q-52 0 -95 -29.5t-74.5 -77t-49 -108t-17.5 -122.5q0 -22 2 -44.5t6 -38.5q8 -46 27 -78t46 -52.5t60.5 -29.5t70.5 -9q44 0 79.5 11t73.5 40q9 9 15 19.5t6 20.5v3q-1 8 -7.5 18.5t-15.5 20.5t-17.5 16.5t-13.5 6.5h-5q-8 0 -15 -3
t-18 -12l3 1q-17 -12 -35 -21t-47 -9q-16 0 -31 3.5t-28.5 12t-23.5 23.5t-15 39q-1 5 -1 13v16q36 4 82 21t87.5 45.5t69.5 69t28 92.5zM396 842l-17 18q-13 13 -31 13q-7 0 -15 -2.5t-14 -7.5l2 1l-158 -133q-5 -7 -9 -12t-4 -15q0 -6 2.5 -12t9.5 -11l12 -15
q5 -5 10.5 -9t16.5 -4q7 0 12.5 2t11.5 5l165 125q16 14 16 31q0 12 -7 24zM150 321q7 26 17.5 51.5t24.5 45.5t31 32.5t36 12.5q18 0 24.5 -8.5t10.5 -24.5q-1 -15 -11.5 -32t-29 -32t-44.5 -27t-59 -18z" />
    <glyph glyph-name="ecircumflex" unicode="&#xea;" horiz-adv-x="520" 
d="M408 435q0 68 -41.5 105t-105.5 37q-52 0 -95 -29.5t-74.5 -77t-49 -108t-17.5 -122.5q0 -22 2 -44.5t6 -38.5q8 -46 27 -78t46 -52.5t60.5 -29.5t70.5 -9q44 0 79.5 11t73.5 40q9 9 15 19.5t6 20.5v3q-1 8 -7.5 18.5t-15.5 20.5t-17.5 16.5t-13.5 6.5h-5q-8 0 -15 -3
t-18 -12l3 1q-17 -12 -35 -21t-47 -9q-16 0 -31 3.5t-28.5 12t-23.5 23.5t-15 39q-1 5 -1 13v16q36 4 82 21t87.5 45.5t69.5 69t28 92.5zM414 720l-138 135q-7 7 -14.5 9.5t-15.5 2.5t-16.5 -2.5t-15.5 -9.5l-136 -135q-6 -7 -9 -11.5t-3 -15.5q0 -13 12 -22l3 -5
q9 -7 21.5 -11.5t23.5 -4.5q5 0 11.5 1t13.5 8l99 93l92 -89q5 -7 14 -10t16 -3q11 0 21.5 5.5t18.5 12.5l2 3q7 5 9.5 11t2.5 11q0 6 -2.5 13t-9.5 14zM150 321q7 26 17.5 51.5t24.5 45.5t31 32.5t36 12.5q18 0 24.5 -8.5t10.5 -24.5q-1 -15 -11.5 -32t-29 -32t-44.5 -27
t-59 -18z" />
    <glyph glyph-name="edieresis" unicode="&#xeb;" horiz-adv-x="520" 
d="M408 435q0 68 -41.5 105t-105.5 37q-52 0 -95 -29.5t-74.5 -77t-49 -108t-17.5 -122.5q0 -22 2 -44.5t6 -38.5q8 -46 27 -78t46 -52.5t60.5 -29.5t70.5 -9q44 0 79.5 11t73.5 40q9 9 15 19.5t6 20.5v3q-1 8 -7.5 18.5t-15.5 20.5t-17.5 16.5t-13.5 6.5h-5q-8 0 -15 -3
t-18 -12l3 1q-17 -12 -35 -21t-47 -9q-16 0 -31 3.5t-28.5 12t-23.5 23.5t-15 39q-1 5 -1 13v16q36 4 82 21t87.5 45.5t69.5 69t28 92.5zM403 708q0 23 -19.5 38.5t-46.5 15.5t-45.5 -15.5t-20.5 -38.5q0 -23 19.5 -39.5t48.5 -16.5q27 0 45 16t19 40zM223 708
q0 23 -19.5 38.5t-46.5 15.5q-26 0 -45 -15.5t-21 -38.5q0 -23 20.5 -39.5t47.5 -16.5t45 16t19 40zM150 321q7 26 17.5 51.5t24.5 45.5t31 32.5t36 12.5q18 0 24.5 -8.5t10.5 -24.5q-1 -15 -11.5 -32t-29 -32t-44.5 -27t-59 -18z" />
    <glyph glyph-name="igrave" unicode="&#xec;" horiz-adv-x="331" 
d="M152 546q0 13 -5.5 23t-14.5 16t-20 9t-21 3h-3q-23 0 -37.5 -14t-14.5 -34v-459q0 -27 14.5 -46.5t33 -32.5t37 -19.5t27.5 -6.5h6q8 -2 11.5 -1t12.5 1q47 0 78 16t52 33l-1 -1q11 9 18 20.5t7 24.5v3q0 3 -5.5 13.5t-13.5 22t-17.5 20t-17.5 8.5q-12 0 -19 -3.5
t-18 -14.5q-9 -8 -26.5 -16.5t-26.5 -8.5q-16 0 -22.5 10.5t-10.5 29.5q-1 4 -1.5 8t-1.5 9v387zM208 723l-159 137q-9 6 -24 6q-9 0 -17.5 -4t-13.5 -12l-10 -11l2 1q-12 -12 -12 -27q0 -16 15 -31l165 -123q11 -8 24 -8q10 0 15.5 4t12.5 11l6 9q5 5 7 9t2 12
q0 9 -2.5 14.5t-9.5 12.5h-1z" />
    <glyph glyph-name="iacute" unicode="&#xed;" horiz-adv-x="331" 
d="M152 546q0 13 -5.5 23t-14.5 16t-20 9t-21 3h-3q-23 0 -37.5 -14t-14.5 -34v-459q0 -27 14.5 -46.5t33 -32.5t37 -19.5t27.5 -6.5h6q8 -2 11.5 -1t12.5 1q47 0 78 16t52 33l-1 -1q11 9 18 20.5t7 24.5v3q0 3 -5.5 13.5t-13.5 22t-17.5 20t-17.5 8.5q-12 0 -19 -3.5
t-18 -14.5q-9 -8 -26.5 -16.5t-26.5 -8.5q-16 0 -22.5 10.5t-10.5 29.5q-1 4 -1.5 8t-1.5 9v387zM211 841l-17 18q-13 13 -31 13q-7 0 -15 -2.5t-14 -7.5l2 1l-158 -133q-5 -7 -9 -12t-4 -15q0 -6 2.5 -12t9.5 -11l12 -15q5 -5 10.5 -9t16.5 -4q7 0 12.5 2t11.5 5l165 125
q16 14 16 31q0 12 -7 24z" />
    <glyph glyph-name="icircumflex" unicode="&#xee;" horiz-adv-x="331" 
d="M152 546q0 13 -5.5 23t-14.5 16t-20 9t-21 3h-3q-23 0 -37.5 -14t-14.5 -34v-459q0 -27 14.5 -46.5t33 -32.5t37 -19.5t27.5 -6.5h6q8 -2 11.5 -1t12.5 1q47 0 78 16t52 33l-1 -1q11 9 18 20.5t7 24.5v3q0 3 -5.5 13.5t-13.5 22t-17.5 20t-17.5 8.5q-12 0 -19 -3.5
t-18 -14.5q-9 -8 -26.5 -16.5t-26.5 -8.5q-16 0 -22.5 10.5t-10.5 29.5q-1 4 -1.5 8t-1.5 9v387zM259 725l-138 135q-7 7 -14.5 9.5t-15.5 2.5t-16.5 -2.5t-15.5 -9.5l-136 -135q-6 -7 -9 -11.5t-3 -15.5q0 -13 12 -22l3 -5q9 -7 21.5 -11.5t23.5 -4.5q5 0 11.5 1t13.5 8
l99 93l92 -89q5 -7 14 -10t16 -3q11 0 21.5 5.5t18.5 12.5l2 3q7 5 9.5 11t2.5 11q0 6 -2.5 13t-9.5 14z" />
    <glyph glyph-name="idieresis" unicode="&#xef;" horiz-adv-x="331" 
d="M152 546q0 13 -5.5 23t-14.5 16t-20 9t-21 3h-3q-23 0 -37.5 -14t-14.5 -34v-459q0 -27 14.5 -46.5t33 -32.5t37 -19.5t27.5 -6.5h6q8 -2 11.5 -1t12.5 1q47 0 78 16t52 33l-1 -1q11 9 18 20.5t7 24.5v3q0 3 -5.5 13.5t-13.5 22t-17.5 20t-17.5 8.5q-12 0 -19 -3.5
t-18 -14.5q-9 -8 -26.5 -16.5t-26.5 -8.5q-16 0 -22.5 10.5t-10.5 29.5q-1 4 -1.5 8t-1.5 9v387zM253 711q0 23 -19.5 38.5t-46.5 15.5t-45.5 -15.5t-20.5 -38.5q0 -23 19.5 -39.5t48.5 -16.5q27 0 45 16t19 40zM73 711q0 23 -19.5 38.5t-46.5 15.5q-26 0 -45 -15.5
t-21 -38.5q0 -23 20.5 -39.5t47.5 -16.5t45 16t19 40z" />
    <glyph glyph-name="eth" unicode="&#xf0;" horiz-adv-x="555" 
d="M52 699q6 -16 20.5 -28.5t30.5 -12.5q4 0 9 0.5t11 5.5l108 48q20 -27 37 -56t32 -58h-29q-50 0 -94.5 -27t-77.5 -71.5t-52.5 -101.5t-19.5 -118v-10q1 -23 2.5 -45t3.5 -38q9 -50 30 -87.5t50 -62t64.5 -37t75.5 -12.5q50 0 95.5 24.5t79.5 67.5t54 101t20 125
q0 55 -11.5 114t-32.5 117.5t-51 115t-67 107.5l56 26l-2 -2q13 6 21 14.5t8 24.5v12t-2 5v3q-9 18 -24.5 33.5t-32.5 15.5q-2 0 -6.5 -0.5t-9.5 -3.5l1 1l-85 -37q-20 20 -40 37t-40 32v-2q-32 25 -56.5 36t-31.5 11t-16.5 -8.5t-18.5 -20t-15.5 -22.5t-6.5 -17
q0 -14 4 -22t21 -15l-4 3q23 -16 45.5 -32t42.5 -34l-76 -33q-29 -12 -29 -41q0 -1 1 -7t1 -8zM381 367q2 -10 4 -24t2 -28v-9q0 -44 -11.5 -81.5t-30 -65.5t-42 -43.5t-47.5 -15.5q-39 0 -68 26.5t-40 81.5q-2 16 -3 35t-1 37q0 38 10 75t27 66t39.5 47t49.5 18
q44 0 71.5 -31.5t37.5 -85.5z" />
    <glyph glyph-name="ntilde" unicode="&#xf1;" horiz-adv-x="706" 
d="M516 375q0 41 -7 77.5t-26 64.5t-51 44t-81 16q-51 0 -94 -28.5t-79 -79.5v57q0 12 -6.5 21.5t-17 16t-23 10t-23.5 3.5h-5q-26 0 -34 -13.5t-8 -32.5v-494q0 -12 7 -21t17 -15t22 -9.5t23 -3.5h6q25 0 33.5 13t8.5 33v195q0 73 16.5 119t42 72t56 35.5t59.5 9.5
q16 0 25.5 -9t14.5 -22.5t6 -30t1 -31.5l1 -240q0 -45 14.5 -73t36 -44t46.5 -22t47 -6q47 0 78 16t52 33l-1 -1q11 9 18 20.5t7 24.5v3q0 3 -5.5 13.5t-13.5 22t-17.5 20t-17.5 8.5q-12 0 -19 -3.5t-18 -14.5q-9 -8 -26.5 -16.5t-26.5 -8.5q-16 0 -22.5 10.5t-10.5 29.5
q-2 8 -3 17l-2 18v196zM492 742q0 11 -5.5 21.5t-21.5 16.5q-9 3 -17 5t-22 2q-24 0 -30.5 -9t-10.5 -19v-11q0 -10 -10 -10q-8 0 -22.5 7.5t-30.5 16.5q-23 14 -49 25t-54 11q-49 0 -83 -23t-34 -67q0 -13 6 -22t22 -14q18 -9 39 -9q23 0 29.5 8.5t11.5 19.5v11
q0 3 1.5 6.5t7.5 3.5q7 0 19 -6.5t26 -15.5q23 -13 50.5 -25.5t60.5 -12.5q48 0 82.5 23t34.5 67z" />
    <glyph glyph-name="ograve" unicode="&#xf2;" horiz-adv-x="625" 
d="M501 298q-2 55 -17.5 105.5t-45.5 89t-74.5 61.5t-105.5 23q-54 0 -97.5 -27t-74 -71.5t-46 -101t-12.5 -115.5q2 -53 17 -102.5t44 -87.5t73 -61t104 -23q50 0 94 24t76.5 65.5t50 98t14.5 122.5zM386 298q2 -39 -8 -75t-27 -64.5t-40 -45.5t-48 -17q-33 0 -55 15
t-35.5 39t-20 54t-7.5 60q-2 33 6.5 68.5t24 65.5t37.5 49t49 19q33 0 56 -15t38 -39t22 -54t8 -60zM370 721l-159 137q-9 6 -24 6q-9 0 -17.5 -4t-13.5 -12l-10 -11l2 1q-12 -12 -12 -27q0 -16 15 -31l165 -123q11 -8 24 -8q10 0 15.5 4t12.5 11l6 9q5 5 7 9t2 12
q0 9 -2.5 14.5t-9.5 12.5h-1z" />
    <glyph glyph-name="oacute" unicode="&#xf3;" horiz-adv-x="625" 
d="M501 298q-2 55 -17.5 105.5t-45.5 89t-74.5 61.5t-105.5 23q-54 0 -97.5 -27t-74 -71.5t-46 -101t-12.5 -115.5q2 -53 17 -102.5t44 -87.5t73 -61t104 -23q50 0 94 24t76.5 65.5t50 98t14.5 122.5zM386 298q2 -39 -8 -75t-27 -64.5t-40 -45.5t-48 -17q-33 0 -55 15
t-35.5 39t-20 54t-7.5 60q-2 33 6.5 68.5t24 65.5t37.5 49t49 19q33 0 56 -15t38 -39t22 -54t8 -60zM399 842l-17 18q-13 13 -31 13q-7 0 -15 -2.5t-14 -7.5l2 1l-158 -133q-5 -7 -9 -12t-4 -15q0 -6 2.5 -12t9.5 -11l12 -15q5 -5 10.5 -9t16.5 -4q7 0 12.5 2t11.5 5
l165 125q16 14 16 31q0 12 -7 24z" />
    <glyph glyph-name="ocircumflex" unicode="&#xf4;" horiz-adv-x="625" 
d="M501 298q-2 55 -17.5 105.5t-45.5 89t-74.5 61.5t-105.5 23q-54 0 -97.5 -27t-74 -71.5t-46 -101t-12.5 -115.5q2 -53 17 -102.5t44 -87.5t73 -61t104 -23q50 0 94 24t76.5 65.5t50 98t14.5 122.5zM386 298q2 -39 -8 -75t-27 -64.5t-40 -45.5t-48 -17q-33 0 -55 15
t-35.5 39t-20 54t-7.5 60q-2 33 6.5 68.5t24 65.5t37.5 49t49 19q33 0 56 -15t38 -39t22 -54t8 -60zM438 723l-138 135q-7 7 -14.5 9.5t-15.5 2.5t-16.5 -2.5t-15.5 -9.5l-136 -135q-6 -7 -9 -11.5t-3 -15.5q0 -13 12 -22l3 -5q9 -7 21.5 -11.5t23.5 -4.5q5 0 11.5 1t13.5 8
l99 93l92 -89q5 -7 14 -10t16 -3q11 0 21.5 5.5t18.5 12.5l2 3q7 5 9.5 11t2.5 11q0 6 -2.5 13t-9.5 14z" />
    <glyph glyph-name="otilde" unicode="&#xf5;" horiz-adv-x="625" 
d="M501 298q-2 55 -17.5 105.5t-45.5 89t-74.5 61.5t-105.5 23q-54 0 -97.5 -27t-74 -71.5t-46 -101t-12.5 -115.5q2 -53 17 -102.5t44 -87.5t73 -61t104 -23q50 0 94 24t76.5 65.5t50 98t14.5 122.5zM386 298q2 -39 -8 -75t-27 -64.5t-40 -45.5t-48 -17q-33 0 -55 15
t-35.5 39t-20 54t-7.5 60q-2 33 6.5 68.5t24 65.5t37.5 49t49 19q33 0 56 -15t38 -39t22 -54t8 -60zM458 742q0 11 -5.5 21.5t-21.5 16.5q-9 3 -17 5t-22 2q-24 0 -30.5 -9t-10.5 -19v-11q0 -10 -10 -10q-8 0 -22.5 7.5t-30.5 16.5q-23 14 -49 25t-54 11q-49 0 -83 -23
t-34 -67q0 -13 6 -22t22 -14q18 -9 39 -9q23 0 29.5 8.5t11.5 19.5v11q0 3 1.5 6.5t7.5 3.5q7 0 19 -6.5t26 -15.5q23 -13 50.5 -25.5t60.5 -12.5q48 0 82.5 23t34.5 67z" />
    <glyph glyph-name="odieresis" unicode="&#xf6;" horiz-adv-x="625" 
d="M501 298q-2 55 -17.5 105.5t-45.5 89t-74.5 61.5t-105.5 23q-54 0 -97.5 -27t-74 -71.5t-46 -101t-12.5 -115.5q2 -53 17 -102.5t44 -87.5t73 -61t104 -23q50 0 94 24t76.5 65.5t50 98t14.5 122.5zM386 298q2 -39 -8 -75t-27 -64.5t-40 -45.5t-48 -17q-33 0 -55 15
t-35.5 39t-20 54t-7.5 60q-2 33 6.5 68.5t24 65.5t37.5 49t49 19q33 0 56 -15t38 -39t22 -54t8 -60zM418 706q0 23 -19.5 38.5t-46.5 15.5t-45.5 -15.5t-20.5 -38.5q0 -23 19.5 -39.5t48.5 -16.5q27 0 45 16t19 40zM238 706q0 23 -19.5 38.5t-46.5 15.5q-26 0 -45 -15.5
t-21 -38.5q0 -23 20.5 -39.5t47.5 -16.5t45 16t19 40z" />
    <glyph glyph-name="divide" unicode="&#xf7;" horiz-adv-x="654" 
d="M613 333q0 11 -3.5 23.5t-10 22.5t-15.5 16.5t-20 6.5h-506q-20 0 -31.5 -8t-13.5 -30l-1 -4q1 -11 5 -23t10.5 -22t15.5 -16.5t20 -6.5h505q17 0 29.5 6.5t14.5 29.5zM385 517q0 32 -20.5 54.5t-51.5 22.5q-15 0 -28 -6t-22.5 -16.5t-15.5 -24.5t-6 -30q0 -32 21.5 -54
t50.5 -22q31 0 51 21.5t21 53.5v1zM384 172v6q0 31 -20 52.5t-51 21.5q-15 0 -28 -6t-22.5 -16.5t-15.5 -24.5t-6 -30q0 -32 21.5 -54t50.5 -22t50 21.5t21 51.5z" />
    <glyph glyph-name="oslash" unicode="&#xf8;" horiz-adv-x="555" 
d="M502 304q0 69 -21 131t-66 103l17 45l-2 -3q4 7 4.5 11t0.5 9q0 20 -15 34t-33 21q-6 4 -9.5 4.5t-8.5 0.5q-28 0 -39 -33v1l-15 -43q-19 4 -44 4q-54 0 -99 -27.5t-77 -72.5t-50 -103t-18 -118v-6q0 -68 21 -129.5t69 -101.5l-18 -49q-2 -6 -2.5 -9.5t-0.5 -7.5
q0 -18 14.5 -35t31.5 -22q6 -3 9.5 -3.5t8.5 -0.5q15 0 25 8.5t17 22.5l18 54q8 -1 16 -1h17q50 0 95.5 24t79.5 66.5t54 100t20 125.5zM144 270q0 34 9.5 70.5t26.5 67t40 50t50 19.5h4l-112 -318q-11 23 -14.5 52.5t-3.5 58.5zM387 304q0 -39 -11 -75t-29 -64.5t-41 -46.5
t-47 -19l110 307q9 -23 13.5 -49t4.5 -53z" />
    <glyph glyph-name="ugrave" unicode="&#xf9;" horiz-adv-x="702" 
d="M397 95q6 -31 16.5 -51t26.5 -31.5t38.5 -16t52.5 -4.5q47 0 78 16t52 33l-1 -1q11 9 18 20.5t7 24.5v3q0 3 -5.5 13.5t-13.5 22t-17.5 20t-17.5 8.5q-12 0 -19 -3.5t-18 -14.5q-9 -8 -26.5 -16.5t-26.5 -8.5q-16 0 -20 10.5t-8 29.5v377q0 12 -7 21.5t-17.5 16t-23 10
t-23.5 3.5h-4q-26 0 -34 -13.5t-8 -32.5v-197q1 -54 -14.5 -97.5t-41 -74t-57 -47t-61.5 -16.5q-17 0 -26.5 9t-14 23t-6 30.5t-1.5 31.5v335q0 13 -6.5 22t-17 15t-23 9t-24.5 3h-4q-25 0 -33.5 -13.5t-8.5 -32.5v-341q0 -41 7 -77.5t26 -64.5t51 -44t82 -16q48 0 91.5 28
t81.5 80v6t1 -7zM385 718l-159 137q-9 6 -24 6q-9 0 -17.5 -4t-13.5 -12l-10 -11l2 1q-12 -12 -12 -27q0 -16 15 -31l165 -123q11 -8 24 -8q10 0 15.5 4t12.5 11l6 9q5 5 7 9t2 12q0 9 -2.5 14.5t-9.5 12.5h-1z" />
    <glyph glyph-name="uacute" unicode="&#xfa;" horiz-adv-x="702" 
d="M397 95q6 -31 16.5 -51t26.5 -31.5t38.5 -16t52.5 -4.5q47 0 78 16t52 33l-1 -1q11 9 18 20.5t7 24.5v3q0 3 -5.5 13.5t-13.5 22t-17.5 20t-17.5 8.5q-12 0 -19 -3.5t-18 -14.5q-9 -8 -26.5 -16.5t-26.5 -8.5q-16 0 -20 10.5t-8 29.5v377q0 12 -7 21.5t-17.5 16t-23 10
t-23.5 3.5h-4q-26 0 -34 -13.5t-8 -32.5v-197q1 -54 -14.5 -97.5t-41 -74t-57 -47t-61.5 -16.5q-17 0 -26.5 9t-14 23t-6 30.5t-1.5 31.5v335q0 13 -6.5 22t-17 15t-23 9t-24.5 3h-4q-25 0 -33.5 -13.5t-8.5 -32.5v-341q0 -41 7 -77.5t26 -64.5t51 -44t82 -16q48 0 91.5 28
t81.5 80v6t1 -7zM425 842l-17 18q-13 13 -31 13q-7 0 -15 -2.5t-14 -7.5l2 1l-158 -133q-5 -7 -9 -12t-4 -15q0 -6 2.5 -12t9.5 -11l12 -15q5 -5 10.5 -9t16.5 -4q7 0 12.5 2t11.5 5l165 125q16 14 16 31q0 12 -7 24z" />
    <glyph glyph-name="ucircumflex" unicode="&#xfb;" horiz-adv-x="702" 
d="M397 95q6 -31 16.5 -51t26.5 -31.5t38.5 -16t52.5 -4.5q47 0 78 16t52 33l-1 -1q11 9 18 20.5t7 24.5v3q0 3 -5.5 13.5t-13.5 22t-17.5 20t-17.5 8.5q-12 0 -19 -3.5t-18 -14.5q-9 -8 -26.5 -16.5t-26.5 -8.5q-16 0 -20 10.5t-8 29.5v377q0 12 -7 21.5t-17.5 16t-23 10
t-23.5 3.5h-4q-26 0 -34 -13.5t-8 -32.5v-197q1 -54 -14.5 -97.5t-41 -74t-57 -47t-61.5 -16.5q-17 0 -26.5 9t-14 23t-6 30.5t-1.5 31.5v335q0 13 -6.5 22t-17 15t-23 9t-24.5 3h-4q-25 0 -33.5 -13.5t-8.5 -32.5v-341q0 -41 7 -77.5t26 -64.5t51 -44t82 -16q48 0 91.5 28
t81.5 80v6t1 -7zM444 722l-138 135q-7 7 -14.5 9.5t-15.5 2.5t-16.5 -2.5t-15.5 -9.5l-136 -135q-6 -7 -9 -11.5t-3 -15.5q0 -13 12 -22l3 -5q9 -7 21.5 -11.5t23.5 -4.5q5 0 11.5 1t13.5 8l99 93l92 -89q5 -7 14 -10t16 -3q11 0 21.5 5.5t18.5 12.5l2 3q7 5 9.5 11t2.5 11
q0 6 -2.5 13t-9.5 14z" />
    <glyph glyph-name="udieresis" unicode="&#xfc;" horiz-adv-x="702" 
d="M397 95q6 -31 16.5 -51t26.5 -31.5t38.5 -16t52.5 -4.5q47 0 78 16t52 33l-1 -1q11 9 18 20.5t7 24.5v3q0 3 -5.5 13.5t-13.5 22t-17.5 20t-17.5 8.5q-12 0 -19 -3.5t-18 -14.5q-9 -8 -26.5 -16.5t-26.5 -8.5q-16 0 -20 10.5t-8 29.5v377q0 12 -7 21.5t-17.5 16t-23 10
t-23.5 3.5h-4q-26 0 -34 -13.5t-8 -32.5v-197q1 -54 -14.5 -97.5t-41 -74t-57 -47t-61.5 -16.5q-17 0 -26.5 9t-14 23t-6 30.5t-1.5 31.5v335q0 13 -6.5 22t-17 15t-23 9t-24.5 3h-4q-25 0 -33.5 -13.5t-8.5 -32.5v-341q0 -41 7 -77.5t26 -64.5t51 -44t82 -16q48 0 91.5 28
t81.5 80v6t1 -7zM435 708q0 23 -19.5 38.5t-46.5 15.5t-45.5 -15.5t-20.5 -38.5q0 -23 19.5 -39.5t48.5 -16.5q27 0 45 16t19 40zM255 708q0 23 -19.5 38.5t-46.5 15.5q-26 0 -45 -15.5t-21 -38.5q0 -23 20.5 -39.5t47.5 -16.5t45 16t19 40z" />
    <glyph glyph-name="yacute" unicode="&#xfd;" horiz-adv-x="666" 
d="M498 544q0 13 -6.5 23t-16.5 16.5t-22.5 10t-23.5 3.5h-3q-25 0 -33.5 -14t-8.5 -34v-203q-1 -55 -17 -100t-40.5 -77t-54 -49.5t-56.5 -17.5q-17 0 -26 9t-14 23.5t-6 31.5t-1 33v347q0 13 -6.5 22.5t-16.5 16t-22.5 9.5t-23.5 3h-4q-25 0 -33 -14t-8 -34v-353
q0 -43 7 -80.5t25 -66t49.5 -45t79.5 -16.5t90 28.5t78 82.5v-260q0 -25 -5 -54.5t-19 -55t-38.5 -42.5t-62.5 -17q-23 0 -41 6.5t-32 15.5q-4 4 -8 5t-7 1q-10 6 -18 6h-6q-6 -1 -14.5 -8.5t-16.5 -18t-13.5 -21.5t-5.5 -18v-3q0 -16 8.5 -25t18.5 -18q33 -23 69 -30.5
t77 -7.5q58 0 101 21.5t71.5 59t42 88t13.5 109.5v712zM418 840l-17 18q-13 13 -31 13q-7 0 -15 -2.5t-14 -7.5l2 1l-158 -133q-5 -7 -9 -12t-4 -15q0 -6 2.5 -12t9.5 -11l12 -15q5 -5 10.5 -9t16.5 -4q7 0 12.5 2t11.5 5l165 125q16 14 16 31q0 12 -7 24z" />
    <glyph glyph-name="thorn" unicode="&#xfe;" horiz-adv-x="576" 
d="M519 466q-11 68 -52.5 104.5t-109.5 36.5q-49 0 -96.5 -33.5t-86.5 -89.5v377q0 13 -6.5 23t-16.5 16t-22.5 9t-23.5 3h-5q-25 0 -32.5 -14t-7.5 -34v-1112q0 -14 6.5 -23.5t16.5 -16t22.5 -9.5t23.5 -3h4q26 0 32.5 13.5t8.5 32.5v246q9 -2 20 -4t22 -2q62 0 117.5 36.5
t97.5 94.5t67 131t25 146v17q0 16 -1 30.5t-3 24.5zM405 405v-14q-1 -50 -17 -101t-42.5 -92.5t-60 -68t-69.5 -26.5q-18 0 -28.5 8.5t-12.5 18.5q-1 2 -1 7v11v107q5 17 15.5 41.5t24.5 50.5t30.5 52t35 46.5t37.5 33.5t38 13q17 0 29.5 -14t17.5 -39q1 -8 2 -17t1 -17z
" />
    <glyph glyph-name="ydieresis" unicode="&#xff;" horiz-adv-x="666" 
d="M498 544q0 13 -6.5 23t-16.5 16.5t-22.5 10t-23.5 3.5h-3q-25 0 -33.5 -14t-8.5 -34v-203q-1 -55 -17 -100t-40.5 -77t-54 -49.5t-56.5 -17.5q-17 0 -26 9t-14 23.5t-6 31.5t-1 33v347q0 13 -6.5 22.5t-16.5 16t-22.5 9.5t-23.5 3h-4q-25 0 -33 -14t-8 -34v-353
q0 -43 7 -80.5t25 -66t49.5 -45t79.5 -16.5t90 28.5t78 82.5v-260q0 -25 -5 -54.5t-19 -55t-38.5 -42.5t-62.5 -17q-23 0 -41 6.5t-32 15.5q-4 4 -8 5t-7 1q-10 6 -18 6h-6q-6 -1 -14.5 -8.5t-16.5 -18t-13.5 -21.5t-5.5 -18v-3q0 -16 8.5 -25t18.5 -18q33 -23 69 -30.5
t77 -7.5q58 0 101 21.5t71.5 59t42 88t13.5 109.5v712zM434 708q0 23 -19.5 38.5t-46.5 15.5t-45.5 -15.5t-20.5 -38.5q0 -23 19.5 -39.5t48.5 -16.5q27 0 45 16t19 40zM254 708q0 23 -19.5 38.5t-46.5 15.5q-26 0 -45 -15.5t-21 -38.5q0 -23 20.5 -39.5t47.5 -16.5t45 16
t19 40z" />
    <glyph glyph-name="OE" unicode="&#x152;" horiz-adv-x="1153" 
d="M489 915q-104 0 -186 -33t-140 -90.5t-90 -136.5t-36 -171q-1 -32 0.5 -62t6.5 -62q14 -89 54.5 -158t101.5 -116.5t138 -72.5t165 -25q13 0 33 1t41 3t41 4t32 4h406q17 0 29.5 8.5t13.5 31.5l2 5q0 12 -3.5 25t-9.5 23.5t-15.5 17.5t-21.5 7h-328v294h306q23 0 34 9.5
t11 35.5v3q0 24 -12.5 46.5t-37.5 22.5h-301v252h306q19 0 32 10t13 35v5q0 12 -3 24t-9.5 22t-16 16.5t-21.5 6.5h-374q-14 3 -35 5.5t-44 4.5t-45 3.5t-37 1.5zM498 105q-66 0 -122 18.5t-98.5 53t-69.5 84t-36 111.5q-9 58 -8 103q3 69 27 128t66.5 102t103 67t137.5 24
q29 0 55 -3t51 -8v-669q-52 -11 -106 -11z" />
    <glyph glyph-name="oe" unicode="&#x153;" horiz-adv-x="859" 
d="M808 435q-1 34 -13.5 60.5t-34.5 44.5t-51.5 27.5t-63.5 9.5q-54 0 -98 -27t-76 -72q-29 45 -78 72t-118 27q-57 0 -103.5 -27t-79 -71.5t-49 -101t-14.5 -115.5q2 -53 17 -102.5t45 -87.5t75.5 -61t108.5 -23q51 0 96.5 22t79.5 63q34 -45 83 -65t106 -20q46 0 84.5 11
t76.5 40q23 20 23 40v3q-2 8 -9.5 18.5t-17 20.5t-19 16.5t-14.5 6.5h-5q-10 0 -17.5 -3t-18.5 -12l3 1q-17 -12 -36 -21t-51 -9q-34 0 -64 15.5t-43 62.5q-3 5 -3.5 13t-0.5 16q39 4 88 21t92.5 45.5t72 69t27.5 92.5zM404 298q1 -39 -9.5 -75t-29 -64.5t-42.5 -45.5
t-50 -17q-35 0 -58 15t-37 39t-20 54t-7 60q-1 33 8 68.5t26 65.5t40.5 49t51.5 19q34 0 58 -15t39 -39t22 -54t8 -60zM534 321q6 26 17 51.5t26 45.5t33 32.5t38 12.5q19 0 25.5 -8.5t11.5 -24.5q-1 -16 -11.5 -33t-29.5 -32t-47 -26.5t-63 -17.5z" />
    <glyph glyph-name="scaron" unicode="&#x161;" horiz-adv-x="499" 
d="M366 508q-4 13 -11 23.5t-18 15.5v-1q-27 12 -65.5 21.5t-81.5 9.5q-26 0 -52.5 -7t-48.5 -23.5t-35.5 -44t-13.5 -67.5q0 -50 28.5 -88.5t67.5 -63.5l81 -51q23 -14 39.5 -33t16.5 -48q0 -26 -22.5 -40.5t-61.5 -14.5q-20 0 -47 9.5t-46 23.5q-9 7 -14 8.5t-13 1.5
q-5 0 -11 -1t-13 -8l3 2q-11 -11 -21.5 -28.5t-10.5 -28.5v-2q0 -10 4 -20.5t20 -18.5l-1 2q14 -10 34 -18.5t42 -15t44 -10.5t40 -4q40 0 74 8.5t59 28t39 50t14 75.5q0 30 -11 56.5t-27.5 49.5t-37 41t-39.5 30l-71 43q-20 13 -33 27.5t-15 34.5q2 19 18 27.5t33 8.5
q27 0 51 -6.5t35 -11.5h-2q9 -5 14.5 -7t12.5 -2q13 0 18 4q11 5 23 24t12 36v3zM368 850l-3 5q-9 5 -21.5 10.5t-23.5 5.5q-6 0 -12 -1t-14 -8l-99 -94l-91 88q-6 8 -14.5 11.5t-15.5 3.5q-11 0 -22 -5.5t-19 -12.5l-1 -3q-12 -9 -12 -22q0 -6 3 -9l10 -10h-1l136 -143
q14 -14 32 -14q16 0 30 14l138 143q5 5 8.5 5.5t3.5 13.5q0 5 -2.5 11t-9.5 11z" />
    <glyph glyph-name="Ydieresis" unicode="&#x178;" horiz-adv-x="985" 
d="M798 871q0 12 -6.5 22t-17 17t-23 10.5t-24.5 3.5h-3q-27 0 -35 -14t-8 -36v-492q0 -25 -4 -55.5t-15 -61t-28.5 -59.5t-45.5 -51t-66 -35.5t-89 -13.5q-58 0 -98.5 14.5t-68 39.5t-43 57.5t-22.5 68.5v-1q-9 49 -9 96v490q0 12 -7.5 22t-19 17t-24.5 10.5t-24 3.5h-5
q-26 0 -34.5 -14t-8.5 -36v-511q0 -29 2.5 -56t7.5 -51q11 -55 35.5 -104t66 -86t103 -58.5t145.5 -21.5q85 0 147 35.5t105 89.5v-259q0 -42 -11 -76t-30 -58t-43.5 -37t-52.5 -13q-13 0 -30.5 2t-37.5 5.5t-40 7.5t-37 7q-17 4 -34 6.5l-17 2.5q-13 0 -24 -8.5t-18.5 -20
t-12 -23t-4.5 -17.5v-6q6 -23 15.5 -30t22.5 -12q16 -5 45 -10.5t61 -10.5t62.5 -8.5t48.5 -3.5q58 0 105 20.5t80 60t51 97.5t18 133v1011zM598 1005q0 23 -19.5 38.5t-46.5 15.5t-45.5 -15.5t-20.5 -38.5q0 -23 19.5 -39.5t48.5 -16.5q27 0 45 16t19 40zM418 1005
q0 23 -19.5 38.5t-46.5 15.5q-26 0 -45 -15.5t-21 -38.5q0 -23 20.5 -39.5t47.5 -16.5t45 16t19 40z" />
    <glyph glyph-name="florin" unicode="&#x192;" horiz-adv-x="477" 
d="M477 852q1 12 -8 23t-24.5 20t-35.5 14.5t-41 5.5q-66 0 -118.5 -56t-86.5 -165q-16 -48 -26 -102h-43q-24 0 -35.5 -12.5t-18.5 -33.5l-2 -8q-2 -8 -1 -18.5t4 -19.5t9.5 -15.5t16.5 -6.5h51q-32 -173 -64.5 -301.5t-56.5 -203.5q-9 -30 -20.5 -55.5t-22.5 -44
t-20.5 -28.5t-13.5 -10q-11 16 -17.5 34.5t-8.5 44.5q-7 -2 -18.5 -6t-23 -10.5t-21.5 -16t-14 -21.5l-1 -7q-4 -20 0 -41.5t15.5 -39t30 -28.5t44.5 -11q30 0 57.5 11t52 37.5t46.5 69.5t42 108l3 9q13 41 29 98.5t32 124.5t32 140t29 147h61q22 0 36 9.5t22 32.5q1 7 4 15
q0 6 -0.5 16t-3 19t-8 15.5t-15.5 6.5h-77q2 23 8.5 44.5t11.5 41.5q8 25 17 46.5t18 38t18.5 26t18.5 9.5q16 0 22 -3.5t11 -7.5l1 2q6 -5 13 -8t18 -3q7 0 17 4.5t19.5 12t18 18.5t13.5 25q1 2 2 5.5t2 8.5z" />
    <glyph glyph-name="circumflex" unicode="&#x2c6;" horiz-adv-x="385" 
d="M348 580l-138 135q-7 7 -14.5 9.5t-15.5 2.5t-16.5 -2.5t-15.5 -9.5l-136 -135q-6 -7 -9 -11.5t-3 -15.5q0 -13 12 -22l3 -5q9 -7 21.5 -11.5t23.5 -4.5q5 0 11.5 1t13.5 8l99 93l92 -89q5 -7 14 -10t16 -3q11 0 21.5 5.5t18.5 12.5l2 3q7 5 9.5 11t2.5 11q0 6 -2.5 13
t-9.5 14z" />
    <glyph glyph-name="tilde" unicode="&#x2dc;" horiz-adv-x="390" 
d="M375 559q0 11 -5.5 21.5t-21.5 16.5q-9 3 -17 5t-22 2q-24 0 -30.5 -9t-10.5 -19v-11q0 -10 -10 -10q-8 0 -22.5 7.5t-30.5 16.5q-23 14 -49 25t-54 11q-49 0 -83 -23t-34 -67q0 -13 6 -22t22 -14q18 -9 39 -9q23 0 29.5 8.5t11.5 19.5v11q0 3 1.5 6.5t7.5 3.5
q7 0 19 -6.5t26 -15.5q23 -13 50.5 -25.5t60.5 -12.5q48 0 82.5 23t34.5 67z" />
    <glyph glyph-name="endash" unicode="&#x2013;" horiz-adv-x="640" 
d="M607 339q0 11 -3.5 23.5t-10 23t-15.5 17t-20 6.5h-506q-20 0 -32.5 -8t-12.5 -31l-1 -3q0 -11 3.5 -23.5t10 -22.5t15.5 -16.5t20 -6.5h507q16 0 29 6.5t15 31.5z" />
    <glyph glyph-name="emdash" unicode="&#x2014;" horiz-adv-x="953" 
d="M923 339q0 11 -3.5 23.5t-10 23t-15.5 17t-20 6.5h-822q-20 0 -32.5 -8t-12.5 -31l-1 -3q0 -11 3.5 -23.5t10 -22.5t15.5 -16.5t20 -6.5h823q16 0 29 6.5t15 31.5z" />
    <glyph glyph-name="quoteleft" unicode="&#x2018;" horiz-adv-x="162" 
d="M99 823q-4 9 -11.5 20t-23.5 13l-28 5h-3q-14 0 -21.5 -11t-7.5 -27v-6l48 -256q4 -18 15 -25t20 -7l16 -3h3q14 0 23 12t9 29l-2 9z" />
    <glyph glyph-name="quoteright" unicode="&#x2019;" horiz-adv-x="162" 
d="M136 816v9q0 16 -5 26t-22 10h-3l-31 -5q-14 -2 -22 -13t-10 -20l-39 -247v-9q0 -17 6.5 -29t23.5 -12h3l18 3q10 0 20 7t13 27v-2z" />
    <glyph glyph-name="quotesinglbase" unicode="&#x201a;" horiz-adv-x="154" 
d="M129 172v8q0 16 -5 26.5t-22 10.5h-3l-30 -4q-13 -2 -20.5 -11t-11.5 -19l-33 -224v-7q0 -15 6 -28t24 -13h3l17 3q10 2 20.5 9.5t12.5 26.5v-3z" />
    <glyph glyph-name="quotedblleft" unicode="&#x201c;" horiz-adv-x="349" 
d="M120 823q-4 9 -12.5 20t-28.5 13l-36 5h-3q-17 0 -26.5 -11t-9.5 -27q0 -2 1 -3t1 -3l58 -256q4 -18 17 -25t25 -7l20 -3h3q18 0 28.5 12t10.5 29l-2 9zM270 823q-2 9 -11.5 20t-27.5 13l-36 5h-3q-18 0 -27 -11t-9 -27q0 -2 0.5 -3t0.5 -3l59 -256q3 -18 16 -25t24 -7
l21 -3h3q17 0 27.5 12t10.5 29v9z" />
    <glyph glyph-name="quotedblright" unicode="&#x201d;" horiz-adv-x="349" 
d="M318 816v9q0 16 -6.5 26t-26.5 10h-5l-37 -5q-17 -2 -27 -13t-12 -20l-47 -247v-9q0 -17 7.5 -29t27.5 -12h4l23 3q12 0 24.5 8t15.5 28l-1 -4zM166 816v9q0 16 -6.5 26t-26.5 10h-4l-38 -5q-17 -2 -26 -13t-13 -20l-46 -247v-9q0 -17 8 -29t28 -12h3l22 3q13 0 26 8
t15 28l-2 -4z" />
    <glyph glyph-name="quotedblbase" unicode="&#x201e;" horiz-adv-x="340" 
d="M310 172v8q0 16 -6.5 26.5t-26.5 10.5h-4l-38 -4q-14 -2 -24 -11t-15 -19l-39 -224v-7q0 -15 7.5 -28t28.5 -13h3l21 3q13 2 26 9.5t15 26.5l-2 -3zM159 172v8q0 16 -6 26.5t-27 10.5h-3l-38 -4q-16 -2 -25 -11t-14 -19l-40 -224v-7q0 -15 7 -28t29 -13h4l20 3
q12 2 25 9.5t17 26.5l-2 -3z" />
    <glyph glyph-name="dagger" unicode="&#x2020;" horiz-adv-x="415" 
d="M390 592q0 11 -3.5 23.5t-9.5 22.5t-14.5 16.5t-19.5 6.5h-93v209q0 20 -7.5 33t-31.5 13h-3q-9 0 -21 -4t-22.5 -10.5t-18 -16t-7.5 -21.5v-203h-96q-20 0 -31.5 -8.5t-11.5 -34.5v-3q0 -11 3 -23.5t9 -22.5t14.5 -16.5t19.5 -6.5h92l1 -678q0 -20 8 -33.5t31 -13.5h3
q10 0 22 4t22.5 10.5t17.5 16.5t7 22v672h96q18 0 31 8.5t13 33.5v4z" />
    <glyph glyph-name="daggerdbl" unicode="&#x2021;" horiz-adv-x="429" 
d="M396 592q0 11 -3.5 23.5t-9.5 22.5t-14.5 16.5t-19.5 6.5h-91v209q0 20 -8 33t-31 13h-5q-9 0 -21 -4t-22.5 -10.5t-18 -16t-7.5 -21.5v-203h-96q-19 0 -31 -8.5t-12 -34.5v-3q0 -11 3.5 -23.5t9.5 -22.5t15 -16.5t20 -6.5h90l1 -354h-96q-19 0 -31 -8.5t-12 -33.5v-5
q0 -11 3.5 -23.5t9.5 -22.5t15 -16.5t20 -6.5h91v-208q0 -20 8 -33.5t31 -13.5h5q9 0 21 4t22.5 10.5t18 16.5t7.5 22v202h97q15 0 27 9t12 30l2 5q0 11 -3.5 24t-9.5 23.5t-14.5 17.5t-19.5 7h-91v354h96q17 0 29.5 8.5t12.5 33.5v4z" />
    <glyph glyph-name="bullet" unicode="&#x2022;" horiz-adv-x="306" 
d="M258 384q0 28 -9.5 53.5t-25 44t-37 29.5t-45.5 11t-45.5 -11t-37.5 -29.5t-25 -44t-9 -53.5q0 -29 9 -54t24.5 -44t37 -29.5t46.5 -10.5q24 0 45.5 10.5t37 29.5t25 44t9.5 54z" />
    <glyph glyph-name="ellipsis" unicode="&#x2026;" horiz-adv-x="694" 
d="M159 46q0 23 -21.5 39.5t-50.5 16.5q-33 0 -53.5 -16.5t-20.5 -39.5q2 -23 22.5 -39t51.5 -16q29 0 50.5 16t21.5 39zM406 46q0 23 -21.5 39.5t-51.5 16.5q-32 0 -52 -16.5t-20 -39.5q2 -23 22.5 -39t49.5 -16q30 0 51.5 16t21.5 39zM652 46q0 23 -21.5 39.5t-50.5 16.5
q-32 0 -52.5 -16.5t-20.5 -39.5q2 -23 22.5 -39t50.5 -16q29 0 50.5 16t21.5 39z" />
    <glyph glyph-name="perthousand" unicode="&#x2030;" horiz-adv-x="1123" 
d="M150 -11l4 -1l-3 1q4 -1 8.5 -2.5t11.5 -1.5q14 0 23 7t16 20l423 820q2 7 2.5 11t0.5 9q0 17 -12.5 33t-29.5 25l-3 2q-5 2 -9 4t-12 2q-15 0 -24.5 -9t-16.5 -20l-421 -820q-4 -7 -4.5 -10.5t-0.5 -9.5q0 -16 13.5 -32.5t34.5 -27.5h-1zM375 736q0 34 -9.5 66.5
t-30 57.5t-52.5 40t-76 15q-39 0 -72 -17t-57 -45t-37 -63.5t-13 -72.5q0 -34 9.5 -65.5t29.5 -56t51 -39.5t75 -15q37 0 70 15t58 41.5t39.5 62t14.5 76.5zM1066 183q0 34 -9.5 66t-30 57t-52.5 40t-77 15q-39 0 -72 -17t-56 -45t-36 -63.5t-13 -72.5q0 -34 9.5 -65.5
t29.5 -56t51.5 -39t75.5 -14.5q37 0 69.5 15t57 41t39 62t14.5 77zM712 183q0 34 -10 66t-30.5 57t-52.5 40t-76 15q-39 0 -72 -17t-56 -45t-36 -63.5t-13 -72.5q0 -34 9.5 -65.5t29.5 -56t51.5 -39t75.5 -14.5q37 0 69.5 15t57 41t39 62t14.5 77zM955 183q0 -19 -6 -36.5
t-15.5 -30.5t-21.5 -21t-24 -8q-16 0 -26.5 6t-17 16t-9.5 22.5t-3 25.5v6q0 16 5 33.5t14 31t21 22.5t25 9q34 0 46 -23.5t12 -52.5zM601 183q0 -19 -6.5 -36.5t-16 -30.5t-22 -21t-24.5 -8q-30 0 -42 22t-12 48v6q0 16 5 33.5t14 31t20.5 22.5t25.5 9q32 0 45 -23.5
t13 -52.5zM264 736q0 -18 -6 -35t-16 -30t-22.5 -21t-24.5 -8q-16 0 -26.5 6.5t-16.5 17.5t-8.5 24t-2.5 27q0 16 5 33t13.5 31t20 23t24.5 9q32 0 46 -24t14 -53z" />
    <glyph glyph-name="guilsinglleft" unicode="&#x2039;" horiz-adv-x="280" 
d="M219 381q5 5 7.5 12.5t2.5 15.5q0 13 -7 29t-15 27l-5 3v-1q-8 8 -21 8q-9 0 -13.5 -3t-11.5 -10l-131 -144q-13 -13 -13 -30q0 -7 3 -15t10 -15l149 -165q5 -4 10 -6.5t14 -2.5q7 0 12 3t13 9l3 6q7 8 12 19t5 21q0 18 -11 29l-102 112z" />
    <glyph glyph-name="guilsinglright" unicode="&#x203a;" horiz-adv-x="282" 
d="M234 303l-147 159q-13 13 -27 13t-29 -15v-3q-7 -9 -11.5 -20t-4.5 -22q0 -15 10 -28l102 -111l-88 -96q-11 -12 -11 -29q0 -14 6.5 -29t14.5 -23l2 -3q10 -12 24 -12q11 0 14 2.5t8 6.5l140 151q3 5 6 11t3 16q0 7 -3 14.5t-6 12.5z" />
    <glyph glyph-name="trademark" unicode="&#x2122;" horiz-adv-x="985" 
d="M907 823q-11 36 -48 36q-17 0 -30.5 -9.5t-18.5 -21.5l1 3l-144 -251l-130 252q-8 11 -18.5 19t-28.5 8q-40 0 -48 -36l-87 -366v-1q-4 -7 -4 -18q0 -22 21.5 -33t47.5 -11q23 0 30.5 7.5t14.5 27.5l49 214l105 -201q6 -11 18.5 -19t28.5 -8q7 0 20.5 3.5t27.5 26.5
l112 198l44 -214q3 -11 14 -24.5t31 -13.5q64 0 64 47v9t-2 9l1 -2zM358 849h-316q-18 0 -31 -7.5t-13 -30.5v-3q0 -19 12.5 -37t34.5 -18h102v-318q0 -11 6 -19t15.5 -13.5t20 -8.5t19.5 -3h9q25 0 31 11.5t10 26.5v324h103q20 0 30 8.5t15 33.5l-3 6q-2 18 -13.5 33
t-31.5 15z" />
    <glyph glyph-name="Scaron" horiz-adv-x="673" 
d="M513 822q-6 20 -14 28.5t-22 16.5q-20 9 -44 18t-49.5 15.5t-51 10.5t-47.5 4q-55 0 -103 -12t-84 -37.5t-56.5 -65.5t-20.5 -95q0 -16 1 -32.5t5 -30.5q7 -36 24.5 -64.5t42.5 -52.5t56.5 -44t66.5 -39l84 -43q47 -25 80.5 -54.5t45.5 -76.5q5 -17 5 -37
q0 -30 -12.5 -54t-32.5 -40.5t-47 -25.5t-55 -9q-45 0 -80 11t-76 40q-2 1 -2 0l-6 7q-8 7 -16.5 12t-19.5 5q-7 0 -16.5 -7t-17.5 -17.5t-14 -22t-6 -19.5v-6q2 -14 6.5 -22.5t20.5 -19.5q26 -18 51 -32t52 -23.5t58 -14.5t70 -5q58 0 107 15.5t84.5 45t55.5 72.5t20 98
q0 18 -2.5 37t-9.5 42q-14 58 -61 110t-129 94l-84 42q-22 11 -42.5 23t-37 26t-28 30.5t-15.5 36.5h1q-4 20 -4 33q0 28 12 48t32.5 33t47 19t55.5 6q35 0 66 -9t57 -23q0 -1 3 -1q14 -9 23.5 -12t19.5 -3q12 0 22 8t17 19t10.5 22.5t3.5 18.5v3zM451 1151l-3 5
q-9 5 -21.5 10.5t-23.5 5.5q-6 0 -12 -1t-14 -8l-99 -94l-91 88q-6 8 -14.5 11.5t-15.5 3.5q-11 0 -22 -5.5t-19 -12.5l-1 -3q-12 -9 -12 -22q0 -6 3 -9l10 -10h-1l136 -143q14 -14 32 -14q16 0 30 14l138 143q5 5 8.5 5.5t3.5 13.5q0 5 -2.5 11t-9.5 11z" />
    </font>
</defs>
</svg>
